<svg xmlns="http://www.w3.org/2000/svg" viewBox="0 0 85.097 20.664">
  <path fill="#ff7800" d="M84.454 15.558c-.238-.08-.37-.318-.37-.556v-3.678c0-1.799-.795-2.593-2.064-2.593a2.728 2.728 0 0 0-2.514 1.509V9.18a.265.265 0 0 0-.265-.264h-2.38a.179.179 0 0 0-.16.106l-.105.37c-.027.08.026.159.079.185l.37.159c.265.106.424.37.424.635v4.71c0 .185-.106.37-.265.45l-.423.21a.271.271 0 0 0-.132.16l-.106.37c-.027.053.026.106.08.132h3.597c.08 0 .133-.053.16-.106l.105-.37c.026-.053-.027-.132-.08-.159l-.529-.211c-.238-.08-.37-.318-.37-.556v-2.381c.08-1.694.714-2.593 1.587-2.567.583.027.98.45.98 1.773v3.254c0 .186-.106.37-.265.45l-.423.212a.271.271 0 0 0-.133.159l-.106.37c-.026.053.027.106.08.132h3.598c.08 0 .132-.053.159-.106l.106-.37c.026-.053-.027-.132-.08-.159zM74.929 15.002v-5.82a.265.265 0 0 0-.265-.265h-2.381a.179.179 0 0 0-.159.106l-.106.396c-.026.053 0 .133.08.16l.397.184c.264.106.423.37.423.635v4.71c0 .185-.106.37-.265.45l-.423.211a.271.271 0 0 0-.132.16l-.106.37c-.027.052.026.105.08.132h3.598c.079 0 .132-.053.158-.106l.106-.37c.027-.053-.026-.133-.08-.16l-.528-.21a.619.619 0 0 1-.397-.583zM62.097 18.733V9.605c0-.16-.08-.291-.212-.344a5.84 5.84 0 0 0-2.831-.556c-2.381.08-3.969 2.064-3.969 4.471 0 2.17.953 3.44 2.62 3.44a2.672 2.672 0 0 0 2.38-1.588v3.81c0 .186-.105.37-.264.45l-.502.238c-.08.027-.133.08-.133.16l-.106.317c-.026.079.027.132.08.158h3.757c.08 0 .132-.053.159-.105l.105-.37c.027-.054-.026-.133-.079-.16l-.635-.238a.54.54 0 0 1-.37-.555zm-1.985-6.536c-.132 1.8-.873 3.149-1.825 3.149-.9 0-1.217-1.164-1.112-2.725.133-1.8.874-3.149 1.826-3.149.926 0 1.217 1.164 1.111 2.725zM73.844 7.647a1.203 1.203 0 0 0 1.138-1.138c0-.635-.503-1.138-1.138-1.138s-1.138.503-1.138 1.138a1.083 1.083 0 0 0 1.138 1.138c-.026.026 0 .026 0 0zM33.496 9.949c-.98-.662-1.747-1.191-1.747-2.223a1.368 1.368 0 0 1 1.429-1.323h.027c.873 0 1.56.609 1.825 1.879.027.08.106.132.185.132 0 0 .027 0 .027-.026l.608-.318a.278.278 0 0 0 .133-.238V6.403c0-.106-.053-.185-.16-.238a4.803 4.803 0 0 0-2.566-.556c-2.354 0-3.757 1.218-3.757 2.779 0 1.349.926 2.17 2.62 3.36.979.688 2.01 1.296 2.01 2.407 0 .9-.74 1.614-1.613 1.614h-.053c-1.112 0-1.64-.873-1.905-2.09a.199.199 0 0 0-.186-.132h-.026l-.635.317a.278.278 0 0 0-.132.238v1.694c0 .106.053.185.159.238.74.344 1.428.556 2.751.556 2.17 0 3.916-1.032 3.916-2.99-.027-1.455-1.19-2.46-2.91-3.651zM44.45 14.976V9.605c0-.16-.08-.291-.213-.344a5.84 5.84 0 0 0-2.83-.556c-2.382.08-3.97 2.064-3.97 4.471 0 2.17.953 3.44 2.62 3.44a2.74 2.74 0 0 0 2.408-1.588v.9c0 .291.238.53.529.53h2.037c.08 0 .133-.054.159-.107l.106-.37c.026-.053 0-.132-.08-.159l-.317-.159c-.291-.158-.45-.396-.45-.687zm-1.985-2.779c-.132 1.8-.873 3.149-1.826 3.149-.9 0-1.217-1.164-1.111-2.725.132-1.8.873-3.149 1.826-3.149.926 0 1.217 1.164 1.11 2.725zM53.471 15.002v-3.678c0-1.799-.793-2.593-2.063-2.593a2.728 2.728 0 0 0-2.514 1.509V9.18a.265.265 0 0 0-.264-.264h-2.382a.179.179 0 0 0-.158.106l-.106.37c-.027.08.026.159.08.185l.37.159c.264.106.423.37.423.635v4.71c0 .185-.106.37-.265.45l-.423.21a.271.271 0 0 0-.132.16l-.106.37c-.027.053.026.106.08.132h3.597c.08 0 .133-.053.16-.106l.105-.37c.027-.053-.026-.132-.08-.159l-.528-.211c-.239-.08-.37-.318-.37-.556V12.7c.078-1.693.713-2.672 1.587-2.646.582.027.979.45.979 1.773v3.254c0 .186-.106.37-.265.45l-.423.212a.271.271 0 0 0-.133.159l-.106.37c-.026.053.027.106.08.132h3.598c.08 0 .132-.053.159-.106l.106-.37c.026-.053-.027-.132-.08-.159l-.529-.211a.597.597 0 0 1-.397-.556zM71.251 15.77l-.397-.186a.688.688 0 0 1-.423-.635V9.181a.265.265 0 0 0-.265-.264H67.68a.179.179 0 0 0-.158.106l-.106.37c-.027.053.026.132.08.159l.528.211c.238.08.37.318.37.556V12.7c-.079 1.614-.714 2.567-1.507 2.54-.583-.026-.9-.45-.9-1.773V9.181a.265.265 0 0 0-.265-.264h-2.487a.179.179 0 0 0-.158.106l-.106.343c-.027.08.026.16.08.186l.528.211c.238.08.37.318.37.556v3.678c0 1.799.742 2.593 1.985 2.593.9 0 1.746-.265 2.434-1.588v.873c0 .291.238.53.53.53h2.116c.08 0 .132-.054.159-.107l.106-.396c.079-.053.026-.106-.027-.133zM15.504 7.065c0 2.301 3.969 2.434 3.969 4.18 0 .609-.582.926-1.085.926-2.328 0-3.651-3.28-4.048-6.906-.159-1.375-.661-2.063-2.064-2.645C8.996 1.217 4.18.424 1.216 0c.345 1.35 4.763 2.117 6.615 2.302-.158.265-.397.688-.529.953C5.45 2.778 2.275 2.329 0 2.038c.714 1.428 4.154 1.72 6.879 2.222l-.265.767a43.276 43.276 0 0 0-6.403-.555C.98 5.662 4.127 5.874 6.35 5.927l-.186.794c-1.322-.08-2.778-.053-4.206 0 .502.82 1.825.952 3.042 1.084 1.297.133 3.413.37 4.18 1.561 1.853 2.805 3.255 5.054 6.165 5.054.688.026 1.35-.08 2.011-.291-.264.952-2.487.503-3.704 2.381-.714 1.111-.714 2.381-2.196 2.752-.926.238-1.535.608-1.535 1.402a14.03 14.03 0 0 0 4.18-.74c5.636-1.747 7.859-4.896 7.859-7.488 0-1.43-.767-2.831-2.963-3.837l.026-.106c.767.16 3.175 1.508 3.942 1.852.82.424 1.746.662 2.673.688-2.382-1.587-4.525-2.698-6.536-3.333-.608-.186-1.005-.344-1.005-.609 0-.238.37-.264.37-.423 0-.133-.238-.212-.238-.476a.39.39 0 0 1 .397-.397h.027c.211 0 .396.158.423.37.026.212.159.37.344.45 1.984 1.005 4.789 2.937 6.509 4.312v.37c.185 0 .344-.158.344-.37a.377.377 0 0 0-.16-.317c-1.243-1.138-4.788-4.313-7.46-5.424a4.47 4.47 0 0 0-1.667-.344v.185h-.635l.159.265-.635.08.211.343-.503.185.212.37-.344.239.212.37z" class="st0"/>
</svg>
