<?xml version="1.0" encoding="utf-8"?>
<!-- Generator: Adobe Illustrator 22.0.1, SVG Export Plug-In . SVG Version: 6.00 Build 0)  -->
<svg version="1.1" id="Laag_1" xmlns="http://www.w3.org/2000/svg" xmlns:xlink="http://www.w3.org/1999/xlink" x="0px" y="0px"
	 viewBox="0 0 521.4 327.2" style="enable-background:new 0 0 521.4 327.2;" xml:space="preserve">
<style type="text/css">
	.st0{fill-rule:evenodd;clip-rule:evenodd;fill:#E55210;}
	.st1{fill-rule:evenodd;clip-rule:evenodd;fill:#252D7D;}
	.st2{fill-rule:evenodd;clip-rule:evenodd;fill:#FFFFFF;}
</style>
<g>
	<path class="st0" d="M264.6,18.4c0,2.5-0.2,5-0.7,7.6c-0.5,2.6-1.2,5.2-2.3,7.7c-1,2.5-2.4,4.8-4,7c-1.6,2.2-3.6,4.1-5.8,5.8
		c-2.3,1.7-4.9,3-7.8,3.9c-2.9,1-6.2,1.4-9.9,1.4c-3.6,0-6.7-0.4-9.3-1.2c-2.6-0.8-4.8-2-6.6-3.5c-1.8-1.6-3-3.5-3.9-5.8
		c-0.9-2.3-1.3-4.9-1.3-7.9c0-2.5,0.3-5,0.7-7.6c0.5-2.6,1.2-5.1,2.3-7.6c1-2.5,2.4-4.8,4-7c1.6-2.2,3.6-4.1,5.8-5.8
		c2.3-1.6,4.9-2.9,7.8-3.9c2.9-1,6.2-1.4,9.9-1.4c3.6,0,6.7,0.4,9.3,1.2c2.6,0.8,4.8,2,6.5,3.5c1.7,1.6,3,3.5,3.9,5.8
		C264.1,12.8,264.6,15.4,264.6,18.4"/>
	<path class="st1" d="M0,203.5v119.8c0,1.2,1.1,3.7,3.9,3.8h514c2.6-0.1,3.5-1.9,3.5-3.6V183.2c-0.1-2.7-2.2-3.9-2.2-3.9
		c-97.4-81.5-196.9-47-371.6-8.4c-17.7,3.9-35.3,20.3-54.7,24.2c-14.6,2.9-30.5-6.6-46.1-3.9c-14,2.5-28.3,4.9-43.2,7.2
		C3.7,198.4,0,199,0,203.5"/>
	<path class="st2" d="M75.7,264.1c0,2.1-0.2,4.3-0.6,6.6c-0.4,2.3-1.1,4.5-2,6.6c-0.9,2.2-2,4.2-3.4,6.1c-1.4,1.9-3.1,3.5-5,5
		c-1.9,1.4-4.2,2.6-6.7,3.4c-2.5,0.8-5.4,1.2-8.5,1.2c-3.1,0-5.8-0.4-8-1.1c-2.3-0.7-4.2-1.7-5.7-3.1c-1.5-1.4-2.6-3-3.4-5
		c-0.7-2-1.1-4.2-1.1-6.8c0-2.1,0.2-4.3,0.6-6.6c0.4-2.3,1.1-4.5,2-6.6c0.9-2.1,2-4.1,3.4-6.1c1.4-1.9,3.1-3.6,5-5
		c1.9-1.4,4.2-2.5,6.7-3.4c2.5-0.8,5.4-1.2,8.5-1.2c3.1,0,5.8,0.3,8,1c2.3,0.7,4.2,1.7,5.7,3.1c1.5,1.3,2.6,3,3.4,5
		C75.4,259.3,75.7,261.5,75.7,264.1 M63.7,264.8c0-1.2-0.1-2.3-0.4-3.3c-0.3-1-0.7-1.8-1.3-2.4c-0.6-0.7-1.4-1.2-2.3-1.5
		c-0.9-0.3-2.1-0.5-3.4-0.5c-1.5,0-2.9,0.3-4.2,0.9c-1.2,0.6-2.3,1.4-3.3,2.3c-1,1-1.8,2.1-2.5,3.4c-0.7,1.3-1.3,2.7-1.8,4.1
		c-0.5,1.4-0.8,2.9-1,4.3c-0.2,1.5-0.3,2.9-0.3,4.2c0,1.2,0.1,2.4,0.4,3.3c0.3,1,0.7,1.8,1.3,2.5c0.6,0.7,1.4,1.2,2.3,1.5
		c0.9,0.4,2.1,0.5,3.4,0.5c1.5,0,2.9-0.3,4.2-0.9c1.2-0.6,2.3-1.4,3.3-2.4c1-1,1.8-2.1,2.5-3.4c0.7-1.3,1.3-2.7,1.7-4.1
		c0.5-1.4,0.8-2.9,1-4.3C63.6,267.6,63.7,266.2,63.7,264.8"/>
	<path class="st2" d="M114.8,250.1c0,0.2,0,0.6-0.1,1.1c-0.1,0.5-0.1,1.2-0.3,1.9c-0.1,0.7-0.3,1.4-0.4,2.2
		c-0.2,0.8-0.4,1.5-0.6,2.1c-0.2,0.6-0.5,1.2-0.8,1.6c-0.3,0.4-0.6,0.6-0.9,0.6c-0.3,0-0.6-0.1-0.8-0.2c-0.3-0.1-0.6-0.2-0.9-0.3
		c-0.3-0.1-0.7-0.2-1.1-0.3c-0.4-0.1-0.9-0.1-1.4-0.1c-1.1,0-2.2,0.4-3.4,1.2c-1.2,0.8-2.3,1.8-3.4,3.1c-1.1,1.2-2,2.7-2.9,4.4
		c-0.8,1.7-1.5,3.4-1.8,5.3l-3.7,17.8c-0.1,0.3-0.2,0.5-0.4,0.8c-0.2,0.2-0.6,0.4-1.1,0.5c-0.5,0.1-1.1,0.3-1.9,0.3
		c-0.8,0.1-1.7,0.1-2.8,0.1c-1.1,0-2.1,0-2.8-0.1c-0.7-0.1-1.3-0.2-1.7-0.3c-0.4-0.1-0.7-0.3-0.8-0.5c-0.1-0.2-0.1-0.5-0.1-0.8
		l8.2-39.7c0.1-0.3,0.2-0.6,0.4-0.8c0.2-0.2,0.5-0.4,1-0.5c0.4-0.1,1-0.2,1.6-0.3c0.7-0.1,1.5-0.1,2.4-0.1c1,0,1.7,0,2.3,0.1
		c0.6,0.1,1.1,0.2,1.4,0.3c0.3,0.1,0.5,0.3,0.7,0.5c0.1,0.2,0.1,0.5,0.1,0.8l-1.3,6.3c0.7-1.3,1.6-2.4,2.6-3.5c1-1.1,2-2,3.1-2.8
		c1.1-0.8,2.2-1.4,3.4-1.9c1.2-0.4,2.3-0.7,3.5-0.7c0.5,0,0.9,0,1.4,0.1c0.5,0.1,0.9,0.1,1.3,0.2c0.4,0.1,0.8,0.2,1.1,0.3
		c0.3,0.2,0.6,0.3,0.8,0.4C114.7,249.4,114.8,249.7,114.8,250.1"/>
	<path class="st2" d="M152,251.1c0,0.3,0,0.7-0.1,1.1c0,0.5-0.1,1-0.2,1.5c-0.1,0.5-0.2,1.1-0.4,1.6c-0.2,0.5-0.4,1-0.6,1.5
		c-0.2,0.4-0.5,0.8-0.8,1.1c-0.3,0.3-0.6,0.4-0.9,0.4h-9l-3.9,18.6c-0.1,0.4-0.2,1-0.2,1.6c-0.1,0.6-0.1,1.1-0.1,1.5
		c0,1.2,0.3,2,0.9,2.6c0.6,0.6,1.5,0.8,2.8,0.8c0.7,0,1.4-0.1,1.9-0.2c0.5-0.1,1-0.2,1.4-0.4c0.4-0.1,0.7-0.2,1-0.4
		c0.3-0.1,0.5-0.1,0.8-0.1c0.3,0,0.5,0.1,0.6,0.3c0.2,0.2,0.2,0.6,0.2,1.1c0,0.6-0.1,1.2-0.2,1.9c-0.1,0.7-0.3,1.4-0.5,2.1
		c-0.2,0.7-0.4,1.3-0.7,1.8c-0.2,0.5-0.5,1-0.8,1.2c-0.3,0.3-0.7,0.5-1.2,0.8c-0.6,0.2-1.2,0.5-2,0.6c-0.8,0.2-1.5,0.3-2.4,0.4
		c-0.9,0.1-1.7,0.1-2.6,0.1c-1.9,0-3.5-0.2-4.9-0.5c-1.4-0.4-2.6-1-3.5-1.8c-1-0.8-1.7-1.8-2.1-3.1c-0.5-1.3-0.7-2.8-0.7-4.5
		c0-0.3,0-0.7,0.1-1.1c0-0.4,0.1-0.9,0.2-1.3c0.1-0.5,0.2-0.9,0.2-1.4c0.1-0.5,0.2-0.9,0.3-1.3l4-19.3h-5c-0.4,0-0.7-0.1-0.9-0.4
		c-0.2-0.2-0.3-0.7-0.3-1.4c0-0.5,0-1.2,0.2-2c0.1-0.8,0.3-1.6,0.5-2.4c0.2-0.8,0.6-1.5,1-2c0.4-0.6,0.9-0.8,1.4-0.8h4.9l1.9-8.8
		c0.1-0.3,0.2-0.6,0.4-0.8c0.2-0.2,0.6-0.4,1.1-0.6c0.5-0.2,1.1-0.3,1.8-0.4c0.8-0.1,1.7-0.1,2.8-0.1c1.1,0,2,0,2.8,0.1
		c0.7,0.1,1.3,0.2,1.7,0.4c0.4,0.2,0.7,0.4,0.8,0.6c0.1,0.2,0.2,0.5,0.1,0.8l-1.9,8.8h8.9c0.5,0,0.9,0.2,1.1,0.5
		C151.9,250,152,250.5,152,251.1"/>
	<path class="st2" d="M196.7,290.4c-0.1,0.3-0.2,0.6-0.4,0.8c-0.2,0.2-0.6,0.4-1.1,0.6c-0.5,0.1-1.1,0.3-1.9,0.3
		c-0.7,0.1-1.7,0.1-2.9,0.1c-1.1,0-2-0.1-2.8-0.1c-0.7-0.1-1.3-0.2-1.7-0.3c-0.4-0.1-0.7-0.3-0.8-0.6c-0.1-0.2-0.2-0.5-0.1-0.8
		l4.9-23.8c0.1-0.6,0.2-1.3,0.3-2.1c0.1-0.8,0.1-1.5,0.1-2.1c0-0.7-0.1-1.2-0.2-1.8c-0.1-0.5-0.4-1-0.7-1.4
		c-0.3-0.4-0.7-0.7-1.2-0.9c-0.5-0.2-1.1-0.3-1.8-0.3c-1.2,0-2.6,0.4-3.9,1.2c-1.4,0.8-2.7,1.8-3.9,3.2c-1.2,1.3-2.3,2.9-3.2,4.7
		c-1,1.8-1.6,3.7-2,5.6l-3.7,17.9c-0.1,0.3-0.2,0.6-0.5,0.8c-0.2,0.2-0.6,0.4-1.1,0.6c-0.5,0.1-1.1,0.3-1.9,0.3
		c-0.8,0.1-1.7,0.1-2.8,0.1c-1.1,0-2.1-0.1-2.8-0.1c-0.7-0.1-1.3-0.2-1.7-0.3c-0.4-0.1-0.7-0.3-0.8-0.6c-0.1-0.2-0.2-0.5-0.1-0.8
		l12.2-58.4c0-0.3,0.2-0.6,0.4-0.8c0.2-0.2,0.6-0.4,1.1-0.6c0.5-0.2,1.1-0.3,1.9-0.4c0.8-0.1,1.7-0.1,2.9-0.1c1.1,0,2,0.1,2.8,0.1
		c0.7,0.1,1.3,0.2,1.7,0.4c0.4,0.2,0.7,0.4,0.8,0.6c0.1,0.2,0.2,0.5,0.1,0.8l-3.3,16.1c-0.1,0.6-0.3,1.3-0.5,2.1
		c-0.2,0.7-0.4,1.5-0.6,2.2c-0.2,0.7-0.5,1.4-0.7,2.1c-0.2,0.7-0.4,1.3-0.7,1.8c0.6-0.9,1.4-1.9,2.4-2.9c1-0.9,2.2-1.8,3.5-2.6
		c1.3-0.8,2.7-1.4,4.3-1.9c1.5-0.5,3.1-0.7,4.7-0.7c2.1,0,3.9,0.3,5.3,0.8c1.4,0.6,2.6,1.4,3.6,2.4c0.9,1,1.6,2.2,2,3.6
		c0.4,1.4,0.6,2.9,0.6,4.6c0,1.1-0.1,2.1-0.2,3.2c-0.1,1.1-0.3,2.1-0.5,3.1L196.7,290.4"/>
	<path class="st2" d="M256.7,264.1c0,2.1-0.2,4.3-0.6,6.6c-0.4,2.3-1.1,4.5-2,6.6c-0.9,2.2-2,4.2-3.4,6.1c-1.4,1.9-3.1,3.5-5,5
		c-2,1.4-4.2,2.6-6.7,3.4c-2.5,0.8-5.4,1.2-8.5,1.2c-3.1,0-5.8-0.4-8.1-1.1c-2.3-0.7-4.2-1.7-5.7-3.1c-1.5-1.4-2.6-3-3.4-5
		c-0.7-2-1.1-4.2-1.1-6.8c0-2.1,0.2-4.3,0.6-6.6c0.4-2.3,1.1-4.5,2-6.6c0.9-2.1,2-4.1,3.4-6.1c1.4-1.9,3.1-3.6,5-5
		c1.9-1.4,4.2-2.5,6.7-3.4c2.5-0.8,5.4-1.2,8.5-1.2c3.1,0,5.8,0.3,8.1,1c2.3,0.7,4.1,1.7,5.7,3.1c1.5,1.3,2.6,3,3.4,5
		C256.3,259.3,256.7,261.5,256.7,264.1 M244.7,264.8c0-1.2-0.1-2.3-0.4-3.3c-0.3-1-0.7-1.8-1.3-2.4c-0.6-0.7-1.4-1.2-2.3-1.5
		c-0.9-0.3-2.1-0.5-3.5-0.5c-1.5,0-2.9,0.3-4.1,0.9c-1.2,0.6-2.3,1.4-3.3,2.3c-1,1-1.8,2.1-2.5,3.4c-0.7,1.3-1.3,2.7-1.8,4.1
		c-0.5,1.4-0.8,2.9-1,4.3c-0.2,1.5-0.3,2.9-0.3,4.2c0,1.2,0.1,2.4,0.4,3.3c0.3,1,0.7,1.8,1.3,2.5c0.6,0.7,1.4,1.2,2.3,1.5
		c0.9,0.4,2.1,0.5,3.4,0.5c1.5,0,2.9-0.3,4.2-0.9c1.2-0.6,2.3-1.4,3.3-2.4c1-1,1.8-2.1,2.5-3.4c0.7-1.3,1.3-2.7,1.7-4.1
		c0.5-1.4,0.8-2.9,1-4.3C244.6,267.6,244.7,266.2,244.7,264.8"/>
	<path class="st2" d="M309.7,263.3c0,1.9-0.2,4-0.5,6.2c-0.4,2.2-0.9,4.5-1.7,6.6c-0.8,2.2-1.8,4.3-3,6.3c-1.2,2-2.6,3.8-4.3,5.4
		c-1.7,1.5-3.6,2.8-5.8,3.7c-2.2,0.9-4.6,1.4-7.3,1.4c-1.2,0-2.4-0.1-3.5-0.4c-1.1-0.2-2.1-0.6-3-1c-0.9-0.4-1.7-0.9-2.5-1.5
		c-0.7-0.6-1.4-1.2-1.9-1.9l-3.6,17.9c-0.1,0.3-0.2,0.6-0.4,0.8c-0.2,0.2-0.6,0.4-1.1,0.6c-0.5,0.1-1.1,0.3-1.9,0.4
		c-0.8,0.1-1.7,0.1-2.9,0.1c-1.1,0-2.1,0-2.8-0.1c-0.7-0.1-1.3-0.2-1.7-0.4c-0.4-0.2-0.7-0.4-0.8-0.6c-0.1-0.2-0.1-0.5-0.1-0.8
		l11.5-55.4c0.1-0.6,0.6-1.1,1.4-1.3c0.8-0.3,2.2-0.4,4.1-0.4c1,0,1.7,0,2.3,0.1c0.6,0.1,1.1,0.2,1.4,0.3c0.3,0.1,0.6,0.3,0.7,0.5
		c0.1,0.2,0.2,0.5,0.1,0.8l-1.3,6.4c0.5-1,1.2-2,2.2-3c1-1.1,2.2-2,3.6-2.9c1.4-0.9,2.9-1.6,4.6-2.2c1.7-0.6,3.4-0.8,5.2-0.8
		c2.4,0,4.4,0.4,6,1.2c1.6,0.8,2.9,1.9,3.9,3.2c1,1.4,1.7,3,2.2,4.8C309.4,259.2,309.7,261.2,309.7,263.3 M297.7,264.3
		c0-1-0.1-1.9-0.3-2.7c-0.2-0.8-0.5-1.5-0.8-2.1c-0.4-0.6-0.9-1-1.5-1.3c-0.6-0.3-1.3-0.4-2.2-0.4c-1.4,0-2.8,0.4-4.2,1.2
		c-1.4,0.8-2.7,1.8-4,3.2c-1.2,1.4-2.3,2.9-3.3,4.7c-1,1.8-1.6,3.7-2,5.8l-1.3,6c1.1,1.6,2.3,2.8,3.6,3.7c1.3,0.8,2.8,1.2,4.5,1.2
		c1.3,0,2.4-0.3,3.5-0.9c1.1-0.6,2-1.4,2.9-2.4c0.8-1,1.6-2.1,2.2-3.4c0.6-1.3,1.2-2.7,1.6-4.1c0.4-1.4,0.7-2.9,0.9-4.3
		C297.6,266.9,297.7,265.6,297.7,264.3"/>
	<path class="st2" d="M361,259.5c0,2.1-0.5,4.1-1.5,5.8c-1,1.7-2.6,3.2-4.7,4.4c-2.1,1.2-4.8,2.2-8,2.8c-3.3,0.7-7.1,1-11.6,1H331
		c-0.1,0.7-0.2,1.4-0.3,2c-0.1,0.7-0.1,1.3-0.1,1.8c0,2.4,0.7,4.2,1.9,5.4c1.3,1.2,3.4,1.8,6.2,1.8c2,0,3.9-0.1,5.5-0.4
		c1.6-0.3,3-0.6,4.3-0.9c1.2-0.3,2.2-0.6,3-0.9c0.8-0.3,1.4-0.4,1.8-0.4c0.4,0,0.6,0.1,0.8,0.3c0.1,0.2,0.2,0.5,0.2,1
		c0,0.5,0,1.1-0.1,1.7c-0.1,0.7-0.2,1.3-0.4,1.9c-0.2,0.7-0.4,1.2-0.6,1.8c-0.3,0.6-0.6,1-0.9,1.3c-0.4,0.4-1.1,0.7-2,1.1
		c-1,0.4-2.2,0.7-3.6,1c-1.4,0.3-2.9,0.5-4.7,0.7c-1.7,0.2-3.5,0.3-5.3,0.3c-3,0-5.5-0.3-7.7-0.9c-2.2-0.6-4-1.5-5.5-2.7
		c-1.5-1.2-2.6-2.8-3.3-4.6c-0.7-1.9-1.1-4.1-1.1-6.7c0-2,0.2-4.1,0.6-6.4c0.4-2.2,1-4.5,1.9-6.7c0.9-2.2,2-4.3,3.3-6.3
		c1.4-2,3-3.8,4.9-5.3c1.9-1.5,4.2-2.8,6.7-3.7c2.5-0.9,5.4-1.4,8.6-1.4c2.8,0,5.2,0.3,7.2,1c2,0.6,3.7,1.5,5,2.5
		c1.3,1,2.3,2.2,2.9,3.6C360.7,256.6,361,258,361,259.5 M349.6,260.3c0-1.2-0.5-2.2-1.5-3c-1-0.8-2.4-1.2-4.2-1.2
		c-1.5,0-2.9,0.3-4.1,0.8c-1.2,0.5-2.3,1.3-3.2,2.2c-0.9,0.9-1.7,2-2.4,3.2c-0.7,1.2-1.2,2.5-1.6,3.9h3.9c2.5,0,4.5-0.2,6.2-0.5
		c1.7-0.3,3-0.7,4-1.2c1-0.5,1.8-1.2,2.2-1.9C349.4,261.9,349.6,261.1,349.6,260.3"/>
	<path class="st2" d="M406,290.4c-0.1,0.6-0.6,1.1-1.4,1.3c-0.9,0.3-2.2,0.4-4.1,0.4c-1,0-1.7,0-2.3-0.1c-0.6,0-1.1-0.2-1.5-0.3
		c-0.4-0.1-0.6-0.3-0.7-0.5c-0.1-0.2-0.1-0.5-0.1-0.8l1.3-6.4c-0.5,0.9-1.2,1.9-2.2,3c-1,1.1-2.2,2-3.6,2.9
		c-1.4,0.9-2.9,1.6-4.6,2.1c-1.7,0.5-3.4,0.8-5.2,0.8c-1.8,0-3.3-0.2-4.6-0.6c-1.3-0.4-2.4-1-3.4-1.8c-0.9-0.7-1.7-1.6-2.3-2.6
		c-0.6-1-1.1-2.1-1.5-3.2c-0.4-1.1-0.6-2.3-0.8-3.5c-0.2-1.2-0.2-2.4-0.2-3.5c0-1.9,0.2-4,0.5-6.2c0.4-2.2,1-4.4,1.8-6.6
		c0.8-2.2,1.8-4.3,3-6.3c1.2-2,2.6-3.8,4.3-5.3c1.7-1.5,3.6-2.8,5.8-3.7c2.2-0.9,4.6-1.4,7.3-1.4c1.2,0,2.3,0.1,3.4,0.4
		c1.1,0.2,2.1,0.6,3,1c0.9,0.4,1.7,0.9,2.5,1.5c0.7,0.6,1.4,1.2,1.9,1.9l4.4-20.9c0.1-0.3,0.2-0.6,0.4-0.8c0.2-0.2,0.6-0.4,1-0.6
		c0.5-0.2,1.1-0.3,1.9-0.4c0.8-0.1,1.7-0.1,2.8-0.1c1.1,0,2.1,0,2.8,0.1c0.7,0.1,1.3,0.2,1.7,0.4c0.4,0.2,0.7,0.4,0.8,0.6
		c0.1,0.2,0.2,0.5,0.1,0.8L406,290.4 M400.2,262.7c-1.1-1.6-2.3-2.9-3.6-3.7c-1.3-0.8-2.8-1.2-4.6-1.2c-1.3,0-2.4,0.3-3.5,0.9
		c-1.1,0.6-2,1.4-2.9,2.3c-0.8,1-1.6,2.1-2.2,3.4c-0.7,1.3-1.2,2.6-1.6,4.1c-0.4,1.4-0.7,2.8-1,4.3c-0.2,1.4-0.3,2.8-0.3,4
		c0,2.3,0.4,4,1.2,5.1c0.8,1.1,2,1.7,3.7,1.7c1.4,0,2.7-0.4,4.2-1.2c1.4-0.8,2.7-1.8,4-3.2c1.2-1.3,2.3-2.9,3.2-4.7
		c1-1.8,1.6-3.7,2-5.7L400.2,262.7z"/>
	<path class="st2" d="M432.3,290.4c0,0.3-0.2,0.6-0.4,0.8c-0.2,0.2-0.6,0.4-1.1,0.6c-0.5,0.1-1.1,0.3-1.9,0.3
		c-0.8,0.1-1.7,0.1-2.8,0.1c-1.1,0-2.1,0-2.8-0.1c-0.7-0.1-1.3-0.2-1.7-0.3c-0.4-0.2-0.7-0.3-0.8-0.6c-0.1-0.2-0.2-0.5-0.1-0.8
		l8.2-39.6c0.1-0.3,0.2-0.6,0.4-0.8c0.3-0.2,0.6-0.4,1.1-0.6c0.5-0.2,1.1-0.3,1.9-0.4c0.7-0.1,1.7-0.1,2.8-0.1c1.1,0,2.1,0,2.8,0.1
		c0.7,0.1,1.3,0.2,1.7,0.4c0.4,0.1,0.7,0.3,0.8,0.6c0.1,0.2,0.2,0.5,0.1,0.8L432.3,290.4 M444.2,237.4c-0.2,1.1-0.5,2-0.9,2.8
		c-0.4,0.7-0.9,1.4-1.5,1.8c-0.6,0.5-1.4,0.8-2.3,1c-0.9,0.2-2,0.3-3.3,0.3c-1.3,0-2.3-0.1-3.2-0.3c-0.8-0.2-1.4-0.5-1.8-1
		c-0.4-0.5-0.7-1.1-0.7-1.8c-0.1-0.8,0-1.7,0.3-2.8c0.2-1.1,0.5-2,0.9-2.7c0.4-0.7,0.9-1.4,1.5-1.8c0.6-0.5,1.4-0.8,2.3-1
		c0.9-0.2,2-0.3,3.3-0.3c1.3,0,2.3,0.1,3.1,0.3c0.8,0.2,1.4,0.5,1.9,1c0.4,0.5,0.6,1.1,0.7,1.8C444.5,235.4,444.5,236.3,444.2,237.4
		"/>
	<path class="st2" d="M489.1,259.5c0,2.1-0.5,4.1-1.5,5.8c-1,1.7-2.6,3.2-4.7,4.4c-2.1,1.2-4.8,2.2-8,2.8c-3.3,0.7-7.1,1-11.6,1H459
		c-0.1,0.7-0.2,1.4-0.3,2c-0.1,0.7-0.1,1.3-0.1,1.8c0,2.4,0.7,4.2,1.9,5.4c1.3,1.2,3.4,1.8,6.2,1.8c2,0,3.9-0.1,5.5-0.4
		c1.6-0.3,3-0.6,4.2-0.9c1.2-0.3,2.2-0.6,3-0.9c0.8-0.3,1.4-0.4,1.7-0.4c0.4,0,0.6,0.1,0.8,0.3c0.2,0.2,0.2,0.5,0.2,1
		c0,0.5,0,1.1-0.1,1.7c-0.1,0.7-0.2,1.3-0.4,1.9c-0.2,0.7-0.4,1.2-0.7,1.8c-0.3,0.6-0.5,1-0.9,1.3c-0.4,0.4-1.1,0.7-2,1.1
		c-1,0.4-2.2,0.7-3.6,1c-1.4,0.3-3,0.5-4.7,0.7c-1.7,0.2-3.5,0.3-5.3,0.3c-3,0-5.5-0.3-7.7-0.9c-2.2-0.6-4-1.5-5.5-2.7
		c-1.5-1.2-2.6-2.8-3.3-4.6c-0.7-1.9-1.1-4.1-1.1-6.7c0-2,0.2-4.1,0.6-6.4c0.4-2.2,1-4.5,1.9-6.7c0.9-2.2,2-4.3,3.3-6.3
		c1.3-2,3-3.8,4.9-5.3c1.9-1.5,4.2-2.8,6.7-3.7c2.5-0.9,5.4-1.4,8.6-1.4c2.8,0,5.2,0.3,7.2,1c2,0.6,3.7,1.5,5,2.5
		c1.3,1,2.3,2.2,2.9,3.6C488.8,256.6,489.1,258,489.1,259.5 M477.7,260.3c0-1.2-0.5-2.2-1.5-3c-1-0.8-2.4-1.2-4.2-1.2
		c-1.5,0-2.9,0.3-4.1,0.8c-1.2,0.5-2.3,1.3-3.2,2.2c-0.9,0.9-1.7,2-2.4,3.2c-0.7,1.2-1.2,2.5-1.6,3.9h3.9c2.5,0,4.5-0.2,6.2-0.5
		c1.7-0.3,3-0.7,4-1.2c1-0.5,1.8-1.2,2.2-1.9C477.4,261.9,477.7,261.1,477.7,260.3"/>
	<path class="st0" d="M158.2,78.4c-5.4-4.7-12.3-8.2-20.4-10.6c-8-2.4-17.7-3.6-28.7-3.6c-11.2,0-21.5,1.4-30.5,4.3
		c-9,2.8-17,6.7-24,11.6c-7,4.9-13,10.6-18,17.2c-5,6.5-9.1,13.5-12.2,20.7c-3.2,7.2-5.5,14.8-7,22.5c-1.5,7.6-2.2,15.2-2.2,22.4
		c0,8.7,1.3,16.6,4,23.4c2.7,6.8,6.8,12.7,12.3,17.4c5.4,4.7,12.3,8.3,20.4,10.7c8.1,2.4,17.7,3.6,28.7,3.6
		c11.2,0,21.5-1.4,30.4-4.3c9-2.8,17-6.8,24-11.7c6.9-4.9,13-10.6,18-17.1c5-6.4,9.1-13.4,12.3-20.7c3.1-7.3,5.5-14.9,7-22.5
		c1.5-7.6,2.2-15.2,2.2-22.4c0-8.7-1.3-16.6-4-23.4C167.8,89,163.7,83.1,158.2,78.4 M85,185c-4.5,0-8.4-0.6-11.5-1.7
		c-3-1.1-5.5-2.7-7.5-4.7c-1.9-2-3.3-4.6-4.2-7.7c-0.9-3.1-1.3-6.8-1.3-10.8c0-4.4,0.4-9.1,1.1-13.9c0.7-4.8,1.9-9.7,3.5-14.3
		c1.6-4.7,3.6-9.2,6-13.4c2.4-4.2,5.3-7.9,8.5-11.1c3.3-3.1,7-5.7,11.1-7.5c4.1-1.8,8.8-2.8,13.9-2.8c4.5,0,8.4,0.6,11.5,1.7
		c3,1.1,5.5,2.7,7.5,4.7c1.9,2,3.3,4.6,4.2,7.6c0.9,3.1,1.3,6.7,1.3,10.7c0,4.4-0.4,9-1.1,13.8c-0.7,4.8-1.9,9.6-3.5,14.3
		c-1.6,4.7-3.6,9.3-6,13.5c-2.4,4.2-5.3,8-8.6,11.2c-3.2,3.2-7,5.8-11.1,7.6C94.8,184,90.1,185,85,185"/>
	<path class="st0" d="M249.5,71.2c-0.6-1.1-1.8-2-3.7-2.6c-1.6-0.6-3.7-1.1-6.4-1.4c-2.6-0.3-5.9-0.5-10-0.5c-4,0-7.5,0.1-10.1,0.5
		c-2.8,0.3-5,0.8-6.8,1.3c-1.9,0.6-3.3,1.4-4.3,2.3c-1,1-1.7,2.1-2,3.4l-28.6,133.2c-0.3,1.4-0.1,2.6,0.5,3.7
		c0.7,1.1,1.9,1.9,3.7,2.6c1.6,0.5,3.7,0.9,6.4,1.2c2.6,0.3,5.9,0.4,9.9,0.4c3.9,0,7.3-0.1,10-0.4c2.8-0.3,5.1-0.6,6.9-1.2
		c2-0.6,3.4-1.3,4.4-2.2c1-1,1.7-2.1,2-3.4L250,74.9C250.3,73.6,250.1,72.3,249.5,71.2"/>
	<path class="st0" d="M497.5,88.5c-1.5-4.8-3.9-9.1-7.1-12.7c-3.3-3.6-7.7-6.5-13-8.5c-5.3-2-11.9-3-19.6-3c-6.1,0-12.1,1-17.8,2.8
		c-5.7,1.9-11.1,4.3-15.9,7.3c-4.9,2.9-9.3,6.3-13.2,9.9c-2.8,2.6-5.2,5.2-7.3,7.8c-0.6-3-1.4-5.8-2.6-8.5
		c-1.6-3.9-4.1-7.3-7.2-10.2c-3.1-2.9-7.1-5.2-11.9-6.8c-4.7-1.6-10.4-2.4-16.8-2.4c-6.2,0-12.3,0.9-18.1,2.8
		c-5.8,1.9-11.2,4.3-16,7.3c-4.9,2.9-9.3,6.3-13.2,10c-1.8,1.7-3.4,3.4-4.8,5.1l3.2-14.9c0.3-1.3,0.2-2.6-0.4-3.6
		c-0.6-1.1-1.6-2-3.2-2.6c-1.3-0.5-3.1-0.9-5.3-1.1c-2.2-0.3-4.9-0.4-8.4-0.4c-3.3,0-6.2,0.1-8.5,0.4c-2.4,0.3-4.4,0.6-6,1.1
		c-1.7,0.5-3.1,1.3-3.9,2.2c-0.9,1-1.5,2.1-1.8,3.4l-28.9,133.6c-0.3,1.4-0.1,2.6,0.5,3.7c0.6,1.1,1.8,2,3.7,2.6
		c1.6,0.5,3.7,0.9,6.4,1.2c2.6,0.3,5.9,0.4,10,0.4c3.9,0,7.3-0.1,10-0.4c2.9-0.3,5.1-0.6,6.9-1.2c1.9-0.6,3.4-1.3,4.4-2.2
		c1-1,1.7-2.1,2-3.4l13.1-60.5c1.4-6.5,3.7-12.7,6.9-18.5c3.2-5.8,6.9-10.9,11.1-15.2c4.1-4.3,8.5-7.8,13-10.3
		c4.4-2.4,8.6-3.7,12.6-3.7c4.2,0,7,1.2,8.7,3.6c1.8,2.6,2.6,5.9,2.6,10c0,2.2-0.1,4.5-0.4,6.9c-0.3,2.4-0.7,4.7-1.4,7l-17.1,80.1
		c-0.3,1.4-0.1,2.7,0.6,3.8c0.7,1.1,1.9,1.9,3.6,2.5c1.5,0.5,3.6,0.9,6.3,1.2c2.6,0.3,5.8,0.4,9.8,0.4c4,0,7.4-0.1,10.1-0.4
		c2.8-0.3,5-0.6,6.9-1.2c2-0.6,3.5-1.3,4.5-2.2c1.1-1,1.7-2.1,2-3.4l13.1-60.5c1.4-6.5,3.7-12.7,6.9-18.5
		c3.2-5.8,6.9-10.9,11.1-15.2c4.1-4.3,8.5-7.8,13-10.3c4.4-2.4,8.6-3.7,12.6-3.7c4.3,0,7.1,1.2,8.7,3.6c1.7,2.6,2.6,6.2,2.6,10.5
		c0,2.2-0.2,4.4-0.5,6.6c-0.3,2.1-0.7,4.3-1.1,6.7l-17.3,79.9c-0.6,1.8-0.1,3.1,0.4,3.9c0.7,1.1,1.9,1.9,3.6,2.5
		c1.5,0.5,3.6,0.9,6.4,1.2c2.6,0.3,5.9,0.4,9.9,0.4c4,0,7.4-0.1,10.1-0.4c2.8-0.3,5-0.6,6.9-1.2c2-0.6,3.4-1.3,4.5-2.3
		c1-1,1.7-2.1,2-3.4l17.8-82.4c0.9-3.7,1.5-7.4,2-11c0.4-3.6,0.6-7.2,0.6-10.7C499.7,98.4,499,93.2,497.5,88.5"/>
</g>
</svg>
