<?xml version="1.0" encoding="utf-8"?>
<!-- Generator: Adobe Illustrator 23.0.1, SVG Export Plug-In . SVG Version: 6.00 Build 0)  -->
<svg width="329px" height="89.14px" version="1.1" id="Layer_1" xmlns="http://www.w3.org/2000/svg" xmlns:xlink="http://www.w3.org/1999/xlink" x="0px" y="0px"
	 viewBox="0 0 329.88 89.14" style="enable-background:new 0 0 329.88 89.14;" xml:space="preserve" preserveAspectRatio="xMidYMin slice">
<style type="text/css">
	.st0{fill:#E20019;}
	.st1{fill:#FFDC00;}
</style>
<g>
	<g>
		<polygon class="st0" points="244.62,0 282.47,0 282.47,16.22 230.53,16.22 		"/>
		<g>
			<g>
				<path class="st1" d="M259.42,18.87c-5.76,0-9.94,4.34-9.94,10.32v49.64c0,5.59,4.55,10.32,9.94,10.32
					c5.64,0,10.07-4.53,10.07-10.32V29.19C269.48,23.3,265.15,18.87,259.42,18.87"/>
				<g>
					<path class="st1" d="M211.56,69.84l-13.49,15.65c-3.69,4.45-10.94,4.83-15.14,1.15c-4.45-3.94-4.58-10.56-0.64-15.01
						l15.27-17.69l-15.01-17.39c-4.07-4.58-3.94-11.07,0.64-15.01c4.45-3.94,11.33-3.44,15.01,1.15l13.36,15.36l13.36-15.36
						c3.94-4.58,10.94-5.09,15.14-1.15c4.58,3.94,4.71,10.43,0.64,15.01l-15.14,17.39l15.52,17.69c3.94,4.45,3.82,11.07-0.76,15.01
						c-4.2,3.69-11.45,3.31-15.14-1.15L211.56,69.84z"/>
				</g>
			</g>
		</g>
		<path class="st1" d="M69.69,30.52c0-9.35-3.09-16.86-9.17-22.32C54.47,2.76,46.87,0,37.92,0h-25.1C5.15,0,0,5,0,12.45v66.01
			c0,2.78,1.06,5.31,3.17,7.54c2.09,2.09,4.54,3.15,7.27,3.15c5.49,0,10.31-5,10.31-10.69V61.41h16.04c9.83,0,17.59-2.68,23.73-8.19
			C66.61,47.76,69.69,40.04,69.69,30.52 M36.16,42.67H20.75v-23.8h15.66c7.96,0,12.53,4.13,12.53,11.77
			C48.94,38.54,44.64,42.67,36.16,42.67"/>
		<path class="st1" d="M108.74,20.37c-3.66-1.01-7.76-1.5-12.52-1.5c-14.52,0-22.85,8.05-22.85,22.09v38.08
			c0,5.48,4.63,10.11,10.11,10.11c5.76,0,10.11-4.35,10.11-10.11V45.37c0-5.61,3-6.78,5.53-6.78c1.57,0,3.12,0.16,4.86,0.51
			c1.81,0.36,3.08,0.5,3.46,0.5c5.83,0,8.98-5.01,8.98-9.73C116.42,24.83,113.91,21.72,108.74,20.37"/>
		<path class="st1" d="M145.33,18.87c-6.37,0-12.11,1.01-17.06,2.99c-4.68,1.8-7.06,5.1-7.06,9.16c0,2.5,0.96,4.25,2.77,5.68
			c2.52,1.99,6.37,2.49,10.85,1.42c4.75-1.19,8.19-1.77,10.5-1.77c6.92,0,10.14,2.42,10.14,7.63v5.08l-0.46-0.15
			c-3.38-1.09-7.57-1.61-12.82-1.61c-15.57,0-24.87,7.51-24.87,20.1c0,13.41,10.35,21.73,27,21.73c10.84,0,19.85-2.26,26.79-6.72
			c2.25-1.54,3.35-3.7,3.35-6.6v-30.7C174.47,27.7,164.66,18.87,145.33,18.87 M155.47,70.99l-0.15,0.11
			c-2.78,1.9-6.09,2.82-10.11,2.82c-5.72,0-9.14-2.67-9.14-7.13c0-4.33,3.54-7.13,9.01-7.13c3.57,0,6.99,0.51,10.15,1.52l0.25,0.08
			V70.99z"/>
		<g>
			<path class="st1" d="M310.01,46.34c13.63,3.12,19.88,9.48,19.88,20.84c0,6.61-2.63,11.98-8,15.97
				c-5.25,3.99-11.75,5.99-19.38,5.99c-10.38,0-18.63-2.37-24.75-7.24c-3.62-2.99-4.37-8.86-1.75-12.48c3-4.12,8-4.87,13.13-1.87
				c4.13,2.62,8.75,3.87,13.63,3.87c4.88,0,7.25-1.37,7.25-3.99c0-2-1.88-3.37-5.75-4.12c-3.62-0.75-6.75-1.5-9.38-2.12
				c-10.88-2.87-18.63-9.36-18.63-20.34c0-6.74,2.63-12.1,7.88-15.97c5.25-3.99,11.75-5.99,19.63-5.99s16.13,2.37,20.75,6.24
				c3.88,3.49,4,9.73,1.13,12.85c-2.87,3.49-8.25,3.87-13.25,1.37c-3.13-1.62-6.5-2.37-9.88-2.37c-4.5,0-6.75,1.25-6.75,3.62
				c0,1.75,2.13,3.12,6.25,3.99L310.01,46.34z"/>
		</g>
	</g>
</g>
</svg>
