<?xml version="1.0" encoding="utf-8"?>
<!-- Generator: Adobe Illustrator 23.0.1, SVG Export Plug-In . SVG Version: 6.00 Build 0)  -->
<svg width="181px" height="88.83px" version="1.1" id="Layer_1" xmlns="http://www.w3.org/2000/svg" xmlns:xlink="http://www.w3.org/1999/xlink" x="0px" y="0px"
	 viewBox="0 0 181 88.83" style="enable-background:new 0 0 181 88.83;" xml:space="preserve" preserveAspectRatio="xMidYMin slice">
<style type="text/css">
	.st0{fill:#FFFFFF;}
</style>
<g>
	<g>
		<path class="st0" d="M35.25,5.67L25.08,34.61c-1.65,4.64-4.19,6.23-7.6,6.23c-3.52,0-5.44-1.56-7.06-6.2L0.37,5.61
			C0.11,4.91,0,4.27,0,3.69C0,1.65,1.59,0,3.8,0c1.84,0,3.16,0.92,3.85,3.04l9.75,29.53c0.12,0.38,0.66,0.38,0.78,0l9.77-29.5
			C28.65,0.95,29.97,0,31.78,0c2.26,0,3.8,1.68,3.8,3.71C35.58,4.22,35.5,4.91,35.25,5.67z"/>
		<path class="st0" d="M110.89,18.02c-0.73,0-1.26-0.14-1.79-0.28c-0.81-0.2-1.59-0.34-2.68-0.34c-2.15,0-3.13,1.03-3.13,3.24v15.91
			c0,2.54-1.51,4.05-3.83,4.05c-2.29,0-3.8-1.51-3.8-4.05V20.11c0-6.23,3.83-10.19,9.83-10.19c1.79,0,3.44,0.2,4.8,0.56
			c2.15,0.59,3.69,1.7,3.69,3.85C113.99,16.65,112.45,18.02,110.89,18.02z"/>
		<path class="st0" d="M181,22.54v1.48c0,3.35-0.74,3.85-3.79,3.85h-15.62c0,0.28,0.03,0.49,0.03,0.77
			c0.11,3.27,2.82,5.47,6.98,5.47c2.45,0,4.19-0.53,5.44-1.01c1.05-0.36,1.74-0.75,2.68-0.75c1.85,0,3.22,1.17,3.22,3.15
			c0,1.9-1.43,2.96-2.71,3.52c-2.05,0.92-5.33,1.81-8.83,1.81c-8.04,0-13.42-4.78-14.02-11.51c-0.17-2.09-0.2-5.52-0.03-7.44
			c0.66-6.95,5.81-11.98,13.79-11.98C176.24,9.92,181,14.95,181,22.54z M167.83,16.23c-3.79,0-6.07,2.57-6.21,6.31v0.2h12.31
			C174.24,18.69,171.71,16.23,167.83,16.23z"/>
		<path class="st0" d="M78.8,40.84c-8.52,0-15.46-6.94-15.46-15.46S70.28,9.92,78.8,9.92c8.53,0,15.46,6.94,15.46,15.46
			S87.33,40.84,78.8,40.84z M78.8,17.79c-4.19,0-7.6,3.41-7.6,7.6s3.41,7.6,7.6,7.6s7.6-3.41,7.6-7.6S82.99,17.79,78.8,17.79z"/>
		<path class="st0" d="M46.69,40.84c-8.52,0-15.46-6.94-15.46-15.46S38.16,9.92,46.69,9.92c8.53,0,15.46,6.94,15.46,15.46
			S55.21,40.84,46.69,40.84z M46.69,17.79c-4.19,0-7.6,3.41-7.6,7.6s3.41,7.6,7.6,7.6s7.6-3.41,7.6-7.6S50.88,17.79,46.69,17.79z"/>
		<path class="st0" d="M147.27,0c-2.4,0-3.95,1.46-3.95,3.71v6.78c-2.18-0.75-4.92-1.2-7.45-1.2c-8.09,0-13.83,4.59-14.62,11.71
			c-0.22,2.23-0.22,5.88,0,8.15c0.79,7.11,6.73,11.7,15.12,11.7c6.14,0,11.32-2.02,13.23-3.1c1.14-0.7,1.61-1.54,1.61-2.88V3.71
			C151.22,1.46,149.67,0,147.27,0z M136.56,33.9c-4.36,0-7.06-2.08-7.42-5.73c-0.21-1.85-0.21-4.23,0-6.21
			c0.39-3.66,3.09-5.75,7.42-5.75c2.33,0,5.16,0.59,6.75,1.37v14.95C141.76,33.32,138.92,33.9,136.56,33.9z"/>
	</g>
	<path class="st0" d="M54.28,79.11c0-4.6,3.62-8.97,11.31-8.97c2.26,0,4.35,0.31,6.58,0.89v-2.12c0-2.73-1.51-4.24-5.77-4.24
		c-1.67,0-3.34,0.36-4.51,0.81c-1,0.33-1.87,0.67-2.7,0.67c-1.75,0-3.12-1.31-3.15-3.15c0-1.53,0.78-2.79,2.76-3.54
		c2.03-0.81,4.82-1.56,8.14-1.56c8.05,0,12.51,3.54,12.51,11.32v13.9c0,1.31-0.36,2.01-1.34,2.65c-1.84,1.23-6.24,3.06-12.01,3.06
		C58.32,88.83,54.28,84.43,54.28,79.11z M72.17,81.53V76.1c-1.95-0.59-3.68-0.86-5.57-0.86c-3.37,0-5.13,1.7-5.13,3.87
		c0,2.34,2.12,3.68,5.16,3.68C68.63,82.78,70.69,82.28,72.17,81.53z"/>
	<path class="st0" d="M109.44,85.04c0,2.17-1.48,3.54-3.54,3.54c-1.25,0-2.37-0.45-3.51-1.73L94.3,78.1
		c-1.14-1.23-1.96-1.25-3.46-1.25h-0.67v7.72c0,2.51-1.51,4.01-3.79,4.01c-2.29,0-3.79-1.51-3.79-4.01V52.02
		c0-2.54,1.51-4.04,3.79-4.04c2.28,0,3.79,1.5,3.79,4.04V69.6h0.56c1.14,0,2.01-0.08,3.18-1.28l8.42-8.47
		c1.14-1.17,2.15-1.7,3.4-1.7c2.03,0,3.59,1.48,3.59,3.57c0,1.17-0.59,2.28-1.62,3.32l-8.03,7.91l8.39,8.81
		C109.1,82.84,109.44,84.04,109.44,85.04z"/>
	<path class="st0" d="M135.89,70.49v1.48c0,3.34-0.72,3.85-3.71,3.85h-15.27c0,0.28,0.03,0.56,0.03,0.84
		c0.11,3.26,2.76,5.46,6.83,5.46c2.4,0,4.1-0.53,5.32-1c1.03-0.36,1.7-0.75,2.62-0.75c1.81,0,3.15,1.17,3.15,3.15
		c0,1.9-1.39,2.95-2.65,3.51c-2.01,0.92-5.21,1.81-8.64,1.81c-7.86,0-13.12-4.77-13.71-11.48c-0.17-2.09-0.2-5.57-0.03-7.5
		c0.64-6.94,5.69-11.96,13.49-11.96C131.23,57.9,135.89,62.92,135.89,70.49z M123.01,64.2c-3.71,0-5.94,2.56-6.08,6.3v0.2h12.04
		C129.29,66.65,126.8,64.2,123.01,64.2z"/>
	<path class="st0" d="M153.79,65.98c-0.72,0-1.25-0.14-1.78-0.28c-0.81-0.2-1.59-0.33-2.67-0.33c-2.15,0-3.12,1.03-3.12,3.23v15.94
		c0,2.54-1.51,4.04-3.82,4.04c-2.29,0-3.79-1.51-3.79-4.04V68.07c0-6.21,3.82-10.17,9.81-10.17c1.78,0,3.43,0.2,4.79,0.56
		c2.15,0.59,3.68,1.7,3.68,3.85C156.88,64.62,155.35,65.98,153.79,65.98z"/>
	<path class="st0" d="M169.38,88.83c-4.75,0-8.24-1.39-10.14-2.76c-1.51-1-1.98-2.14-1.98-3.37c0-1.5,1.15-3.23,2.99-3.23
		c0.87,0,1.65,0.31,2.74,0.95c1.54,0.97,3.24,1.75,6.48,1.75c2.9,0,4.16-1.17,4.16-2.7c0-1.2-0.87-2.06-3.21-2.59l-4.24-0.97
		c-4.44-1-8.04-3.7-8.04-8.63c0-5.9,5.11-9.38,11.31-9.38c3.77,0,6.93,1.14,8.55,2.25c1.4,0.97,1.9,1.89,1.9,3.29
		c0,1.59-1.26,3.4-3.13,3.4c-1.09,0-1.87-0.36-2.74-0.86c-0.67-0.42-2.54-1.31-4.64-1.31c-2.76,0-4.02,1.03-4.02,2.51
		c0,1.2,0.87,1.92,3.35,2.48l3.77,0.84c5.81,1.28,8.52,4.15,8.52,8.83C181,85.29,175.83,88.83,169.38,88.83z"/>
	<path class="st0" d="M3.83,88.58c-0.21,0-0.42-0.02-0.63-0.05c-2.08-0.34-3.49-2.31-3.15-4.4l5.16-29.94
		c0.09-0.54,0.21-1.01,0.37-1.45c0.92-2.49,3.03-4.3,5.64-4.84c2.65-0.55,5.33,0.26,7.16,2.18c0.96,1,1.62,2.27,1.92,3.69l5.71,27
		c0.01,0.03,0.01,0.06,0.02,0.08c0.04,0.19,0.18,0.33,0.29,0.33c0.01,0,0.04,0,0.06,0c0.07-0.01,0.19-0.13,0.23-0.3
		c0.01-0.03,0.01-0.06,0.02-0.08l5.67-27.02c0.3-1.42,0.96-2.7,1.92-3.69c1.93-2.01,4.83-2.82,7.58-2.09
		c2.76,0.73,4.82,2.84,5.5,5.63c0.02,0.09,0.04,0.17,0.05,0.26l5.07,30.25c0.34,2.08-1.07,4.05-3.15,4.4
		c-2.08,0.34-4.05-1.07-4.4-3.15l-4.73-27.86c-0.07-0.45-0.71-0.46-0.81-0.02l-5.21,24.83c-0.66,3.42-3.48,6.06-6.88,6.45
		c-0.31,0.03-0.62,0.05-0.92,0.05c-3.79,0-7.05-2.74-7.79-6.52l-5.3-24.8c-0.1-0.45-0.74-0.43-0.81,0.02L7.6,85.38
		C7.29,87.25,5.67,88.58,3.83,88.58z"/>
</g>
</svg>
