<?xml version="1.0" encoding="utf-8"?>
<!-- Generator: Adobe Illustrator 26.0.2, SVG Export Plug-In . SVG Version: 6.00 Build 0)  -->
<svg version="1.1" id="Laag_1" xmlns="http://www.w3.org/2000/svg" xmlns:xlink="http://www.w3.org/1999/xlink" x="0px" y="0px"
	 viewBox="0 0 242 105" style="enable-background:new 0 0 242 105;" xml:space="preserve">
<style type="text/css">
	.st0{fill-rule:evenodd;clip-rule:evenodd;fill:#1E6AA5;}
	.st1{fill-rule:evenodd;clip-rule:evenodd;fill:#E9AC35;}
	.st2{fill-rule:evenodd;clip-rule:evenodd;fill:#E98530;}
	.st3{fill-rule:evenodd;clip-rule:evenodd;fill:#DE682D;}
	.st4{fill-rule:evenodd;clip-rule:evenodd;fill:#243E70;}
	.st5{fill-rule:evenodd;clip-rule:evenodd;fill:#005093;}
	.st6{fill-rule:evenodd;clip-rule:evenodd;fill:#FFFFFF;}
</style>
<path class="st0" d="M16.7,3.7c1.1-0.7,2.5-1,3.7-1.3c1.4-0.4,2.8-0.8,4.3-1c4.1-0.6,0.6,10.6-0.2,12.1c-0.3,0.7-0.7,1.3-1.2,2
	c-1.1,1.4-3,1.4-4.1,0c-2.2-2.6-2.6-6.1-3.4-9.3c-0.1-0.4-0.2-0.8-0.1-1.3C15.8,4.5,16.2,4.1,16.7,3.7L16.7,3.7"/>
<path class="st1" d="M51.4,6.8c-0.3-0.1-0.6-0.3-0.9-0.4c-2.6-0.9-5.3-1.4-8-1.8c-2.7-0.4-3,2.2-2.9,4.1c0.1,1.5,1.4,7.7,1.9,9.4
	c0.3,1.1,0.7,2.2,1.7,2.9c1,0.7,2.5,1,3.8,0.7c2-0.4,3.2-2.6,3.8-4.2c0.7-1.8,1-3.7,1.3-5.6C52.5,10.3,53.3,7.8,51.4,6.8"/>
<path class="st2" d="M63,40c-2.4,6.6-4.8,13.3-7,19.9l-0.5,1.5L55,62.9l-0.5,1.5l-0.2,0.7l-0.5,1.5l-0.2,0.7L53,68.8
	c-4.7,14.2-8.7,28-9.5,35.6c-12.2-9.6-13.7-37.3-12.9-57.9c6.7-1.3,13.3-3.6,19-7.4l0.5-0.3c5.1-3.5,9.5-8.2,12.7-14.4
	c2.5-0.7,4.9-1.7,7.3-3.1c0,0-2.9,7.5-6.8,18.2L63,40z"/>
<path class="st3" d="M49.6,39c-5.7,3.7-12.2,6-19,7.4c-0.7,20.6,0.8,48.3,12.9,57.9c1.3-13,12.3-44.6,19.7-64.9
	C58.4,39.5,53.9,39.4,49.6,39"/>
<path class="st1" d="M62.7,24.3c-14.4,4.2-29.3-1.9-30.1-2.2c0,0.3-0.8,5.9-1.4,14c6,1.5,12.2,2.5,18.4,3
	C54.9,35.5,59.5,30.8,62.7,24.3"/>
<path class="st0" d="M29.6,20.8L29.6,20.8c-11.3-4.3-29.5,3-29.5,3c3.2,1.4,12.9,7.5,28.3,11.6C29,27,29.6,21.1,29.6,20.8"/>
<path class="st4" d="M27.9,47.6c-0.4,15.2,0.2,32.9,4.3,42c0,0-1.5-1.6-3.2-3.3L28.7,86c-0.1-0.1-0.1-0.1-0.2-0.2l-0.3-0.4
	c-0.5-0.6-1.1-1.2-1.6-1.8C20.6,76.8,9.5,62,7.1,48l-0.1-0.8c-0.2-1-0.3-2-0.3-3C5.5,25-0.9,23.8,0.1,23.7C0.4,23.9,0.7,24,1,24.2
	l0.4,0.2c4.1,2.1,13.3,7.3,27.1,11c6.9,1.9,14,3.1,21.1,3.7c-5.7,3.8-12.2,6.1-19,7.4c-0.9,0.2-1.8,0.3-2.7,0.5L27.9,47.6z"/>
<path class="st5" d="M31.2,36.1c-0.9-0.2-1.8-0.5-2.7-0.7C13,31.2,3.3,25.1,0.1,23.7h0c-1,0,5.4,1.3,6.5,20.5
	c0.1,1.2,0.2,2.5,0.4,3.7c6.6,0.2,13.8,0.1,20.9-1.1c0.9-0.1,1.8-0.3,2.7-0.5c6.7-1.3,13.3-3.6,19-7.4
	C43.4,38.5,37.2,37.6,31.2,36.1"/>
<g>
	<path class="st6" d="M122.4,7c-3.9-0.9-7.9-1.2-12.4-1.2c-11.1,0-26.8,4.1-32.4,10.1c-1-1.3-1.9-2.9-1.9-5.1
		C75.7,3,102.5,0,109.8,0C119.3,0,123.8,2.8,122.4,7 M89.9,32.9c6.1,0.1,7.1-0.5,13.5-1.3c-2.9,6.8-8.3,7.2-15,7.1
		c-1.7,5.2-2.9,13.8-2.9,18c0,2.5,0.3,4.5,1,5.9c-5.6,1.8-11.8,1.2-11.8-4.7c0-4.8,1.6-13.6,3.3-19.2c2-7,0.5-2.1,1.7-6.1
		c1.2-4.3,4.6-13.5,5.8-15.8c2.6-4.8,6.7-5.9,12.3-5.2C95.4,16,91.8,26,89.9,32.9 M102.2,59.4c0-3.4,2.5-9.6,2.5-13.9
		c0-3.7-0.4-7.1-1.7-9.2c1.7-1.2,4.3-2.2,6.8-2.2c3.1,0,4.3,2.2,4.3,5.9c0,0.9-0.1,1.9-0.2,3c1.8-5.2,6-10,10.9-10
		c4.7,0,7.8,3.5,3.6,9.9c-1.6-0.9-3.2-1.5-4.9-1.5c-7,0-10.8,10.9-11.6,23.2C106.8,64.6,102.2,64.1,102.2,59.4 M142.8,55.1
		c0,1.3,0.4,1.9,1.4,1.9c4.1,0,11.6-7,14.3-12.1c0,0,1.7,0.8,1.7,2.8c0,3.4-10.7,15.9-21.8,15.9c-4.1,0-6.9-2-6.9-6.8
		c0-5.6,2.3-15,4.2-19.6c1.7-4.2,7.3-5.7,12.5-2.8C146.2,38.7,142.8,50.2,142.8,55.1"/>
	<path class="st6" d="M166.3,51.8c0,3.1,1.2,6.3,3.6,6.3c4.4,0,7.9-7.8,7.9-13c0-2.7-1.5-5.6-2.9-6.6c-1.6-1.1-1.9-2-1.9-3.1
		c0-2.2,16.5-4.4,24.3-4.4c8.4,0,10.9,5,9.6,13.1c3.4-4.7,10.5-11.1,18.5-11.1c2.9,0,3.9,2.1,3.9,4.4c0,6.1-4.1,12.5-4.1,18
		c0,1.5,0.4,1.8,1.6,1.8c2.3,0,10.8-7.7,12.3-11.1c1.4,0.3,2.2,1.5,2.2,2.6c0,4.5-12.2,14.9-21.2,14.9c-3.8,0-5.9-1.2-5.9-4.7
		c0-6.3,3.9-12.6,3.9-17.6c0-0.6-0.1-1-0.5-1c-3.7,0-14.2,12.5-14.8,22.6c-4.4,0-9.7-0.6-9.7-5.6c0-4.3,3.7-11.3,3.7-15.9
		c0-2.6-1.5-6-4.4-6c-2.2,0-5.9,0.5-7.3,0.9c1.3,1.2,2.3,2.9,2.3,6.1c0,11-9.1,21.1-21.3,21.1c-6.8,0-11.1-3.4-11.1-9.4
		c0-7.3,6.4-16.9,14-16.9c3.1,0,4,2.1,2.5,4C168.1,40.7,166.3,47.4,166.3,51.8 M149.5,17.1c-0.2-0.1-0.4-0.2-0.6-0.3
		c-1.8-0.7-3.7-1.2-5.7-1.6c-1.9-0.4-2.3,1.5-2.2,2.9c0,1.1,0.7,5.6,1,6.8c0.2,0.8,0.5,1.6,1.1,2.1c0.7,0.6,1.8,0.8,2.7,0.7
		c1.4-0.2,2.4-1.7,2.9-2.9c0.6-1.3,0.9-2.6,1.2-4C150.1,19.7,150.8,17.9,149.5,17.1"/>
</g>
</svg>
