<svg xmlns="http://www.w3.org/2000/svg" xml:space="preserve" id="Laag_1" x="0" y="0" version="1.1" viewBox="0 0 287.3 154.5">
  <style>
    .st1{fill:#271759}
  </style>
  <path fill="#e2dfed" d="M216.7 127c-1-.3-2.1-.4-3.3-.4h-.1c-9.6-1.6-18.2-5.9-24.6-12.8-9-9.7-13.1-24.2-10.5-39.8 2.5-15.6 11.6-31.9 25.4-44.3 1.7-1.6 3.5-3.1 5.4-4.5 18.8 17.1 20.3 51 .9 78.2-.6 1-.5 2.1.4 2.5.8.4 1.9.1 2.6-.8l.1-.1.1-.1c11.6-15.2 18.2-33.6 17.7-50.7-.2-13.4-4.9-25.6-13-35 10.9-6.4 23.1-10.4 35-11.1 1 0 2-.9 2.3-1.9.2-1-.4-1.9-1.4-1.9-13.2-.8-27.8 2.5-41.4 9.4-.8-.7-1.6-1.3-2.4-1.9-12.8-10-31-13.9-49.9-10.7-19 3-38.4 13.5-53.3 28.5-15 15-25.2 34.5-27.8 53.7-2.7 19.2 2.2 37.9 13.9 50.9 11.5 13.2 29.7 20.7 49.8 20.4 13.2-.1 27.3-3.7 40.5-10.1 5.6 4 12.1 7.1 19.1 9.1 1 .4 2.1.7 3.2.9.5.1 1 .1 1.6.1 5.2 0 10.4-2.9 13.8-7.1 1.6-2 2.8-4.3 3.4-6.8.6-2.5.5-4.8-.2-6.8-1.1-3.5-3.7-6-7.3-6.9zm-105.1-10.2c-19-16.9-16.7-53 6.2-77.6 21.6-25.2 60.4-34.6 84-19.3-1.2.8-2.5 1.7-3.7 2.6C181 35.1 167.4 54 161.8 74c-5.1 17.6-3.8 35.8 3.8 50.4-19.5 7.3-41.2 5.4-54-7.6z"/>
  <path d="M33.6 117.8c-2-1.2-4.5-2.7-8.9-5.1-1.5-.8-9-4.7-10.6-5.8l-.3-.1c-1.5-.3-3.3-.7-4.9-1.3C.8 102.4 0 94.9 0 90.4c0-6.2 2-15.1 7.1-20.6 2.7-2.8 7.3-6.3 16.2-6.3 3.3 0 8.2.5 12 3.1 4.2 3 5.9 8.1 5.9 13.7 0 6.4-2.2 13.6-5.3 18-3.1 4.3-5.8 5.6-7.8 6.6l2.1.6c2.8.9 7.3 2.4 10.2 3.4l.1.4c-3.1 4-3.5 4.4-4.7 6.1l-1.8 2.4c0-.1-.4 0-.4 0zM28.2 79c0-1.4 0-6.8-5.3-6.8-3.2 0-5.2 2.6-5.9 3.7-2.4 3.8-4 11.8-4 15.2 0 1.2 0 6.9 5.6 6.9 5.8 0 8.1-8.2 9.2-14.3.1-1.5.4-3.1.4-4.7zm43.6 26.8-.4.4-11.3.2-.3-.3.7-3c-1.4 1.3-2 1.8-3.6 2.5-2.4 1.1-4.2 1.4-5.6 1.4-3.4 0-8.1-1.7-8.1-7.8 0-2.2.5-4.4 1.4-8.2l1.4-6c1-4.4 1.3-5.6 2-9.8l.4-.4 11.5-.6.4.5c-1 4-1.8 7.9-2.8 11.9-1 4-1.7 6.8-1.7 8.4 0 2.5 1.7 3 2.8 3 1.6 0 2.5-.7 3.4-1.2l2.6-12.3 1.9-9.2.4-.4c4.7-.2 6.1-.2 11.7-.6l.3.5-3.8 16.5-1.3 5.6c0-.1-2 8.9-2 8.9zM113.4 86c-1 4.2-2 8.4-2.8 12.5-.5 2.4-.9 4.8-1.2 7.2l-.4.4-11 .2-.3-.3.5-2.7c-2.4 2.4-5.6 3.6-8.9 3.6-2.8 0-4.6-1.1-5.6-1.8-3.9-3-4-8.1-4-9.9 0-7.2 3.5-12.5 6.1-15.1 5.8-5.6 13.2-5.7 18.7-5.8h11.3l.4.5-2.8 11.2zm-10.7-3.9c-1.8-.1-4.3-.1-6.4 1.7-1.7 1.4-4 5-4 10.3 0 3 1.4 4.8 3.7 4.8 1.3 0 2.2-.6 3.1-1.2l3.6-15.6zm24.9 23.7-.4.3-12 .2-.3-.4 3.6-14.5 2.6-11.2c.5-2.4 1.1-4.8 1.6-7.2 1.1-4.9 1.4-5.9 2.1-11.7l.4-.4 12.7-2.1.4.5c-2.4 9.4-3 11.7-4.8 19.7l-2.7 11.5-3.2 15.3zm21.2-11.2c-1.2 5.8-1.4 7.1-2.1 11.2l-.4.3-12.6.2-.2-.4c2-7.5 2.4-8.8 4-15.9l.6-2.5c1.2-5.7 1.4-6.8 2-11.6l.4-.5c6-.8 7.4-1 12.8-2l.4.4-4.1 17.3-.8 3.5zm5.4-25.2-.5.4-11.7 1.8-.4-.4 2-9.5.5-.4 11.9-1.6.4.4-2.2 9.3zm17.2 36.4-.5.4c-2.3.5-3.9.8-6.3.8-2.1 0-9.9 0-9.9-7.1 0-2.4 1.1-6.6 1.7-9.4l2.1-8.2-3.9.1-.4-.5 2-7.2.5-.4h3.7l1.8-7.8.4-.4c5.3-1.2 6.7-1.7 11.7-3.1l.4.4-1.3 5.2-1.4 5.9 5.8-.1.2.4c-1.1 3.2-1.3 3.9-2.2 7.1l-.5.4-5.1-.1-2.1 8.7c-.3 1.2-.6 2.4-.8 3.6-.1.6-.2 1.1-.2 1.7 0 2 1.7 2.4 2.8 2.4 1.5 0 2.4-.4 3.3-.7l.4.4-2.2 7.5z" class="st1"/>
  <path d="M210.2 74.8c-1.6 2.6-1.8 2.8-3.5 6-1 1.8-1.2 2.2-6.7 11.6l-4.6 8.1c-1.9 3.4-4.6 8.5-6.3 11.9-1.1 2.3-3 6-4.1 8.3l-.5.4-10.8.2-.2-.4c1.7-2.6 4.4-6.8 6.1-9.4.2-.4 2.3-3.7 2.3-3.9l-1.1-9.1-1.4-10.5c-.8-6.4-1-8.1-1.8-12.9l.4-.5c5.3-.1 6.9-.1 12-.5l.4.4.2 7.4.5 10.8 3.7-7.8c2.9-6 3.1-6.6 4.6-10l.5-.4 9.9-.2.4.5zM280.7 108.7l-.5.4c-2.3.5-3.9.8-6.3.8-2.1 0-9.9 0-9.9-7.1 0-2.4 1.1-6.6 1.7-9.4l2.1-8.2-3.9.1-.4-.5 2-7.2.5-.4h3.7l1.8-7.8.4-.4c5.3-1.2 6.7-1.7 11.7-3.1l.4.4-1.3 5.2-1.4 5.9 5.8-.1.2.4c-1.1 3.2-1.3 3.9-2.2 7.1l-.5.4-5.1-.1-2.1 8.7c-.3 1.2-.6 2.4-.8 3.6-.1.6-.2 1.1-.2 1.7 0 2 1.7 2.4 2.8 2.4 1.5 0 2.4-.4 3.3-.7l.4.4-2.2 7.5zM231.1 96.1c-1.2 5.8-1.4 7.1-2.1 11.2l-.4.3-12.6.2-.2-.4c2-7.5 2.4-8.8 4-15.9l.6-2.5c1.2-5.7 1.4-6.8 2-11.6l.4-.5c6-.8 7.4-1 12.8-2l.4.4-4.1 17.3-.8 3.5zm5.4-25.2-.5.4-11.6 1.7-.4-.4 2-9.5.5-.4 11.9-1.6.4.4-2.3 9.4zM259 98.4c-1.2 4.3-1.3 5-2.1 8.5l-.5.4c-2.2.7-4.3 1.3-7.3 1.3-10 0-14.8-5.9-14.8-14.6 0-8.8 6.2-18.6 18.8-18.6 5.5 0 7.9 1.5 9.4 2.4l.1.5-2.3 8-.6.1c-1.4-1.8-3-2.8-5.3-2.8-4 0-7.8 3.7-7.8 10 0 3.3 1.6 6.6 6 6.6 2.9 0 4.5-1.2 5.7-2.1l.7.3z" class="st1"/>
</svg>
