<svg xmlns="http://www.w3.org/2000/svg" xml:space="preserve" id="Laag_1" x="0" y="0" version="1.1" viewBox="0 0 473.21 154.54">
  <style>
    .st1{fill:#271759}
  </style>
  <path fill="#e2dfed" d="M287.16 127.01c-1.02-.27-2.11-.43-3.28-.43h-.09c-9.57-1.55-18.25-5.89-24.6-12.81-9.01-9.67-13.06-24.16-10.47-39.8 2.5-15.6 11.62-31.94 25.4-44.29 1.73-1.57 3.54-3.06 5.39-4.48 18.75 17.07 20.31 51.01.93 78.18-.01 0-.02.02-.02.02-.01.01-.01.03-.02.03 0 .01 0 .02-.01.02h.01c-.62.96-.45 2.07.4 2.49.81.41 1.94.06 2.61-.78h.01c.04-.03.06-.08.09-.12l.06-.06c0-.01.01-.02.01-.04 11.61-15.2 18.25-33.62 17.73-50.7-.18-13.36-4.9-25.57-12.98-34.99 10.89-6.4 23.09-10.4 35.04-11.09v-.01c1.03-.04 2.05-.87 2.29-1.91.24-1.03-.4-1.87-1.41-1.91-13.21-.84-27.81 2.47-41.44 9.36-.77-.66-1.56-1.31-2.37-1.93-12.88-9.92-31.09-13.86-50.05-10.68-18.98 2.99-38.44 13.48-53.31 28.46-15.01 14.96-25.19 34.53-27.8 53.71-2.74 19.17 2.18 37.93 13.92 50.92 11.52 13.21 29.67 20.72 49.79 20.37 13.21-.11 27.26-3.68 40.47-10.13 5.63 4 12.09 7.07 19.12 9.1.99.43 2.08.72 3.25.87.52.06 1.05.1 1.6.1 5.22 0 10.43-2.87 13.8-7.12 1.6-2.02 2.8-4.34 3.38-6.83.57-2.48.45-4.81-.22-6.83-1.1-3.3-3.69-5.75-7.23-6.69zm-105.13-10.22c-18.96-16.94-16.69-52.97 6.19-77.57 21.55-25.17 60.37-34.6 84.02-19.33-1.23.83-2.45 1.69-3.66 2.59-17.21 12.67-30.79 31.56-36.38 51.48-5.07 17.58-3.77 35.83 3.82 50.43-19.49 7.36-41.19 5.38-53.99-7.6z"/>
  <path d="M33.56 117.81c-2.02-1.19-4.51-2.73-8.89-5.1-1.48-.83-9.01-4.74-10.61-5.75l-.29-.06c-1.48-.3-3.26-.65-4.86-1.31C.83 102.4 0 94.93 0 90.42 0 84.2 2.02 75.3 7.11 69.79c2.67-2.85 7.35-6.34 16.25-6.34 3.26 0 8.18.48 11.98 3.14 4.21 3.02 5.87 8.06 5.87 13.69 0 6.4-2.19 13.63-5.28 18.02-3.08 4.33-5.75 5.57-7.83 6.58.71.18 1.42.42 2.13.59 2.85.89 7.35 2.43 10.2 3.38l.06.42c-3.08 3.97-3.5 4.45-4.68 6.05-.89 1.25-1.19 1.6-1.78 2.37l-.47.12zm-5.4-38.83c0-1.36 0-6.82-5.34-6.82-3.2 0-5.22 2.55-5.93 3.74-2.43 3.85-4.03 11.8-4.03 15.18 0 1.19 0 6.94 5.57 6.94 5.81 0 8.12-8.18 9.19-14.29.3-1.55.54-3.15.54-4.75zM71.85 105.78l-.42.36-11.26.24-.3-.35.71-3.02c-1.42 1.3-2.02 1.78-3.62 2.49-2.43 1.13-4.21 1.42-5.63 1.42-3.38 0-8.12-1.72-8.12-7.83 0-2.25.53-4.39 1.42-8.24l1.36-5.81c1.01-4.39 1.3-5.63 2.02-9.84l.41-.36 11.5-.59.42.48c-.95 3.97-1.84 7.94-2.85 11.86-1.01 4.03-1.66 6.76-1.66 8.36 0 2.49 1.66 2.96 2.79 2.96 1.6 0 2.55-.71 3.38-1.25l2.61-12.27 1.9-9.19.42-.36c4.68-.18 6.05-.18 11.68-.59l.3.48-3.85 16.54-1.3 5.57-1.91 8.94zM113.41 86.03c-1.01 4.15-2.02 8.36-2.79 12.51-.47 2.37-.89 4.8-1.24 7.23l-.36.36-10.97.24-.3-.35.47-2.73c-2.37 2.37-5.57 3.56-8.89 3.56-2.79 0-4.62-1.07-5.57-1.78-3.91-2.97-4.03-8.06-4.03-9.9 0-7.23 3.5-12.51 6.11-15.06 5.75-5.63 13.16-5.69 18.67-5.75h11.26l.36.47-2.72 11.2zm-10.67-3.91c-1.84-.06-4.27-.12-6.4 1.66-1.66 1.42-4.03 5.04-4.03 10.32 0 3.02 1.36 4.8 3.73 4.8 1.31 0 2.19-.59 3.08-1.24l3.62-15.54zM127.58 105.84l-.36.3-11.98.24-.3-.42 3.62-14.52 2.61-11.15c.53-2.37 1.07-4.8 1.6-7.17 1.13-4.86 1.36-5.87 2.08-11.68l.41-.41 12.69-2.13.36.47c-2.37 9.37-2.96 11.74-4.8 19.68l-2.67 11.5-3.26 15.29zM148.75 94.63c-1.24 5.81-1.42 7.05-2.07 11.21l-.36.3-12.63.24-.24-.42c2.02-7.53 2.37-8.83 3.97-15.95l.59-2.49c1.25-5.69 1.42-6.82 2.02-11.56l.42-.47c5.99-.77 7.41-1.01 12.75-2.02l.36.41-4.09 17.31-.72 3.44zm5.45-25.2-.47.42-11.68 1.72-.42-.42 2.02-9.48.47-.41 11.92-1.6.36.41-2.2 9.36zM171.39 105.78l-.47.42c-2.31.47-3.91.77-6.28.77-2.07 0-9.9 0-9.9-7.05 0-2.37 1.07-6.64 1.72-9.37l2.07-8.18-3.91.12-.42-.49 2.02-7.17.47-.36h3.68l1.78-7.77.42-.42c5.33-1.24 6.7-1.66 11.74-3.08l.36.36-1.31 5.22-1.42 5.87 5.81-.12.24.42c-1.13 3.2-1.3 3.91-2.19 7.12l-.53.41-5.1-.12-2.07 8.66c-.3 1.19-.59 2.43-.83 3.62-.12.59-.24 1.13-.24 1.72 0 2.02 1.66 2.43 2.79 2.43 1.54 0 2.37-.36 3.26-.71l.41.36-2.1 7.34z" class="st1"/>
  <path d="M210.17 74.77c-1.6 2.55-1.78 2.85-3.5 5.99-1.01 1.78-1.25 2.19-6.7 11.62l-4.57 8.06c-1.9 3.44-4.62 8.54-6.34 11.86-1.13 2.31-2.96 5.99-4.15 8.3l-.53.36-10.79.24-.18-.42c1.66-2.61 4.39-6.76 6.05-9.37.24-.42 2.31-3.73 2.31-3.91l-1.07-9.13-1.3-10.38c-.77-6.4-1.01-8.06-1.78-12.86l.41-.54c5.28-.06 6.88-.12 12.04-.53l.36.42.24 7.41.47 10.79 3.74-7.77c2.85-5.99 3.14-6.64 4.62-10.02l.53-.41 9.9-.24.24.53zM258.96 94.93c-.42 1.6-.89 3.26-1.31 4.86-.35 1.6-.77 3.26-1.12 4.86l-.36.47c-2.25 1.07-5.16 1.96-9.9 1.96-13.04 0-18.62-7.94-18.62-18.56 0-12.09 7.59-25.08 24.01-25.08 2.25 0 4.45.24 6.64.77 2.73.59 3.8 1.19 5.52 2.19l.24.47-2.6 9.13-.48.18c-1.07-1.01-3.14-3.02-7.94-3.02-8.96 0-12.45 9.37-12.45 14.58 0 6.29 3.5 9.78 9.13 9.78 4.33 0 6.88-1.66 8.77-2.91l.47.32zM292.45 99.61c-4.62 7.17-12.57 7.35-15.3 7.35-8.83 0-14.23-4.39-14.23-13.22 0-4.74 1.72-10.49 4.92-14.35 4.21-4.92 9.78-5.63 13.69-5.63 4.03 0 7.06.95 8.42 1.72 5.87 3.08 5.87 9.84 5.87 11.26 0 2.13-.18 4.21-.65 6.23-.64 2.61-1.71 5.1-2.72 6.64zm-8.48-14.64c0-2.31-.95-3.79-2.78-3.79-2.31 0-3.5 2.49-3.8 3.02-1.48 2.84-2.55 8.77-2.55 11.2 0 1.01 0 4.09 2.78 4.09 3.08 0 4.75-4.15 5.69-9.07.61-2.84.66-5.16.66-5.45zM327.96 105.84l-.47.3-11.68.24-.3-.42 2.19-9.66 1.24-5.81c.24-1.13.83-4.03.83-4.98 0-1.96-1.3-2.73-2.55-2.73-1.07 0-2.13.53-3.2 1.07-2.37 10.79-3.08 14.29-4.56 21.94l-.36.36-11.97.24-.24-.42 2.49-10.31.89-3.74c1.66-7.71 1.96-9.55 2.79-16.01l.47-.48c5.22-.65 6.64-.89 12.1-1.96l.36.41-.72 3.32c1.25-.89 4.63-3.44 9.25-3.44 2.08 0 7.95.77 7.95 7.77 0 3.02-1.37 8.89-2.31 12.93l-.83 4.03-1.37 7.35zM352.98 105.78l-.48.42c-2.31.47-3.92.77-6.28.77-2.07 0-9.9 0-9.9-7.05 0-2.37 1.07-6.64 1.72-9.37l2.08-8.18-3.91.12-.42-.49 2.02-7.17.47-.36h3.68l1.78-7.77.42-.42c5.34-1.24 6.69-1.66 11.74-3.08l.35.36-1.31 5.22-1.42 5.87 5.81-.12.24.42c-1.13 3.2-1.31 3.91-2.2 7.12l-.53.41-5.1-.12-2.08 8.66c-.3 1.19-.59 2.43-.83 3.62-.12.59-.24 1.13-.24 1.72 0 2.02 1.66 2.43 2.79 2.43 1.54 0 2.37-.36 3.26-.71l.41.36-2.07 7.34zM391.4 86.03c-1.01 4.15-2.02 8.36-2.79 12.51-.48 2.37-.89 4.8-1.24 7.23l-.36.36-10.96.24-.3-.35.47-2.73c-2.37 2.37-5.57 3.56-8.89 3.56-2.79 0-4.62-1.07-5.58-1.78-3.91-2.97-4.03-8.06-4.03-9.9 0-7.23 3.5-12.51 6.11-15.06 5.75-5.63 13.16-5.69 18.68-5.75h11.26l.36.47-2.73 11.2zm-10.67-3.91c-1.84-.06-4.27-.12-6.4 1.66-1.66 1.42-4.03 5.04-4.03 10.32 0 3.02 1.36 4.8 3.73 4.8 1.31 0 2.19-.59 3.08-1.24l3.62-15.54zM419.79 96.7c-1.18 4.27-1.3 5.04-2.07 8.48l-.48.42c-2.19.71-4.27 1.31-7.29 1.31-9.96 0-14.82-5.93-14.82-14.58 0-8.83 6.17-18.56 18.8-18.56 5.51 0 7.94 1.54 9.43 2.43l.12.48-2.31 8-.59.06c-1.42-1.78-3.03-2.79-5.28-2.79-4.03 0-7.83 3.74-7.83 10.02 0 3.32 1.6 6.58 6.05 6.58 2.85 0 4.51-1.19 5.69-2.07l.58.22zM440.66 105.78l-.48.42c-2.31.47-3.91.77-6.28.77-2.07 0-9.9 0-9.9-7.05 0-2.37 1.07-6.64 1.72-9.37l2.08-8.18-3.91.12-.42-.49 2.01-7.17.48-.36h3.68l1.78-7.77.42-.42c5.34-1.24 6.7-1.66 11.74-3.08l.36.36-1.31 5.22-1.42 5.87 5.81-.12.24.42c-1.13 3.2-1.31 3.91-2.19 7.12l-.54.41-5.1-.12-2.07 8.66c-.3 1.19-.59 2.43-.83 3.62-.12.59-.24 1.13-.24 1.72 0 2.02 1.66 2.43 2.79 2.43 1.54 0 2.37-.36 3.26-.71l.42.36-2.1 7.34zM443.93 103.35l2.13-7.47.54-.18c.95 1.07 3.44 3.97 8.12 3.97 1.84 0 4.15-.59 4.15-2.43 0-1.6-1.42-2.31-3.68-3.44l-1.24-.65c-2.73-1.48-5.93-3.26-5.93-8.18 0-2.67 1.07-5.22 2.91-7.23 2.13-2.31 5.81-3.97 11.44-3.97 4.8 0 7.35 1.07 10.55 2.43l.3.53c-1.01 3.2-1.25 4.15-2.08 7.47l-.59.12c-.48-.59-.95-1.19-1.54-1.72-1.37-1.13-3.56-1.9-5.45-1.9-2.91 0-3.62 1.36-3.62 2.14 0 1.3 1.54 2.07 3.03 2.79l1.18.59c3.38 1.78 7 3.79 7 9.25 0 3.5-1.66 5.75-2.67 6.88-3.97 4.45-9.9 4.57-12.45 4.57-6.76 0-10.02-1.84-11.97-2.96l-.13-.61z" class="st1"/>
</svg>
