<?xml version="1.0" encoding="UTF-8"?>
<svg width="130px" height="45px" viewBox="0 0 130 45" version="1.1" xmlns="http://www.w3.org/2000/svg" xmlns:xlink="http://www.w3.org/1999/xlink">
    <title>Branding/Logos/albert-heijn@2x</title>
    <g id="Branding/Logos/albert-heijn" stroke="none" stroke-width="1" fill="none" fill-rule="evenodd">
        <g id="AlbertHeijn" fill-rule="nonzero">
            <g id="Group" transform="translate(49.000000, 17.000000)" fill="#009BD7">
                <path d="M4.09264452,4.18522103 L4.37489586,3.05785039 L4.72771004,4.18522103 C4.72771004,4.18522103 5.18636848,5.58589365 5.39805699,6.13249759 L3.42229757,6.13249759 C3.42229757,5.79087013 4.09264452,4.18522103 4.09264452,4.18522103 M5.57446408,1.04224834 L3.21060906,1.04224834 L8.92642475e-13,10.2661899 L2.18744793,10.2661899 L2.99892055,7.87479767 L5.78615259,7.87479767 L6.63290663,10.4028409 L8.8909174,10.4028409 L5.68030834,1.04224834 L5.57446408,1.04224834 Z" id="Shape"></path>
                <polygon id="Path" points="12.2779335 1.00808559 10.3374555 1.00808559 10.3374555 10.2320272 12.4543406 10.2320272 12.4543406 1.00808559"></polygon>
                <path d="M17.1114878,7.87479767 L17.1114878,6.50828781 L17.1114878,6.09833485 C17.2616366,5.4843079 17.836032,5.05647483 18.4874632,5.07345245 C19.65175,5.07345245 20.075127,6.0641721 20.075127,6.95240351 C20.075127,7.84063493 19.4753429,8.86551733 18.4521817,8.86551733 C17.8321296,8.84778992 17.2927754,8.44922857 17.1114878,7.87479767 M16.8997993,1.04224834 L14.9946028,1.04224834 L14.9946028,8.25058789 C14.9946028,8.86551733 14.9946028,9.54877226 14.9946028,10.0270507 L14.9946028,10.2320272 L16.8292365,10.2320272 L16.8292365,9.48044677 C17.3321551,10.067811 18.0880974,10.395937 18.8755588,10.3686782 C19.8181667,10.3246998 20.703291,9.91690296 21.3331275,9.23642066 C21.9629641,8.55593835 22.2850092,7.65949598 22.2272935,6.74742703 C22.2659158,5.78947146 21.9106586,4.85577624 21.2394138,4.15105829 C20.0846897,3.09543235 18.2846777,3.08053543 17.1114878,4.11689554 L17.1114878,1.04224834 L16.8997993,1.04224834 Z" id="Shape"></path>
                <path d="M26.7785964,4.76598773 L27.6606319,5.07345245 L28.0840089,6.09833485 L25.3673397,6.09833485 C25.4203053,5.37174246 26.0271113,4.79886569 26.7785964,4.76598773 M23.2504489,6.91824077 C23.2487005,7.8609519 23.6493303,8.76246376 24.3575077,9.40937245 C25.0656852,10.0562811 26.0184569,10.3910797 26.990285,10.3345154 C27.8435424,10.3399173 28.6912357,10.2011879 29.4952656,9.92456247 L29.4952656,9.92456247 L29.1424515,8.48972711 L29.1424515,8.48972711 C28.5415205,8.69027016 27.9078251,8.78288945 27.2725363,8.76302909 C26.3570747,8.78807059 25.5481612,8.18994086 25.3320583,7.32819373 L29.9539241,7.32819373 L29.9539241,6.61077605 C30.0791683,5.73313611 29.7982327,4.84668988 29.1861361,4.18814679 C28.5740395,3.52960369 27.6931146,3.1660263 26.7785964,3.19450138 C24.8300575,3.19450138 23.2504489,4.72401965 23.2504489,6.61077605" id="Shape"></path>
                <path d="M60.3665066,4.76598773 C60.6920235,4.74427295 61.012013,4.85581664 61.2485421,5.07345245 L61.6366377,6.09833485 L58.9552499,6.09833485 C59.0082155,5.37174246 59.6150214,4.79886569 60.3665066,4.76598773 M56.838359,6.91824077 C56.8366107,7.8609519 57.2372404,8.76246376 57.9454179,9.40937245 C58.6535954,10.0562811 59.6063671,10.3910797 60.5781951,10.3345154 C61.4314525,10.3399173 62.2791458,10.2011879 63.0831758,9.92456247 L63.0831758,9.92456247 L62.9773316,8.42140162 L62.8009245,8.42140162 C62.199439,8.61974989 61.5661589,8.71230847 60.9310093,8.69470359 C60.5429137,8.69470359 59.1669384,8.45556437 58.9905313,7.25986823 L63.6123971,7.25986823 L63.6123971,6.54245055 C63.7493417,5.66851814 63.4774508,4.78090981 62.8705433,4.1206129 C62.2636358,3.46031598 61.3846935,3.09585283 60.4723509,3.12617589 C58.5238119,3.12617589 56.944209,4.65569415 56.944209,6.54245055" id="Shape"></path>
                <path d="M33.658473,4.45852301 L33.658473,3.60445434 L31.7885578,3.60445434 L31.7885578,3.60445434 C31.7885578,4.21938378 31.7885578,4.83431322 31.7885578,5.65421914 L31.7885578,10.2320272 L33.8701615,10.2320272 L33.8701615,6.81575253 L33.8701615,6.37163682 C33.9768396,5.72247291 34.5677911,5.25296387 35.2461368,5.27842893 L35.9517652,5.27842893 L35.9517652,3.36531511 L35.3519811,3.36531511 C34.625724,3.37493238 33.9571601,3.75040449 33.5879102,4.35603477" id="Path"></path>
                <path d="M39.3387813,1.38387581 L37.5041476,1.86215426 L37.5041476,7.87479767 C37.4418051,8.57405325 37.6562024,9.27012185 38.1039317,9.82207423 C38.5477999,10.2103147 39.1289399,10.4182741 39.7268769,10.4028409 C40.1832638,10.4191809 40.6385859,10.3495674 41.0675708,10.1978644 L41.0675708,10.1978644 L41.0675708,8.55805261 L40.8558823,8.55805261 L40.2208168,8.55805261 C39.7621584,8.55805261 39.479907,8.38723887 39.479907,7.53317021 L39.479907,5.00512695 L41.1734151,5.00512695 L41.1734151,3.46780335 L39.479907,3.46780335 L39.479907,1.31555031 L39.3387813,1.38387581 Z" id="Path"></path>
                <polygon id="Path" points="54.9684496 1.00808559 53.063253 1.00808559 53.063253 4.56101125 49.3587041 4.56101125 49.3587041 1.00808559 47.241819 1.00808559 47.241819 10.2320272 49.3587041 10.2320272 49.3587041 6.30331133 53.063253 6.30331133 53.063253 10.2320272 55.1448567 10.2320272 55.1448567 1.00808559"></polygon>
                <polygon id="Path" points="67.316946 3.46780335 65.376468 3.46780335 65.376468 10.2320272 67.4933531 10.2320272 67.4933531 3.46780335"></polygon>
                <path d="M65.5881565,1.04224834 L65.2706237,1.72550327 L65.2706237,1.72550327 L65.5881565,2.40875821 L66.4349105,2.75038567 L67.316946,2.40875821 L67.6344788,1.69134053 C67.625271,1.41041479 67.5011114,1.14455535 67.289348,0.952321947 C67.0775846,0.760088543 66.7955884,0.657249997 66.5054734,0.666458126 L65.5881565,1.04224834 Z" id="Path"></path>
                <path d="M70.0336152,1.04224834 L69.7513639,1.72550327 L69.7513639,1.72550327 L70.0336152,2.40875821 L70.8803692,2.75038567 L71.7624047,2.40875821 L72.0799375,1.69134053 C72.0716231,1.40677938 71.9414517,1.13838715 71.7206117,0.950469019 C71.4997716,0.762550889 71.2081619,0.67203951 70.9156507,0.700620873 L70.0336152,1.04224834 Z" id="Path"></path>
                <path d="M71.9035304,3.46780335 L70.0336152,3.46780335 L70.0336152,8.89968007 C70.0336152,10.3345154 70.0336152,10.7444684 69.6455196,10.9836076 C69.3105513,11.2571273 68.8840195,11.4028948 68.4459514,11.3935606 L68.2695443,11.3935606 L68.4812328,12.9992097 L68.4812328,12.9992097 C69.4110166,13.0171869 70.3193999,12.7280095 71.0567763,12.1793038 C71.7841851,11.4127554 72.1318039,10.3780319 72.0093746,9.34379578 L72.0093746,3.46780335 L71.9035304,3.46780335 Z" id="Path"></path>
                <path d="M76.2431448,4.18522103 L76.2431448,3.46780335 L74.3732296,3.46780335 L74.3732296,3.46780335 C74.3732296,3.94608181 74.3732296,4.56101125 74.3732296,5.38091717 L74.3732296,10.2320272 L76.4901147,10.2320272 L76.4901147,5.82503287 C76.6877482,5.32642847 77.1737698,4.99027759 77.7249644,4.97096421 C78.4658742,4.97096421 78.8539698,5.48340541 78.8539698,6.43996231 L78.8539698,10.2320272 L80.9708549,10.2320272 L80.9708549,6.23498583 C81.0857841,5.49620438 80.8573454,4.74603405 80.3468509,4.18581814 C79.8363565,3.62560223 79.0960943,3.31272159 78.3247485,3.33115237 C77.5260926,3.31293293 76.7568701,3.62327988 76.2078634,4.18522103" id="Path"></path>
            </g>
            <path d="M42.2814411,21.5079909 L31.8830658,2.22135149 C31.3686291,1.22006985 30.4619824,0.474728715 29.3773701,0.161455307 C28.2927578,-0.1518181 27.1264078,-0.00522984438 26.1539334,0.566580659 L7.24779659,11.1228774 C6.27804233,11.69614 5.56175743,12.6133764 5.24260026,13.6906252 L0.143672444,31.4366159 C-0.430214076,33.5133877 0.765240847,35.6666914 2.83636466,36.2868062 L32.8283727,44.8459657 C33.8388612,45.1360618 34.9237586,45.0131858 35.8430477,44.5045223 C36.7623368,43.9958587 37.4402398,43.1433372 37.7267809,42.1355652 L42.6538347,24.7604715 C42.9461571,23.668346 42.8131344,22.5065272 42.2814411,21.5079909" id="Path" fill="#009BD7"></path>
            <path d="M18.9638723,25.21696 C18.9638723,25.21696 15.6696212,18.8261209 13.5211966,18.8261209 C11.8883938,18.8261209 11.7451655,20.5664833 11.7451655,24.7604715 C11.7451655,28.9544596 11.9743308,30.4665778 13.5211966,30.4665778 C15.6409755,30.4665778 18.9638723,25.1028378 18.9638723,25.1028378 M23.2034303,20.0244032 C24.8935243,17.599308 26.4117444,15.2027434 29.2763106,15.2027434 C30.5678586,15.1951543 31.8095327,15.698891 32.7281673,16.6031324 C33.646802,17.5073738 34.1671438,18.7380458 34.1747188,20.0244032 L34.1747188,34.289669 L30.594011,34.289669 L30.594011,20.6806054 C30.594011,18.8261209 29.1044366,18.8261209 29.1044366,18.8261209 C27.8726732,18.8261209 25.6669572,21.679174 23.2034303,25.1598989 L23.2034303,34.1184858 L19.6227225,34.1184858 L19.6227225,29.9815587 C19.6227225,29.9815587 17.1591956,34.1184858 13.6930705,34.289669 C9.65403219,34.289669 8.27904042,31.4366159 8.27904042,24.7604715 C8.27904042,18.0843271 9.16705594,15.0600907 13.4925509,15.0600907 C16.786802,15.0600907 19.5940769,19.8246895 19.5940769,19.8246895 L19.5940769,16.9716363 L23.2034303,12.121446 L23.2034303,20.0244032 Z" id="Shape" fill="#FFFFFF"></path>
        </g>
    </g>
</svg>