<?xml version="1.0" encoding="utf-8"?>
<!-- Generator: Adobe Illustrator 23.0.1, SVG Export Plug-In . SVG Version: 6.00 Build 0)  -->
<svg version="1.1" id="Layer_1" xmlns="http://www.w3.org/2000/svg" xmlns:xlink="http://www.w3.org/1999/xlink" x="0px" y="0px"
	 viewBox="0 0 306.217499 299.769745" style="enable-background:new 0 0 306.217499 299.769745;" xml:space="preserve">
<style type="text/css">
	.st0{fill:#E33112;}
	.st1{fill:#FEFDFD;}
</style>
<path class="st0" d="M131.573395,299.769745c-32.062279-0.349884-62.313354-9.593109-87.894691-31.605103
	c-23.770601-20.453949-37.783566-46.552338-42.098541-77.482849c-6.294061-45.116928,6.452164-85.3116,33.994423-120.875214
	C61.890556,35.826397,96.187691,13.547714,138.270996,4.175116c34.830002-7.757178,68.891357-5.191155,100.783173,11.807528
	c36.295685,19.346004,57.881531,49.92852,64.909607,90.319588c6.462006,37.137817-1.179932,72.059998-20.25412,104.17926
	c-27.309784,45.98735-67.403076,74.845627-119.830673,86.173355C153.678162,298.858856,143.284866,299.654419,131.573395,299.769745
	z"/>
<path class="st1" d="M209.453079,115.010696c1.750748-1.463257,3.216293-2.805229,4.799179-3.990501
	c6.246109-4.677055,13.215149-7.117577,21.054489-5.984962c9.731644,1.406013,16.396378,8.873863,17.265884,18.896652
	c0.56958,6.565247-0.975555,12.929352-1.820648,19.352982c-1.30307,9.904648-2.777557,19.786697-4.169693,29.679703
	c-0.075455,0.536209-0.062408,1.084869-0.121552,2.225433c3.273575-4.923401,7.224533-7.992294,12.566818-9.059296
	c10.249634-2.047119,18.251068,6.081512,15.999969,16.277328c-2.077637,9.409866-12.610077,15.766754-21.479706,12.977402
	c-4.364471-1.372528-7.066727-4.433151-8.794281-9.191467c-0.306625,2.076096-0.537827,3.514908-0.727997,4.959122
	c-0.281281,2.136108-1.392776,3.292419-3.632233,3.287354c-6.831833-0.015472-13.664032,0.034393-20.495438-0.021271
	c-2.353531-0.01918-3.044006-0.942535-2.700684-3.394669c1.835602-13.110031,6.996078-49.210159,7.638428-54.163681
	c0.521027-4.017853-0.947571-6.933685-3.915894-8.080521c-3.191711-1.233109-7.050156,0.056534-9.257339,3.108383
	c-1.25296,1.732437-1.823822,3.721649-2.119064,5.805679c-2.487503,17.558365-4.971634,35.117188-7.459671,52.675476
	c-0.49205,3.472504-1.146667,4.062363-4.679611,4.07309c-6.332016,0.019226-12.664261,0.027054-18.996185-0.005371
	c-2.932785-0.015015-3.621109-0.816284-3.222031-3.626831c2.72702-19.20575,5.470551-38.409149,8.182556-57.617004
	c0.143524-1.016586,0.707977-4.962723,0.707977-4.962723c-0.517212,0.981659-1.768951,3.251587-2.150009,4.025299
	c-9.595032,19.481598-19.23111,38.943283-28.724869,58.474152c-1.302124,2.678772-2.857224,3.939285-5.914749,3.775528
	c-4.237015-0.226913-8.495331-0.044159-12.744415-0.062103c-3.354126-0.014175-3.832397-0.391571-4.52121-3.658249
	c-3.348679-15.880844-6.682404-31.764847-10.020927-47.647827c-0.838799-3.990601-1.677086-7.981323-2.511703-11.972794
	c-0.097839-0.46785-0.115685-0.973145-0.842201-1.348755c-1.223511,8.780411-4.809723,36.447861-6.072441,41.553223
	c-3.365067,13.605484-15.214645,23.524475-29.616173,23.148804c-12.655548-0.330124-25.326527-0.063065-37.990681-0.073029
	c-3.713776-0.002914-4.219986-0.662552-3.709236-4.290573c3.609638-25.640457,13.823273-98.696503,15.363503-109.578003
	c0.491257-3.470642,1.386021-4.218781,4.905674-4.225502c6.082108-0.011612,12.164268-0.012535,18.246368,0.000328
	c3.749916,0.007927,4.214417,0.508392,3.703148,4.291092c-1.226669,9.075745-4.00898,29.354546-4.163177,30.701904
	c12.655693-8.044258,24.786964-10.553879,36.092392,2.263252l-0.430962-3.87896
	c-0.329475-2.581886,0.285957-3.403542,2.878662-3.417114c6.581848-0.03447,13.164017-0.020195,19.746033-0.008598
	c3.169434,0.005592,3.869705,0.626884,4.425568,3.804466c2.151611,12.299881,4.303513,24.599716,6.457993,36.899094
	c0.13913,0.794235-0.019211,1.914185,0.957336,2.106628c1.213226,0.239059,1.32901-1.020325,1.679214-1.797928
	c5.501205-12.213989,11.052567-24.406265,16.422699-36.67778c1.382385-3.158913,3.216339-4.500671,6.814087-4.422806
	c10.826126,0.234306,21.661072,0.142212,32.491333,0.042076c2.517944-0.023277,3.708389,0.900719,3.902283,3.371948
	C208.88475,111.347572,209.190598,113.05294,209.453079,115.010696z M74.529472,170.836502
	c6.661026-0.002136,9.889671-2.787582,10.88813-9.449783c0.493538-3.293106,0.923988-6.595703,1.379295-9.894516
	c0.683044-4.948776,1.414261-9.891663,2.027199-14.849136c0.46286-3.743561-0.951813-6.592529-3.667427-7.769714
	c-3.053223-1.323532-6.895752-0.241348-9.195923,2.59404c-1.465759,1.806839-2.116417,3.936203-2.435356,6.194748
	c-1.303848,9.232986-2.611908,18.465393-3.90918,27.699295C68.887444,170.548813,69.154358,170.838226,74.529472,170.836502z"/>
</svg>
