<svg xmlns="http://www.w3.org/2000/svg" viewBox="0 0 112.5 90"><g id="Layer_2" data-name="Layer 2"><g id="ETOS_LOGO" data-name="ETOS LOGO"><path d="M.15,80.9c20.9-9.78,61.65-20.18,112.24-25.65l-.61,4.35C87.57,62.86,36.59,76.94,11.75,90ZM18.63,61.81a28.51,28.51,0,0,0,14.75-4.24,15,15,0,0,1-2.32-6.18,22,22,0,0,1-8,1.85c-7.1,0-9.88-4-9.88-8.62,0-8.26,8.36-13.71,18.54-15.3l1.85-6.43h-.06a18.34,18.34,0,0,1-2.7.21C23.82,23.11,20,19.54,20,14c0-4.68,3-8.32,8.18-8.32,2,0,4.28.85,5.12,2.12a4.43,4.43,0,0,0-3.82,4.62,4.65,4.65,0,0,0,4.94,4.5c4.13,0,6.34-3.19,6.34-6.68C40.72,3,33.16,0,27.7,0c-10.14,0-18,6.06-18,14.89,0,6.28,5.35,10.53,11.23,11C8.86,28.4,0,36.13,0,46.68,0,53.66,4.9,61.81,18.63,61.81ZM105.9,23.72a5,5,0,0,1,3-4.39l-2.46-4.44c-4.83,1.29-9.9,9.47-20.07,10.41C85,20.87,82.1,18.4,79,18.4a4.5,4.5,0,0,0-4.78,4.82c0,4,3.24,6.62,7.69,7.16a14.23,14.23,0,0,1,.37,3.76c0,5.48-3,13.11-8.84,13.11-3.76,0-5.62-3.55-5.62-7.74,0-5.16,2-10,3.76-11.9a13.91,13.91,0,0,1-.69-4.13,10.46,10.46,0,0,1,.65-3.62c-7.14,2.86-12.73,11.71-12.73,21.51a12.81,12.81,0,0,0,.14,2c-2.87,4-7.52,6.89-10.75,6.89A3,3,0,0,1,45,47a21.82,21.82,0,0,1,.91-5.08l4-15L57,26.23,58.77,20l-7.13.7L54.9,8.8l-7.82,2.43c-1.26,5-2.87,9.91-9.6,11.2l-1.72,6.23c1.27-.23,2.31-.4,4-.65-1.37,4.52-3.22,11.42-3.82,14.05a30.63,30.63,0,0,0-1,6.24c0,6.25,4.2,9.65,9.92,9.65,6.39,0,12.49-4.71,15.44-9C61.63,52.12,65.5,55,70.54,55c8.94,0,17.18-8.81,17.18-20.87a21.22,21.22,0,0,0-.3-3.86,22.61,22.61,0,0,0,10.52-3.65,3.73,3.73,0,0,0-.12.88c0,4.44,5.74,10.49,5.74,14.77,0,5-3.62,6.78-5.94,6.78a5.38,5.38,0,0,1-1.91-.28,4.3,4.3,0,0,0,.45-1.94,3.58,3.58,0,0,0-3.66-3.61,4.17,4.17,0,0,0-4.11,4.3c0,4.54,4.38,6.28,9.19,6.28,6.78,0,14.92-4.37,14.92-13.54C112.5,32.73,105.9,27.69,105.9,23.72Z"/></g></g></svg>