<svg xmlns="http://www.w3.org/2000/svg" viewBox="0 0 265.09 90"><defs><style>.cls-1{fill:#131819;}.cls-2{fill:none;}.cls-3{fill:#f07b24;}</style></defs><g id="Layer_2" data-name="Layer 2"><g id="Laag_2" data-name="Laag 2"><path class="cls-1" d="M.14,30.85c0-4.07-.1-8.14,0-12.2A21.53,21.53,0,0,1,3.32,7.73,15.45,15.45,0,0,1,15.14.31,16.69,16.69,0,0,1,27.87,3.57a19,19,0,0,1,7,12.17c.26,1.42.13,1.52-1.31,1.52-2.19,0-4.38,0-6.57,0-.68,0-1-.2-1.16-.92-.68-2.69-1.92-5.15-4.54-6.37-4.08-1.89-10.17-1.29-11.7,5.84a24.09,24.09,0,0,0-.52,4.71c-.06,7-.08,14,0,21.06a19,19,0,0,0,.69,4.67c1.27,4.59,4.57,6.1,9.14,5.64,4.07-.41,6.06-3,6.71-6.81a71.46,71.46,0,0,0,.47-8.43c0-.64-.39-.61-.82-.61-2.2,0-4.38,0-6.58,0-.79,0-1-.22-1-1,.05-2.39,0-4.77,0-7.15,0-.61.18-.86.81-.85q7.86,0,15.72,0c.62,0,.9.2.9.89,0,4.8.1,9.6-.06,14.39a21.18,21.18,0,0,1-3.78,12A15.5,15.5,0,0,1,19,60.85c-4.48.26-8.67-.53-12.27-3.39A16.93,16.93,0,0,1,.39,45C.06,40.33.33,35.58.33,30.85H.14"/><path class="cls-1" d="M17.47,61A16.61,16.61,0,0,1,6.7,57.54,17.08,17.08,0,0,1,.29,45C.06,41.78.12,38.44.17,35.22c0-1.4,0-2.85,0-4.27H0v-.1c0-1.27,0-2.53,0-3.8,0-2.75,0-5.6,0-8.4a21.65,21.65,0,0,1,3.18-11A15.63,15.63,0,0,1,15.12.2,16.86,16.86,0,0,1,27.93,3.48a19.15,19.15,0,0,1,7,12.24c.14.74.17,1.13,0,1.37s-.66.27-1.38.27-1.53,0-2.3,0H27a1.09,1.09,0,0,1-1.26-1c-.82-3.26-2.25-5.26-4.49-6.3a8.7,8.7,0,0,0-7.45-.15,8.13,8.13,0,0,0-4.1,5.91,22.91,22.91,0,0,0-.51,4.69c-.07,8-.07,14.7,0,21.06a17.93,17.93,0,0,0,.69,4.64c1.16,4.24,4.1,6.05,9,5.56,3.69-.37,5.92-2.63,6.62-6.72a39.08,39.08,0,0,0,.38-5.72c0-.88,0-1.8.08-2.7a.51.51,0,0,0-.09-.38.85.85,0,0,0-.56-.11H23.38c-1.55,0-3.14,0-4.7,0h-.09A1.08,1.08,0,0,1,17.8,36a1.13,1.13,0,0,1-.24-.89c0-2.14,0-4.48,0-7.15a1,1,0,0,1,.21-.75.92.92,0,0,1,.68-.21h0c5,0,10.32,0,15.73,0,.72,0,1,.27,1,1,0,1.73,0,3.5,0,5.2,0,3,0,6.13-.06,9.19a21.13,21.13,0,0,1-3.81,12A15.62,15.62,0,0,1,19,61C18.5,61,18,61,17.47,61ZM.25,30.74H.43v.11c0,1.46,0,2.94,0,4.37C.32,38.44.27,41.77.5,45A16.66,16.66,0,0,0,6.83,57.38C10,59.94,14,61,19,60.74a15.42,15.42,0,0,0,12.14-6.49,20.91,20.91,0,0,0,3.77-11.91c.1-3.06.08-6.18.06-9.19,0-1.7,0-3.47,0-5.2,0-.59-.19-.79-.79-.79-5.41,0-10.7,0-15.72,0h0a.71.71,0,0,0-.53.15.78.78,0,0,0-.15.6c0,2.67,0,5,0,7.15a1,1,0,0,0,.17.74.94.94,0,0,0,.65.17h.08c1.57,0,3.17,0,4.71,0h2a.84.84,0,0,1,.66.18.62.62,0,0,1,.15.53c0,.9-.06,1.81-.07,2.7a39.6,39.6,0,0,1-.4,5.75c-.71,4.19-3,6.51-6.8,6.89-5,.51-8-1.36-9.25-5.71A18.37,18.37,0,0,1,9,41.59C8.9,35.23,8.9,28.54,9,20.52a23.29,23.29,0,0,1,.52-4.72,8.36,8.36,0,0,1,4.2-6.06,8.91,8.91,0,0,1,7.64.15c2.3,1.07,3.76,3.11,4.61,6.44.16.64.39.83,1,.83h4.31c.77,0,1.54,0,2.3,0s1.08,0,1.22-.19.11-.54,0-1.2a19,19,0,0,0-7-12.11A16.59,16.59,0,0,0,15.15.41,15.49,15.49,0,0,0,3.41,7.78,21.58,21.58,0,0,0,.27,18.66c-.08,2.79-.06,5.64,0,8.39C.24,28.28.25,29.51.25,30.74Z"/><path class="cls-1" d="M152.82,30.84c0-4.31-.2-8.64.05-13,.29-5.26,2-10.07,6.07-13.71A15.93,15.93,0,0,1,172.13.32a17.47,17.47,0,0,1,15.28,15.29c0,.13.05.25.07.37.22,1.18.16,1.25-1,1.26-2.32,0-4.64,0-7,0-.6,0-.83-.16-1-.81-.8-3.06-2.2-5.87-5.44-6.83-5.44-1.6-9.71.38-11,6.73a22.11,22.11,0,0,0-.4,4.15c0,7.11-.08,14.23,0,21.34a18.53,18.53,0,0,0,.93,5.2c1,3.27,3.49,4.78,6.81,4.95,5,.25,8.11-2.14,8.87-7.17a80,80,0,0,0,.43-8.06c0-.64-.31-.7-.83-.7-2.19,0-4.38,0-6.58,0-.71,0-1-.14-1-.94,0-2.35,0-4.69,0-7,0-.7.21-.94.91-.94q7.73,0,15.45,0c.7,0,.93.25.92.95,0,5.08.18,10.17-.1,15.24-.32,5.66-2.26,10.73-7,14.36a15.64,15.64,0,0,1-9,3.16,18.81,18.81,0,0,1-8.93-1.41c-5.16-2.34-8-6.55-9.21-11.88a32.34,32.34,0,0,1-.65-6.22c-.1-3.49,0-7,0-10.49Z"/><path class="cls-1" d="M170.06,61a17.64,17.64,0,0,1-7.46-1.47c-4.83-2.18-7.95-6.21-9.27-12a32.41,32.41,0,0,1-.65-6.24c-.07-2.48-.06-5,0-7.45,0-1,0-2,0-3v-.1h.06c0-1.29,0-2.6,0-3.86-.05-2.95-.09-6,.08-9,.34-5.91,2.33-10.42,6.11-13.79A16,16,0,0,1,172.14.21a17.66,17.66,0,0,1,15.37,15.38,2.16,2.16,0,0,0,.05.27l0,.1c.12.63.16.95,0,1.16s-.48.22-1.12.23h-7c-.67,0-.93-.21-1.11-.88-.69-2.61-1.92-5.74-5.37-6.76-2.8-.82-5.26-.66-7.11.46s-3.14,3.22-3.73,6.19a22,22,0,0,0-.39,4.13v.59c0,6.8-.08,13.83,0,20.75a18.57,18.57,0,0,0,.93,5.17c.95,3.06,3.21,4.7,6.72,4.87.24,0,.48,0,.72,0,4.62,0,7.32-2.38,8-7.1a44.69,44.69,0,0,0,.34-5.42c0-.86,0-1.75.09-2.62a.56.56,0,0,0-.11-.45.86.86,0,0,0-.62-.15h-2.57c-1.32,0-2.67,0-4,0a1.12,1.12,0,0,1-.88-.22,1.08,1.08,0,0,1-.22-.82c0-2.12,0-4.36,0-7a1.09,1.09,0,0,1,.23-.81,1.05,1.05,0,0,1,.79-.23c5.13,0,10.32,0,15.45,0a1,1,0,0,1,.8.24,1.09,1.09,0,0,1,.23.81c0,1.64,0,3.3,0,4.91,0,3.39.06,6.9-.13,10.34-.35,6.27-2.7,11.12-7,14.43A15.73,15.73,0,0,1,171.57,61C171.05,61,170.55,61,170.06,61Zm-17.2-30c0,1,0,1.95,0,2.93,0,2.44,0,5,0,7.45a32.68,32.68,0,0,0,.64,6.19c1.31,5.68,4.39,9.65,9.15,11.81a18.45,18.45,0,0,0,8.88,1.41,15.4,15.4,0,0,0,8.95-3.15c4.29-3.31,6.55-8,6.9-14.27.19-3.44.16-6.94.13-10.32,0-1.62,0-3.28,0-4.92a1,1,0,0,0-.17-.67.91.91,0,0,0-.65-.17c-5.13,0-10.32,0-15.45,0a.85.85,0,0,0-.64.17.9.9,0,0,0-.17.66c0,2.69,0,4.93,0,7a.88.88,0,0,0,.16.67c.11.12.3.17.64.17h.08c1.34,0,2.69,0,4,0,.86,0,1.71,0,2.57,0a1.08,1.08,0,0,1,.78.21.78.78,0,0,1,.16.61c-.05.87-.07,1.75-.09,2.61a43.24,43.24,0,0,1-.35,5.45c-.75,5-3.87,7.52-9,7.26-3.61-.18-5.93-1.87-6.91-5a18.87,18.87,0,0,1-.94-5.23c-.09-6.92-.05-13.95,0-20.76v-.59a21.52,21.52,0,0,1,.4-4.16c.6-3,1.88-5.16,3.82-6.33s4.42-1.32,7.28-.48c3.55,1.05,4.81,4.24,5.52,6.91.16.62.37.72.9.72,1.62,0,3.28,0,4.87,0h2.09c.51,0,.85,0,1-.16s.08-.4,0-1l0-.1a2.33,2.33,0,0,1-.05-.28A17.46,17.46,0,0,0,172.12.42,15.8,15.8,0,0,0,159,4.24c-3.73,3.33-5.71,7.8-6,13.65-.17,3-.12,6-.09,9,0,1.3,0,2.64,0,4V31Z"/><path class="cls-1" d="M64.76,57.31c-.62.41-1,.67-1.44,1-2.2,1.51-4.55,2.8-7.28,2.71-5.23-.17-8.71-3-10.91-7.63a14.1,14.1,0,0,1-1.35-6.17c0-4.61-.1-9.21,0-13.81a18.35,18.35,0,0,1,3.36-10.63c3.25-4.37,7.74-5.81,13-5.32a13.84,13.84,0,0,1,9.64,4.76,14.52,14.52,0,0,1,3.72,9.18c.21,8.54.17,17.08.22,25.63,0,1,0,2,0,3,0,.59-.15.89-.79.88H65.55c-.65,0-.83-.26-.8-.86,0-.83,0-1.68,0-2.74m0-17.9c0-2.16.12-4.32,0-6.47-.28-4.15-2.09-6.91-6.84-6.63a4.39,4.39,0,0,0-4.08,2.75,15,15,0,0,0-1.13,6c-.08,3.68-.14,7.36,0,11,.17,3.87,2.88,6.67,7.47,5.76,2.79-.56,4.54-3,4.59-6.09,0-2.12,0-4.25,0-6.38"/><path class="cls-1" d="M56.3,61.09H56c-4.93-.17-8.63-2.75-11-7.69a14.28,14.28,0,0,1-1.36-6.22c0-1.34,0-2.68,0-4,0-3.22,0-6.54.06-9.81a18.37,18.37,0,0,1,3.39-10.69c3.07-4.13,7.34-5.89,13.08-5.36a14.08,14.08,0,0,1,9.71,4.8,14.7,14.7,0,0,1,3.74,9.25c.16,6.24.18,12.59.2,18.73q0,3.45,0,6.9c0,.39,0,.78,0,1.17,0,.61,0,1.25,0,1.87a1,1,0,0,1-.21.78A.89.89,0,0,1,73,61h0c-2.48,0-5,0-7.44,0h0a.88.88,0,0,1-.68-.22,1,1,0,0,1-.2-.75c0-.57,0-1.14,0-1.8V57.5l-.48.32-.8.53C61.3,59.78,59,61.09,56.3,61.09Zm2-43.66a12.87,12.87,0,0,0-11,5.37,18.17,18.17,0,0,0-3.34,10.57c-.11,3.26-.08,6.58-.06,9.8,0,1.33,0,2.67,0,4a14,14,0,0,0,1.33,6.13c2.34,4.86,6,7.41,10.83,7.57h.25c2.65,0,4.91-1.29,7-2.7l.79-.54.64-.42.17-.11v1.14c0,.66,0,1.23,0,1.81a.76.76,0,0,0,.13.6.73.73,0,0,0,.53.15h0c2.46,0,5,0,7.43,0h0a.69.69,0,0,0,.51-.15.83.83,0,0,0,.15-.62c0-.63,0-1.27,0-1.88,0-.39,0-.78,0-1.17q0-3.45,0-6.9c0-6.14,0-12.48-.2-18.73a14.43,14.43,0,0,0-3.69-9.11,13.65,13.65,0,0,0-9.57-4.73C59.52,17.46,58.88,17.43,58.26,17.43Zm.23,34.73A5.8,5.8,0,0,1,54.83,51a6.35,6.35,0,0,1-2.24-4.86c-.15-3.69-.09-7.33,0-11A15.41,15.41,0,0,1,53.71,29a4.54,4.54,0,0,1,4.17-2.81l.65,0c3.93,0,6,2.22,6.3,6.76.1,1.48.07,3,0,4.45,0,.66,0,1.35,0,2v1.16c0,1.72,0,3.48,0,5.23C64.81,49,63,51.42,60.19,52A8.55,8.55,0,0,1,58.49,52.16Zm0-25.77-.63,0a4.27,4.27,0,0,0-4,2.69,14.93,14.93,0,0,0-1.12,6c-.08,3.71-.14,7.35,0,11A6.13,6.13,0,0,0,55,50.81a6.2,6.2,0,0,0,5.18,1c2.69-.54,4.46-2.89,4.5-6,0-1.74,0-3.5,0-5.21V39.41c0-.67,0-1.36,0-2,0-1.45,0-3,0-4.43C64.33,28.54,62.33,26.39,58.52,26.39Z"/><path class="cls-1" d="M217.41,57.22c-.61.41-.93.64-1.26.87a15,15,0,0,1-6.57,2.82,9.14,9.14,0,0,1-5.09-.82c-4.44-2-6.91-5.52-7.82-10.2a17.14,17.14,0,0,1-.26-3.12c0-4.67-.13-9.34.1-14,.25-4.81,1.7-9.25,5.59-12.47a13.89,13.89,0,0,1,10.52-2.89,14.12,14.12,0,0,1,9.17,4.09,15.83,15.83,0,0,1,4.27,9,25.21,25.21,0,0,1,.21,3.69c0,8.51,0,17,0,25.53,0,1-.23,1.26-1.21,1.23-2.25-.08-4.5,0-6.76,0-.71,0-1-.22-.93-.93s0-1.63,0-2.75m-.16-17.77c0-2.47.17-5,0-7.41-.34-4-2.53-5.78-6.5-5.75a4.22,4.22,0,0,0-4.41,3.08,20.42,20.42,0,0,0-1,5.19c-.14,3.8,0,7.62,0,11.43,0,3.16,2.2,5.81,5,6,4,.28,6.6-1.58,6.94-5.22.22-2.42,0-4.88,0-7.33"/><path class="cls-2" d="M208.43,61.1a9.59,9.59,0,0,1-4-.91,13.36,13.36,0,0,1-7.88-10.28,16.48,16.48,0,0,1-.27-3.14c0-1.13,0-2.26,0-3.38,0-3.49-.05-7.08.13-10.62.28-5.54,2.12-9.64,5.62-12.54a13.35,13.35,0,0,1,8.81-3c.58,0,1.18,0,1.79.08a14.13,14.13,0,0,1,9.24,4.13,15.91,15.91,0,0,1,4.29,9,24.61,24.61,0,0,1,.22,3.71V44c0,5.15,0,10.47,0,15.71a1.44,1.44,0,0,1-.29,1.07,1.31,1.31,0,0,1-1,.26c-2.22-.07-4.46,0-6.75,0a1,1,0,0,1-.83-.24,1.05,1.05,0,0,1-.21-.81c0-.55,0-1.11,0-1.76v-.78l-.67.45-.44.31A14.9,14.9,0,0,1,209.59,61,9,9,0,0,1,208.43,61.1Zm2.42-43.66a13.08,13.08,0,0,0-8.68,3c-3.46,2.85-5.27,6.91-5.55,12.38-.18,3.53-.15,7.13-.13,10.6,0,1.13,0,2.26,0,3.39a16,16,0,0,0,.27,3.1A13.16,13.16,0,0,0,204.53,60a9.11,9.11,0,0,0,5,.81,14.69,14.69,0,0,0,6.53-2.8l.43-.31.83-.57.17-.11V58.2c0,.65,0,1.22,0,1.77a.87.87,0,0,0,.15.65.86.86,0,0,0,.64.18h0c2.29,0,4.54-.07,6.76,0,.46,0,.73,0,.88-.2s.23-.43.23-.92c0-5.24,0-10.56,0-15.71V34.15a25.47,25.47,0,0,0-.21-3.68,15.82,15.82,0,0,0-4.24-8.88,13.91,13.91,0,0,0-9.11-4.07C212,17.47,211.42,17.44,210.85,17.44ZM211,52.13l-.75,0c-2.84-.21-5.06-2.89-5.06-6.12,0-1.06,0-2.12,0-3.18,0-2.71-.05-5.51.06-8.26a20.15,20.15,0,0,1,1-5.21,4.34,4.34,0,0,1,4.51-3.16h.1c4,0,6.17,1.91,6.5,5.85a48.63,48.63,0,0,1,.07,5.12c0,.75,0,1.54,0,2.3s0,1.52,0,2.26a45.36,45.36,0,0,1-.08,5.08C217,50.17,214.66,52.13,211,52.13Zm-.2-25.74h-.09a4.1,4.1,0,0,0-4.31,3,19.84,19.84,0,0,0-1,5.16c-.11,2.75-.08,5.54-.06,8.25,0,1.06,0,2.12,0,3.18,0,3.12,2.14,5.71,4.87,5.91.26,0,.51,0,.76,0,3.56,0,5.76-1.84,6.06-5.15a42.73,42.73,0,0,0,.08-5.06c0-.74,0-1.5,0-2.26s0-1.55,0-2.31c0-1.68.07-3.41-.07-5.1C216.79,28.24,214.73,26.39,210.81,26.39Z"/><path class="cls-1" d="M83.46,30.59c0-9.75,0-19.5,0-29.25,0-1,.23-1.27,1.21-1.23,2.23.07,4.45.06,6.67,0,.91,0,1.17.24,1.17,1.17q0,18.38,0,36.77c0,7.21,0,14.42,0,21.63,0,.93-.2,1.29-1.2,1.25-2.25-.07-4.51,0-6.76,0-.83,0-1.09-.24-1.09-1.08q0-14.62,0-29.25"/><path class="cls-1" d="M91.42,61h-.14c-2-.06-4.12-.07-6.76,0a1.23,1.23,0,0,1-.92-.24,1.27,1.27,0,0,1-.27-.95c0-8.36,0-16.86,0-25.07V24.38c0-7.55,0-15.36,0-23A1.39,1.39,0,0,1,83.61.26a1.31,1.31,0,0,1,1-.26c2.12.07,4.3.07,6.66,0a1.29,1.29,0,0,1,1,.24,1.35,1.35,0,0,1,.29,1c0,10.5,0,21.18,0,31.52v9.84c0,5.58,0,11.36,0,17,0,.58-.08.9-.29,1.1A1.19,1.19,0,0,1,91.42,61ZM88,60.78c1.18,0,2.27,0,3.31,0h.13a1,1,0,0,0,.73-.2c.17-.16.23-.43.23-1,0-5.68,0-11.46,0-17V32.8c0-10.34,0-21,0-31.52A1.21,1.21,0,0,0,92.16.4a1.2,1.2,0,0,0-.84-.18c-2.37.06-4.55.06-6.68,0a1.26,1.26,0,0,0-.88.2c-.16.15-.22.43-.22.92,0,7.69,0,15.5,0,23V34.77c0,8.21,0,16.71,0,25.07a1.12,1.12,0,0,0,.2.8,1.16,1.16,0,0,0,.78.18C85.77,60.79,86.91,60.78,88,60.78Z"/><path class="cls-1" d="M245.11,30.51q0,14.54,0,29.06c0,1.32,0,1.32-1.29,1.32h-6.39c-1.3,0-1.31,0-1.31-1.28V6.44c0-1.84,0-3.69,0-5.52,0-.57.16-.8.76-.79,2.48,0,4.95,0,7.44,0,.63,0,.83.25.81.84,0,.86,0,1.72,0,2.57v27"/><path class="cls-1" d="M243.81,61h-6.39c-1.36,0-1.41-.05-1.41-1.38V4.78c0-1.27,0-2.58,0-3.86a1,1,0,0,1,.19-.7.9.9,0,0,1,.65-.2h0c2.63,0,5.06,0,7.42,0h0a.88.88,0,0,1,.68.22.92.92,0,0,1,.2.73c0,.57,0,1.15,0,1.71V30.51q0,14.54,0,29.06C245.2,60.94,245.15,61,243.81,61Zm-7-60.76a.71.71,0,0,0-.5.14.73.73,0,0,0-.13.55c0,1.28,0,2.59,0,3.86V59.61c0,1.17,0,1.17,1.2,1.17h6.39c1.18,0,1.18,0,1.18-1.21q0-14.52,0-29.06V2.69c0-.57,0-1.15,0-1.72a.75.75,0,0,0-.14-.58.69.69,0,0,0-.53-.16h0c-2.37,0-4.8,0-7.44,0Z"/><path class="cls-1" d="M103.45,30.52q0-14.62,0-29.24c0-.92.25-1.2,1.16-1.17q3.35.09,6.67,0c.92,0,1.11.31,1.11,1.15q0,15.57,0,31.14V59.64c0,1.26,0,1.27-1.26,1.27-2.16,0-4.32,0-6.47,0-.91,0-1.2-.24-1.19-1.17q0-14.62,0-29.24"/><path class="cls-1" d="M104.51,61a1.22,1.22,0,0,1-.91-.26,1.33,1.33,0,0,1-.28-1c0-8.35,0-16.85,0-25.06V26.34c0-8.22,0-16.71,0-25.06a1.33,1.33,0,0,1,.27-1,1.27,1.27,0,0,1,1-.25c2.21.06,4.45.06,6.66,0h.11a1.11,1.11,0,0,1,.83.24,1.38,1.38,0,0,1,.27,1c0,8.54,0,17.24,0,25.64V59.64c0,1.32,0,1.37-1.37,1.38h-2c-1.46,0-3,0-4.47,0ZM104.46.21a1,1,0,0,0-.72.2c-.15.14-.22.4-.21.87,0,8.35,0,16.84,0,25.06V34.7c0,8.21,0,16.71,0,25.06a1.17,1.17,0,0,0,.21.87,1.15,1.15,0,0,0,.86.2c1.5,0,3,0,4.48,0h2c1.16,0,1.16,0,1.16-1.17V26.9c0-8.4,0-17.1,0-25.64,0-.47-.06-.71-.21-.86a1,1,0,0,0-.79-.18c-2.21.06-4.45.06-6.67,0Z"/><path class="cls-1" d="M265,30.51c0,9.72,0,19.44,0,29.16,0,.94-.2,1.28-1.2,1.24-2-.08-4,0-6,0s-1.7.19-1.71-1.67V1.67c0-.25,0-.51,0-.76,0-.57.2-.78.77-.78,2.46,0,4.9,0,7.35,0,.75,0,.79.37.79,1,0,5.31,0,10.61,0,15.91V30.51"/><path class="cls-1" d="M263.92,61h-.14c-1.3-.06-2.63-.05-3.91,0h-2.6c-.61,0-.94,0-1.13-.17s-.18-.51-.18-1.17c0-.13,0-.27,0-.43V1.67c0-.08,0-.17,0-.25a4.13,4.13,0,0,0,0-.5.87.87,0,0,1,.18-.67.87.87,0,0,1,.7-.23c2.19,0,4.77,0,7.34,0h0a.86.86,0,0,1,.65.2,1.11,1.11,0,0,1,.21.85c0,3.91,0,7.88,0,11.72V38c0,7.09,0,14.43,0,21.64,0,.58-.08.89-.29,1.09A1.17,1.17,0,0,1,263.92,61Zm-2.48-.25c.78,0,1.57,0,2.35,0a1.21,1.21,0,0,0,.87-.2c.16-.15.22-.43.22-.94,0-7.21,0-14.55,0-21.64V12.8c0-3.85,0-7.82,0-11.73,0-.33,0-.57-.14-.7a.71.71,0,0,0-.51-.14h0c-2.6,0-5.17,0-7.36,0a.71.71,0,0,0-.55.16.67.67,0,0,0-.11.51c0,.18,0,.35,0,.52v57.8c0,.16,0,.31,0,.44,0,.57,0,.89.12,1s.42.12,1,.11h4.17Z"/><path class="cls-3" d="M137.41,50.52l-3.76-4.81,3.41-3,8.7,10.64-3.33,2.86c-.78-.9-1.53-1.74-2.32-2.64A11.34,11.34,0,0,1,129.92,56a9.39,9.39,0,0,1-6-4.24c-3.2-5-2-10.8,3-14.46a2.56,2.56,0,0,0-.27-.45,9.76,9.76,0,0,1-1.29-10.68,7.72,7.72,0,0,1,7.78-4c3.11.33,5.68,1.5,7.13,4.37,2.24,4.47,1.33,9.91-4.48,12.2-1,.41-2.11.64-3.17,1a22,22,0,0,0-2.24.78c-3.2,1.41-4.36,4-3.24,7.11,1.18,3.28,4.19,5,7.36,4.09a30.72,30.72,0,0,0,2.88-1.15m-4.75-15.69a4.1,4.1,0,1,0-4.12-4.14,4.18,4.18,0,0,0,4.12,4.14"/><path class="cls-3" d="M132.8,56.44a13.53,13.53,0,0,1-2.91-.33,9.47,9.47,0,0,1-6-4.29c-3.2-5-2-10.86,3-14.54l0,0a3.37,3.37,0,0,0-.19-.32,9.89,9.89,0,0,1-1.3-10.79,7.76,7.76,0,0,1,7-4.15c.3,0,.61,0,.91.05,3.54.38,5.9,1.83,7.21,4.44A9.37,9.37,0,0,1,141,34a8.6,8.6,0,0,1-5.15,4.85c-.64.25-1.32.44-2,.63l-1.2.34-.32.11a18.87,18.87,0,0,0-1.91.68c-3.16,1.39-4.29,3.87-3.18,7a5.88,5.88,0,0,0,7.23,4,14,14,0,0,0,1.83-.71l.91-.38c-1.31-1.68-2.45-3.15-3.68-4.7l-.06-.08.08-.07,3.41-3,.09-.07.06.08,8.77,10.72-.08.07-3.33,2.86-.08.07-.07-.08-2.17-2.48-.08-.09A11.24,11.24,0,0,1,132.8,56.44Zm-.53-34.25a7.54,7.54,0,0,0-6.78,4,9.71,9.71,0,0,0,1.27,10.57,1.8,1.8,0,0,1,.21.35l.07.11,0,.09-.08,0c-5,3.61-6.15,9.37-3,14.32a9.23,9.23,0,0,0,5.92,4.19,11.26,11.26,0,0,0,10.11-2.36l.07-.07.22.24,2.1,2.4,3.17-2.72-8.56-10.48-3.26,2.81,3.7,4.74.09.11-.13,0-1,.44a15.45,15.45,0,0,1-1.87.71c-3.18.91-6.27-.8-7.48-4.15-1.13-3.18.07-5.82,3.3-7.24a16.41,16.41,0,0,1,1.93-.69l.32-.1c.39-.13.81-.25,1.2-.36a20.39,20.39,0,0,0,2-.62,8.36,8.36,0,0,0,5-4.73,9.13,9.13,0,0,0-.61-7.32c-1.27-2.53-3.57-3.95-7-4.32A8.85,8.85,0,0,0,132.27,22.19Zm.41,12.75h0a4.3,4.3,0,0,1-3-1.3,4.1,4.1,0,0,1-1.21-2.95,4.3,4.3,0,0,1,4.3-4.16,4.24,4.24,0,0,1,4.15,4.2,4.23,4.23,0,0,1-4.21,4.21Zm0-8.2a4.09,4.09,0,0,0-4,4,3.87,3.87,0,0,0,1.15,2.79,4.08,4.08,0,0,0,2.86,1.24h0a4,4,0,0,0,4-4,4,4,0,0,0-3.94-4Z"/><path class="cls-1" d="M67.89,88.08l1.27-1.5a5.53,5.53,0,0,0,3.77,1.55c1.31,0,2.13-.61,2.13-1.5v0c0-.86-.48-1.32-2.7-1.84-2.56-.61-4-1.37-4-3.57v0c0-2.06,1.71-3.47,4.09-3.47a6.64,6.64,0,0,1,4.35,1.5l-1.14,1.58a5.44,5.44,0,0,0-3.25-1.22c-1.23,0-2,.63-2,1.42v0c0,.92.55,1.34,2.86,1.88,2.53.62,3.83,1.52,3.83,3.51v0c0,2.23-1.76,3.57-4.27,3.57a7.35,7.35,0,0,1-5-1.92"/><rect class="cls-1" x="83.18" y="77.85" width="2.1" height="11.97"/><polygon class="cls-1" points="91.9 77.85 93.86 77.85 100.27 86.13 100.27 77.85 102.34 77.85 102.34 89.83 100.58 89.83 93.98 81.31 93.98 89.83 91.9 89.83 91.9 77.85"/><path class="cls-1" d="M108.84,77.85h4.47c3.76,0,6.36,2.58,6.36,6v0a6,6,0,0,1-6.36,6h-4.47ZM111,79.77v8.14h2.36a3.9,3.9,0,0,0,4.15-4v0a3.93,3.93,0,0,0-4.15-4.07Z"/><path class="cls-1" d="M124.66,88.08l1.27-1.5a5.53,5.53,0,0,0,3.77,1.55c1.31,0,2.13-.61,2.13-1.5v0c0-.86-.48-1.32-2.7-1.84-2.55-.61-4-1.37-4-3.57v0c0-2.06,1.71-3.47,4.09-3.47a6.64,6.64,0,0,1,4.35,1.5l-1.14,1.58a5.41,5.41,0,0,0-3.24-1.22c-1.23,0-1.95.63-1.95,1.42v0c0,.92.54,1.34,2.85,1.88,2.54.62,3.83,1.52,3.83,3.51v0c0,2.23-1.76,3.57-4.27,3.57a7.37,7.37,0,0,1-5-1.92"/><polygon class="cls-1" points="149.89 79.91 147.73 80.51 147.29 78.8 150.52 77.77 151.98 77.77 151.98 89.83 149.89 89.83 149.89 79.91"/><path class="cls-1" d="M157.86,86.56v0A3,3,0,0,1,160,83.61,2.86,2.86,0,0,1,158.27,81v0c0-1.84,1.76-3.23,4.16-3.23s4.15,1.38,4.15,3.23v0a2.85,2.85,0,0,1-1.74,2.66A3.09,3.09,0,0,1,167,86.49v0c0,2.14-1.95,3.48-4.57,3.48s-4.57-1.37-4.57-3.44m7.09-.12v0c0-1.1-1.1-1.81-2.52-1.81s-2.49.71-2.49,1.81v0c0,1,.91,1.8,2.49,1.8s2.52-.81,2.52-1.8m-.38-5.28v0c0-.93-.85-1.68-2.14-1.68s-2.14.75-2.14,1.65v0a2.18,2.18,0,0,0,4.28,0"/><path class="cls-1" d="M172.06,86.56v0a3,3,0,0,1,2.16-2.91A2.86,2.86,0,0,1,172.47,81v0c0-1.84,1.76-3.23,4.16-3.23s4.15,1.38,4.15,3.23v0A2.85,2.85,0,0,1,179,83.61a3.08,3.08,0,0,1,2.15,2.88v0c0,2.14-1.95,3.48-4.56,3.48s-4.57-1.37-4.57-3.44m7.08-.12v0c0-1.1-1.09-1.81-2.51-1.81s-2.5.71-2.5,1.81v0c0,1,.92,1.8,2.5,1.8s2.51-.81,2.51-1.8m-.38-5.28v0c0-.93-.85-1.68-2.13-1.68s-2.14.75-2.14,1.65v0a2.17,2.17,0,0,0,4.27,0"/><path class="cls-1" d="M192.48,87.14h-6l-.4-1.5,6.66-7.87h1.79v7.65h1.72v1.72H194.5v2.69h-2Zm0-1.72V80.68l-3.93,4.74Z"/></g></g></svg>