<svg id="Layer_1" data-name="Layer 1" xmlns="http://www.w3.org/2000/svg" viewBox="0 0 481.89 204.77"><defs><style>.cls-1{fill:#fff;}</style></defs><title>DELTA logo WIT</title><path class="cls-1" d="M353.18,297.8c0-3.19,1.38-4.56,4.56-4.56h25.52c23.46,0,36.44,14.13,36.44,39.87S406.72,373,383.26,373H357.74c-3.18,0-4.56-1.37-4.56-4.56Zm30.08,60.25c12.18,0,18.45-8.77,18.45-24.94s-6.27-24.94-18.45-24.94H370.84v49.88Z" transform="translate(-171.46 -168.47)"/><path class="cls-1" d="M430.78,297.8c0-3.19,1.37-4.56,4.56-4.56H477c2.4,0,3.42,1.71,3.42,5.7v3.53c0,4-1,5.7-3.42,5.7h-28.7v16.51H474c2.39,0,3.42,1.71,3.42,5.7v3.53c0,4-1,5.69-3.42,5.69H448.32v18.45h28.82c2.39,0,3.42,1.71,3.42,5.7v3.53c0,4-1,5.7-3.42,5.7h-41.8c-3.19,0-4.56-1.37-4.56-4.56Z" transform="translate(-171.46 -168.47)"/><path class="cls-1" d="M492.09,296.67c0-2.39,2.05-3.65,6.84-3.65h3.86c4.79,0,6.84,1.26,6.84,3.65v61.38H535c2.4,0,3.42,1.71,3.42,5.7v3.53c0,4-1,5.7-3.42,5.7H496.64c-3.19,0-4.55-1.37-4.55-4.56Z" transform="translate(-171.46 -168.47)"/><path class="cls-1" d="M588.09,293.24H534.22c-2.39,0-3.42,1.71-3.42,5.7v3.53c0,4,1,5.7,3.42,5.7h18.11V371a3.19,3.19,0,0,0,0,.45,1.71,1.71,0,0,0,1.51,1.79h14.61A1.75,1.75,0,0,0,570,371.3a1.23,1.23,0,0,0,0-.2c0-.05,0-.09,0-.13v-62.8h18.1c2.4,0,3.42-1.71,3.42-5.7v-3.53C591.51,295,590.49,293.24,588.09,293.24Z" transform="translate(-171.46 -168.47)"/><path class="cls-1" d="M653.35,370.7a8,8,0,0,0-.34-2.05L628,295.41c-.69-1.82-3.2-2.39-6.49-2.39h-5.93c-3.3,0-5.81.57-6.49,2.39L584,368.65a8.82,8.82,0,0,0-.45,2.05v.1a2.4,2.4,0,0,0,2.39,2.41h10c.34,0,.66,0,1,0h.44a2.74,2.74,0,0,0,.64-.09c1-.21,1.76-.76,2.32-2.31l4.56-13.89H631.7l4.56,13.89c1,2.73,2.79,2.45,5.68,2.4h9a2.4,2.4,0,0,0,2.4-2.41,0,0,0,0,0,0,0S653.35,370.72,653.35,370.7Zm-43.63-28.82,6.72-20.27c.69-1.94,1.71-7.29,1.71-7.29h.46s1.14,5.81,1.7,7.29l6.5,20.27Z" transform="translate(-171.46 -168.47)"/><path class="cls-1" d="M313.7,228.57l-10.76-15a2.84,2.84,0,0,0-4.11-.54c-44.08,36.72-72.67,93.4-73.51,157.06a2.84,2.84,0,0,0,2.84,2.86h18.43a2.84,2.84,0,0,0,2.83-2.81c.81-55.77,25.59-105.43,63.79-137.75A2.83,2.83,0,0,0,313.7,228.57Zm-31.53-43.91-10.77-15a2.84,2.84,0,0,0-4.08-.57,254.23,254.23,0,0,0-24,22.17c-45.67,47.89-71.11,111.3-71.81,178.84A2.84,2.84,0,0,0,174.3,373h18.43a2.84,2.84,0,0,0,2.83-2.82c.68-61.33,23.76-118.85,65.15-162.25a226.93,226.93,0,0,1,20.94-19.38A2.83,2.83,0,0,0,282.17,184.66Zm52.25,72.78a2.82,2.82,0,0,0-4.15-.5c-30.53,26.88-50.29,67.55-51.08,113.15A2.82,2.82,0,0,0,282,373h18.43a2.84,2.84,0,0,0,2.83-2.81c.76-37.76,16.77-71.45,41.51-93.92a2.84,2.84,0,0,0,.42-3.77Z" transform="translate(-171.46 -168.47)"/></svg>