<?xml version="1.0" encoding="UTF-8"?>
<svg width="160px" height="24px" viewBox="0 0 160 24" version="1.1" xmlns="http://www.w3.org/2000/svg" xmlns:xlink="http://www.w3.org/1999/xlink">
    <!-- Generator: Sketch 60.1 (88133) - https://sketch.com -->
    <title>logo-maxaro</title>
    <desc>Created with Sketch.</desc>
    <defs>
        <polygon id="path-1" points="0.208825597 0.10646087 6.14745897 0.10646087 6.14745897 6.02298261 0.208825597 6.02298261"></polygon>
    </defs>
    <g id="logo-maxaro" stroke="none" stroke-width="1" fill="none" fill-rule="evenodd">
        <g id="BRAND2019/Logo/White-registered-trademark">
            <g>
                <g id="Group-3" transform="translate(153.706113, 0.154409)">
                    <mask id="mask-2" fill="white">
                        <use xlink:href="#path-1"></use>
                    </mask>
                    <g id="Clip-2"></g>
                    <path d="M3.17820775,0.6282 C1.82967882,0.6282 0.732526152,1.72098261 0.732526152,3.06472174 C0.732526152,4.4082 1.82967882,5.50124348 3.17820775,5.50124348 C4.52673668,5.50124348 5.62388934,4.4082 5.62388934,3.06472174 C5.62388934,1.72098261 4.52673668,0.6282 3.17820775,0.6282 M3.17820775,6.02298261 C1.54085796,6.02298261 0.208825597,4.69593913 0.208825597,3.06472174 C0.208825597,1.43350435 1.54085796,0.10646087 3.17820775,0.10646087 C4.81555754,0.10646087 6.1475899,1.43350435 6.1475899,3.06472174 C6.1475899,4.69593913 4.81555754,6.02298261 3.17820775,6.02298261" id="Fill-1" fill="#FEFEFE" mask="url(#mask-2)"></path>
                </g>
                <path d="M156.458814,3.01781739 L156.798696,3.01781739 C157.184925,3.01781739 157.426875,2.82425217 157.426875,2.52868696 C157.426875,2.2026 157.184925,2.05286087 156.812836,2.05286087 C156.631112,2.05286087 156.51485,2.06616522 156.458814,2.0792087 L156.458814,3.01781739 Z M155.890861,1.70486087 C156.105054,1.66964348 156.426345,1.64303478 156.7568,1.64303478 C157.20823,1.64303478 157.51538,1.71346957 157.72486,1.8812087 C157.897158,2.01764348 157.994828,2.22477391 157.994828,2.4759913 C157.994828,2.85946957 157.720147,3.11929565 157.426875,3.22051304 L157.426875,3.23381739 C157.650495,3.31338261 157.785348,3.52025217 157.864688,3.80642609 C157.962358,4.17686087 158.046151,4.52068696 158.111351,4.63494783 L157.520355,4.63494783 C157.473484,4.54677391 157.399119,4.30468696 157.310613,3.93451304 C157.22237,3.5466 157.073377,3.42346957 156.747635,3.4146 L156.458814,3.4146 L156.458814,4.63494783 L155.890861,4.63494783 L155.890861,1.70486087 Z" id="Fill-4" fill="#FEFEFE"></path>
                <path d="M140.456515,23.893513 C133.499415,23.893513 128.639736,19.1245565 128.639736,12.295513 C128.639736,5.51681739 133.499415,0.782556522 140.456515,0.782556522 C147.413092,0.782556522 152.271985,5.51681739 152.271985,12.295513 C152.271985,19.1245565 147.413092,23.893513 140.456515,23.893513 M140.456515,5.17951304 C136.209827,5.17951304 133.357492,8.03890435 133.357492,12.295513 C133.357492,16.6288174 136.209827,19.5398609 140.456515,19.5398609 C144.702156,19.5398609 147.555014,16.6288174 147.555014,12.295513 C147.555014,8.03890435 144.702156,5.17951304 140.456515,5.17951304" id="Fill-6" fill="#FEFEFE"></path>
                <polygon id="Fill-8" fill="#FEFEFE" points="121.89662 5.73683478 122.975967 5.66770435 123.986185 5.62466087 125.154037 5.5970087 126.025475 5.58944348 127.01108 5.5884 127.242031 5.5884 127.242031 1.34822609 125.578759 1.35370435 124.554662 1.37509565 123.692913 1.40509565 122.829331 1.44526957 121.852367 1.50292174 120.643928 1.59161739 119.361647 1.7064 118.328386 1.81413913 117.629508 1.89422609 117.054485 1.96466087 115.899201 2.11883478 114.411892 2.33692174 114.411892 23.1222261 119.04219 23.1222261 119.04219 6.04205217 120.841101 5.8284"></polygon>
                <path d="M98.4822299,23.8507043 C92.0119095,23.8507043 87.6641475,19.2069652 87.6641475,12.2949652 C87.7115424,5.37774783 92.0265732,0.91166087 98.6560985,0.91166087 C102.702209,0.91166087 105.246608,1.26566087 109.097116,2.00835652 L109.778189,2.13931304 L109.778189,23.1220957 L105.147367,23.1220957 L105.147367,21.6205304 C105.147367,21.6205304 103.93081,23.8507043 98.4822299,23.8507043 M99.0462554,5.13644348 C94.7561005,5.13644348 92.2952315,7.77748696 92.2952315,12.381313 C92.2952315,16.7824435 94.8595313,19.6267043 98.8297052,19.6267043 C103.794386,19.6267043 105.147367,16.357487 105.147367,16.357487 L105.147367,5.58253043 C102.943897,5.2674 101.129536,5.13644348 99.0462554,5.13644348" id="Fill-10" fill="#FEFEFE"></path>
                <path d="M48.5271409,23.8507043 C42.0562968,23.8507043 37.7090585,19.2069652 37.7090585,12.2949652 C37.7564534,5.37774783 42.0712223,0.91166087 48.7012713,0.91166087 C52.74712,0.91166087 55.2915191,1.26566087 59.1420275,2.00835652 L59.8231,2.13931304 L59.8231,23.1220957 L55.1925397,23.1220957 L55.1925397,21.6205304 C55.1925397,21.6205304 53.9757215,23.8507043 48.5271409,23.8507043 M49.0911664,5.13644348 C44.8007496,5.13644348 42.3401425,7.77748696 42.3401425,12.381313 C42.3401425,16.7824435 44.9044423,19.6267043 48.8746162,19.6267043 C53.8392975,19.6267043 55.1925397,16.357487 55.1925397,16.357487 L55.1925397,5.58253043 C52.9888078,5.2674 51.1747091,5.13644348 49.0911664,5.13644348" id="Fill-12" fill="#FEFEFE"></path>
                <path d="M29.1966464,23.1220957 L29.1966464,10.609487 C29.1966464,6.94348696 27.810411,5.30913913 24.7012008,5.30913913 C22.5257487,5.30913913 20.6817991,5.58357391 18.8333979,6.19061739 C19.1135777,7.14931304 19.2510491,8.29322609 19.2510491,9.65861739 L19.2510491,23.1220957 L14.6204888,23.1220957 L14.6204888,10.3932261 C14.6204888,6.59209565 13.4201671,5.30913913 9.86397852,5.30913913 C8.36017238,5.3780087 6.66678663,5.48183478 4.63116257,5.7594 L4.63116257,23.1220957 L7.85550834e-05,23.1220957 L7.85550834e-05,2.15026957 L0.667796764,2.01070435 C3.46880919,1.42270435 7.29129954,0.992269565 10.4065323,0.912182609 L10.4083653,0.912182609 C13.0014686,0.912182609 14.8980501,1.41122609 16.3387503,2.47453043 C18.9651086,1.45113913 22.0394927,0.91166087 25.2647026,0.91166087 C30.8146193,0.91166087 33.8709357,4.11018261 33.8709357,9.91844348 L33.8709357,23.1220957 L29.1966464,23.1220957 Z" id="Fill-14" fill="#FEFEFE"></path>
                <polygon id="Fill-16" fill="#FEFEFE" points="63.7695765 23.1582783 72.6889825 12.4015826 63.9109756 1.65532174 69.5370907 1.65532174 78.4104111 12.3650609 69.3105902 23.1577565"></polygon>
                <polygon id="Fill-18" fill="#FEFEFE" points="79.4001528 11.4064174 87.1587765 1.61963478 81.5318759 1.61963478 76.524513 7.94833043"></polygon>
                <polygon id="Fill-20" fill="#FEFEFE" points="79.2950722 13.3909565 76.4817529 16.7744348 81.758036 23.121913 87.2987878 23.1224348"></polygon>
            </g>
        </g>
    </g>
</svg>