<svg xmlns="http://www.w3.org/2000/svg" viewBox="0 0 275 274.988"><defs><clipPath id="a" clipPathUnits="userSpaceOnUse"><path d="M0 124.725h144.861V0H0v124.725z"/></clipPath></defs><g clip-path="url(#a)" transform="matrix(3.2065 0 0 -3.2065 -94.98 337.46)"><path fill="#ff6d00" d="m79.023 92.428-2.542 2.536c-2.518 2.524-5.55 2.568-8.379-.262l-2.014-2.016c-2.832-2.83-2.785-5.857-.266-8.38l2.542-2.535c2.52-2.53 5.552-2.573 8.38.256l2.013 2.018c2.832 2.829 2.787 5.859.266 8.383M66.29 79.694l-2.546 2.534c-2.52 2.523-5.549 2.57-8.377-.262l-2.016-2.017c-2.83-2.827-2.786-5.853-.265-8.38l8.153-8.148c.942-.937 2.002-.8 2.725-.077.724.724.846 1.765-.093 2.708l-1.876 1.87c.51.109 1.138.498 1.877 1.235l2.152 2.155c2.834 2.828 2.785 5.855.266 8.382M56.181 63.866l-5.4 5.397c-2.523 2.523-5.549 2.57-8.38-.26l-2.017-2.013c-2.83-2.83-2.785-5.86-.26-8.383l5.395-5.403c.944-.94 2-.8 2.725-.08.721.727.846 1.776-.097 2.71l-5.35 5.357c-1.014 1.01-.983 1.966.157 3.104l2.138 2.137c1.136 1.14 2.093 1.173 3.106.155l5.351-5.35c.937-.942 1.985-.816 2.708-.094.725.725.864 1.782-.076 2.723m55.116-6.806-33.49-33.488c-3.372-3.373-7.24-3.373-10.609 0L33.71 57.058c-3.373 3.372-3.373 7.237 0 10.609l33.49 33.485c3.372 3.375 7.236 3.375 10.606 0l33.488-33.485c3.374-3.37 3.374-7.236.003-10.607M73.902 92.29c-1.018 1.015-1.97.985-3.108-.156l-2.139-2.14c-1.136-1.134-1.169-2.09-.15-3.102l2.442-2.447c1.016-1.018 1.967-.987 3.108.154l2.138 2.139c1.134 1.134 1.167 2.093.153 3.104l-2.444 2.448zM63.61 77.106c1.014-1.013.982-1.97-.156-3.104l-2.137-2.14c-1.142-1.138-2.089-1.17-3.106-.152l-2.446 2.447c-1.015 1.012-.986 1.968.151 3.104l2.136 2.139c1.143 1.14 2.095 1.168 3.112.154l2.446-2.448z"/><path fill="#fff" d="m63.61 77.106-2.446 2.448c-1.017 1.014-1.969.987-3.112-.154l-2.136-2.14c-1.137-1.135-1.166-2.091-.15-3.102l2.445-2.448c1.017-1.017 1.964-.986 3.106.153l2.137 2.139c1.138 1.134 1.17 2.09.156 3.104m2.68 2.588c2.518-2.526 2.567-5.554-.267-8.382l-2.152-2.155c-.739-.737-1.367-1.126-1.877-1.234l1.876-1.871c.94-.943.817-1.984.094-2.708-.724-.722-1.784-.86-2.726.077l-8.153 8.149c-2.52 2.526-2.565 5.553.265 8.38l2.016 2.016c2.828 2.832 5.857 2.786 8.377.262l2.546-2.534zM76.345 89.84l-2.444 2.45c-1.018 1.014-1.97.984-3.108-.157l-2.139-2.138c-1.136-1.136-1.169-2.092-.15-3.104l2.442-2.447c1.017-1.018 1.967-.986 3.108.154l2.138 2.138c1.134 1.136 1.167 2.095.153 3.105m2.677 2.585c2.521-2.523 2.566-5.552-.266-8.383l-2.013-2.017c-2.828-2.83-5.86-2.785-8.38-.256l-2.542 2.535c-2.519 2.524-2.566 5.55.267 8.38l2.013 2.016c2.828 2.83 5.862 2.786 8.38.262l2.541-2.537zm-22.842-28.56c.94-.942.802-1.998.076-2.724-.723-.723-1.77-.849-2.708.094l-5.35 5.35c-1.014 1.017-1.97.984-3.107-.156l-2.138-2.136c-1.14-1.138-1.17-2.093-.157-3.105l5.35-5.355c.943-.936.818-1.985.097-2.71-.725-.72-1.78-.862-2.725.08l-5.396 5.401c-2.524 2.523-2.569 5.554.261 8.384l2.017 2.013c2.832 2.83 5.857 2.783 8.38.26l5.4-5.397z"/></g></svg>