<?xml version="1.0" encoding="utf-8"?>
<svg version="1.1" id="Laag_1" xmlns="http://www.w3.org/2000/svg" xmlns:xlink="http://www.w3.org/1999/xlink" x="0px" y="0px"
	 viewBox="0 0 283.5 59.7" style="enable-background:new 0 0 283.5 59.7;" xml:space="preserve">
<style type="text/css">
	.st0{fill:#0E1D61;}
	.st1{fill:#B4BD00;}
	.st2{fill:#E5E8F3;}
	.st3{fill:#A3BDDB;}
	.st4{fill:#FFFFFF;}
</style>
<path class="st0" d="M84.8,38.6l-0.1,0.1c-2.3,0-2.9,0-5,0.1l-0.1-0.1l1.2-4.6l0.7-3c1.1-4.7,1.3-5.7,2.1-9.4l0.1-0.1l2.4,0l2.5-0.1
	c1.5,0,3,0,4.2,0.3c2.7,0.7,3.3,2.9,3.3,4.6c0,2.1-1,3.8-1.5,4.4c-1.9,2.3-4.8,2.4-7.8,2.5H86L85.6,35L84.8,38.6z M86.9,29.6h0.5
	c0.8,0,1.6,0,2.3-0.4c0.9-0.5,1.4-1.5,1.4-2.6c0-0.9-0.6-1.3-0.7-1.4C89.8,25,89.2,25,88.5,25H88l-0.3,1.4L86.9,29.6z"/>
<path class="st0" d="M122.3,38.6l-0.2,0.1l-4.8,0.1l-0.1-0.2l0.9-4l0.5-2.4c0.1-0.5,0.3-1.7,0.3-2.1c0-0.8-0.5-1.1-1-1.1
	c-0.4,0-0.9,0.2-1.3,0.4c-1,4.4-1.3,5.9-1.9,9l-0.1,0.1l-4.9,0.1l-0.1-0.2l1-4.2l0.4-1.5c0.7-3.2,0.8-3.9,1.1-6.6l0.2-0.2
	c2.1-0.3,2.7-0.4,5-0.8l0.1,0.2l-0.3,1.4c0.5-0.4,1.9-1.4,3.8-1.4c0.9,0,3.3,0.3,3.3,3.2c0,1.2-0.6,3.7-1,5.3l-0.3,1.7L122.3,38.6z"
	/>
<path class="st0" d="M139.4,30c-1,4-1.1,4.9-1.8,8.6l-0.2,0.1l-4.5,0.1l-0.1-0.1l0.2-1.1c-0.7,0.6-1.7,1.5-3.5,1.5
	c-0.8,0-1.6-0.2-2.3-0.7c-0.8-0.6-1.8-1.6-1.8-4.2c0-2.2,0.9-4.3,1.7-5.4c2.3-3.2,5.6-3.1,8.5-3.1l0.6-2.6l0.6-2.8l0.2-0.2l5-0.9
	l0.1,0.2l-1,4L139.4,30z M134.8,28.9c-0.8,0-1.8-0.1-2.7,0.7c-1,0.9-1.6,2.7-1.6,4.2c0,1.4,0.7,2,1.5,2c0.5,0,0.9-0.2,1.3-0.5
	L134.8,28.9z"/>
<path class="st0" d="M159.5,38.6l-0.2,0.1l-5,0.1l-0.1-0.2l0.9-3.6l0.5-2c0.8-3.1,0.9-3.8,1.3-6.8l0.2-0.2c2.4-0.3,2.9-0.4,5.2-0.8
	l0.1,0.2l-0.8,3.1c1.3-2.8,2.9-3.1,3.7-3.1c0.5,0,0.9,0.1,1.2,0.3l0.1,0.2l-2.1,4.8l-0.2,0c-0.4-0.3-0.7-0.7-1.3-0.7
	c-0.4,0-0.8,0.2-1.1,0.4c-0.7,0.5-0.9,1.2-1.4,3.4l-0.5,2.5L159.5,38.6z"/>
<path class="st0" d="M165,37.6l0.9-3.1l0.2-0.1c0.4,0.4,1.4,1.6,3.3,1.6c0.8,0,1.7-0.2,1.7-1c0-0.7-0.6-1-1.5-1.4l-0.5-0.3
	c-1.1-0.6-2.4-1.3-2.4-3.4c0-1.1,0.4-2.1,1.2-3c0.9-1,2.4-1.6,4.7-1.6c2,0,3,0.4,4.3,1l0.1,0.2c-0.4,1.3-0.5,1.7-0.9,3.1l-0.2,0.1
	c-0.2-0.2-0.4-0.5-0.6-0.7c-0.6-0.5-1.5-0.8-2.2-0.8c-1.2,0-1.5,0.6-1.5,0.9c0,0.5,0.6,0.9,1.2,1.1l0.5,0.2c1.4,0.7,2.9,1.6,2.9,3.8
	c0,1.4-0.7,2.4-1.1,2.8c-1.6,1.8-4.1,1.9-5.1,1.9c-2.8,0-4.1-0.8-4.9-1.2L165,37.6z"/>
<path class="st1" d="M188.5,38.6l-0.2,0.1l-5.5,0.1l-0.1-0.1l-0.3-4.3l-0.8-8.5l-0.4-4.1l0.2-0.1c2.2,0,2.7,0,5.1-0.2l0.2,0.2l0.1,6
	l0.2,6.2l1.8-4.1l1.7-3.8c0.9-2,1.1-2.5,1.8-4.2l0.2-0.1c2,0,2.4,0,4.5-0.1l0.1,0.2c-0.2,0.4-0.4,0.8-0.6,1.1c-0.6,1.1-1.4,2.9-2,4
	l-3.7,7.3L188.5,38.6z"/>
<path class="st1" d="M206.3,36.1c-1.9,3-5.2,3-6.3,3c-3.6,0-5.9-1.8-5.9-5.4c0-2,0.7-4.3,2-5.9c1.7-2,4-2.3,5.6-2.3
	c1.7,0,2.9,0.4,3.5,0.7c2.4,1.3,2.4,4.1,2.4,4.6c0,0.9-0.1,1.7-0.3,2.6C207.2,34.4,206.7,35.4,206.3,36.1z M202.8,30
	c0-1-0.4-1.6-1.1-1.6c-1,0-1.4,1-1.6,1.2c-0.6,1.2-1,3.6-1,4.6c0,0.4,0,1.7,1.1,1.7c1.3,0,2-1.7,2.3-3.7
	C202.8,31.1,202.8,30.2,202.8,30z"/>
<path class="st1" d="M229.3,38.4l-0.2,0.2c-1,0.2-1.6,0.3-2.6,0.3c-0.9,0-4.1,0-4.1-2.9c0-1,0.4-2.7,0.7-3.9l0.8-3.4l-1.6,0
	l-0.2-0.2l0.8-3l0.2-0.1h1.5l0.7-3.2l0.2-0.2c2.2-0.5,2.8-0.7,4.8-1.3l0.1,0.1l-0.5,2.1l-0.6,2.4l2.4,0l0.1,0.2
	c-0.5,1.3-0.5,1.6-0.9,2.9l-0.2,0.2l-2.1,0l-0.9,3.6c-0.1,0.5-0.2,1-0.3,1.5c-0.1,0.2-0.1,0.5-0.1,0.7c0,0.8,0.7,1,1.1,1
	c0.6,0,1-0.1,1.3-0.3l0.2,0.1L229.3,38.4z"/>
<path class="st1" d="M242.9,35.4c-0.2,0.5-0.3,1-0.5,1.5c-0.2,0.5-0.3,1-0.5,1.5l-0.2,0.1h-3.3h-2.9c-2,0-3,0-4.8,0.1l-0.1-0.2
	l2.6-3.7l1.4-2.1c1.7-2.6,1.9-2.8,2.5-3.8h-2.4l-1.8,0l-0.1-0.2l1-3l0.2-0.1c1.4,0,2.9,0,4.3,0c2.2,0,3.8,0,6.2-0.1l0.1,0.3
	c-1,1.3-1.9,2.7-2.9,4c-1.1,1.6-2.8,4.1-3.9,5.7l4.7-0.1L242.9,35.4z"/>
<path class="st1" d="M256.2,35.8c-1.9,3-5.2,3-6.3,3c-3.6,0-5.9-1.8-5.9-5.4c0-2,0.7-4.3,2-5.9c1.7-2,4-2.3,5.6-2.3
	c1.7,0,2.9,0.4,3.5,0.7c2.4,1.3,2.4,4.1,2.4,4.6c0,0.9-0.1,1.7-0.3,2.6C257,34.2,256.6,35.2,256.2,35.8z M252.7,29.8
	c0-1-0.4-1.6-1.1-1.6c-1,0-1.4,1-1.6,1.2c-0.6,1.2-1,3.6-1,4.6c0,0.4,0,1.7,1.1,1.7c1.3,0,2-1.7,2.3-3.7
	C252.7,30.9,252.7,29.9,252.7,29.8z"/>
<path class="st1" d="M262.8,38.4l-0.2,0.1l-5,0.1l-0.1-0.2l0.9-3.6l0.5-2c0.8-3.1,0.9-3.8,1.3-6.8l0.2-0.2c2.4-0.3,2.9-0.4,5.2-0.8
	l0.1,0.2l-0.8,3.1c1.3-2.8,2.9-3.1,3.7-3.1c0.5,0,0.9,0.1,1.2,0.3l0.1,0.2l-2.1,4.8l-0.2,0c-0.4-0.3-0.7-0.7-1.3-0.7
	c-0.4,0-0.8,0.2-1.1,0.4c-0.7,0.5-0.9,1.2-1.4,3.4l-0.5,2.5L262.8,38.4z"/>
<path class="st1" d="M283.5,25.6c-0.8,3-1,3.9-1.8,7.4l-0.8,3.4c-0.8,3.6-1.1,5.4-2.9,6.8c-0.9,0.8-2.6,1.6-5.5,1.6
	c-1,0-2-0.1-3.1-0.4c-1.1-0.3-1.6-0.6-2.3-1.1l-0.1-0.2l1.3-3.2l0.3,0c0.7,0.7,1.6,1.6,3.5,1.6c1.1,0,2.1-0.5,2.5-1.1
	c0.4-0.5,0.6-1.3,0.8-1.9l0.1-0.6c-1,0.5-1.8,1-3.1,1c-3.1,0-4.2-2.4-4.2-4.6c0-1.8,0.6-3.9,1.6-5.4c2.1-3.2,5.3-3.3,8.4-3.3l5,0
	L283.5,25.6z M277.4,28.7c-0.8,0-1.8,0-2.6,0.9c-0.8,0.8-1.2,2.5-1.2,3.7c0,0.3,0,0.6,0.1,0.9c0.3,1.3,1.4,1.3,1.5,1.3
	c0.5,0,0.9-0.3,1.2-0.5l1.5-6.4H277.4z"/>
<path class="st0" d="M108.1,34.6c-0.2,0.6-0.3,1.2-0.5,1.9c-0.1,0.6-0.3,1.2-0.4,1.7l-0.1,0.1c-0.2,0.1-0.4,0.2-0.7,0.3
	c-0.5,0.2-1.9,0.5-3.5,0.5c-1.8,0-3.1-0.4-3.9-0.8c-1-0.5-1.8-1.4-2.2-2.4c-0.5-1.1-0.5-2.4-0.5-2.9c0-4.6,3.1-7.5,7.2-7.5
	c3.3,0,5.6,1.6,5.6,5.3c0,0.9-0.1,1.3-0.2,2.1l-7.9,1c0.1,0.8,0.3,1.8,3,1.8c2.1,0,3-0.6,4-1.2L108.1,34.6z M104.7,30.6
	c0.1-0.3,0.1-0.6,0.1-0.9c0-1.1-0.9-1.4-1.5-1.4c-0.3,0-0.7,0.1-1,0.3c-0.8,0.5-1,1.9-1.2,2.5L104.7,30.6z"/>
<path class="st0" d="M152.8,34.6c-0.2,0.6-0.3,1.2-0.5,1.9c-0.1,0.6-0.3,1.2-0.4,1.7l-0.1,0.1c-0.2,0.1-0.4,0.2-0.7,0.3
	c-0.5,0.2-1.9,0.5-3.5,0.5c-1.8,0-3.1-0.4-3.9-0.8c-0.9-0.5-1.8-1.4-2.2-2.4c-0.5-1.1-0.5-2.4-0.5-2.9c0-4.6,3.1-7.5,7.2-7.5
	c3.3,0,5.6,1.6,5.6,5.3c0,0.9-0.1,1.3-0.2,2.1l-7.9,1c0.1,0.8,0.3,1.8,3,1.8c2,0,3-0.6,4-1.2L152.8,34.6z M149.4,30.6
	c0.1-0.3,0.1-0.6,0.1-0.9c0-1.1-0.9-1.4-1.5-1.4c-0.3,0-0.7,0.1-1,0.3c-0.8,0.5-1,1.9-1.2,2.5L149.4,30.6z"/>
<path class="st1" d="M220.4,34.3c-0.2,0.6-0.3,1.2-0.5,1.9c-0.1,0.6-0.3,1.2-0.4,1.7l-0.1,0.1c-0.2,0.1-0.4,0.2-0.7,0.3
	c-0.5,0.2-1.9,0.5-3.5,0.5c-1.8,0-3.1-0.4-3.9-0.8c-0.9-0.5-1.8-1.4-2.2-2.4c-0.5-1.1-0.5-2.4-0.5-2.9c0-4.6,3.1-7.5,7.2-7.5
	c3.3,0,5.6,1.6,5.6,5.3c0,0.9-0.1,1.3-0.2,2.1l-7.9,1c0.1,0.8,0.3,1.8,3,1.8c2,0,3-0.6,4-1.2L220.4,34.3z M217.1,30.3
	c0-0.3,0.1-0.6,0.1-0.9c0-1.1-0.9-1.4-1.5-1.4c-0.3,0-0.7,0.1-1,0.3c-0.8,0.5-1,1.9-1.2,2.5L217.1,30.3z"/>
<path class="st2" d="M61.1,8.5c9.3,11.5,4.2,30.4-11.3,42.2C34.2,62.5,14,62.8,4.7,51.3C-4.7,39.8,0.4,20.9,16,9
	C31.6-2.8,51.8-3,61.1,8.5"/>
<path class="st3" d="M56,11c7.2,9.2,3.3,24.2-8.7,33.6c-12,9.4-27.6,9.6-34.7,0.5c-7.2-9.2-3.3-24.2,8.7-33.6C33.3,2,48.8,1.8,56,11
	"/>
<path class="st4" d="M27.4,12.6c-4.7,0-6.4,5.9-6.4,10.9c0,1.6,1.3,3,2.4,4c1.2,1.1,6.1,4.2,6.2,4.3c-3.6-0.4-6.1-1.2-8-2
	c-0.9-0.4-0.8,0.6-0.8,1.6c0.3,6.8,3.1,11,7.1,11c4.1,0,9.1-7.9,10.3-14.5C39.8,18.5,32,12.6,27.4,12.6"/>
<path class="st4" d="M50.6,13.9c-2-1-7.2,6.5-9.2,10.7c0,0-0.4,2.2-0.4,2.2c0,0-1-7.5-1.7-9.2c1.5,15.2-3.1,20.9-5.8,28.2
	c0,0,4.3-6.7,5.9-13.2c-0.9,3.7-0.8,6.8,0.1,7.2c1.9,0.9,5.2-2.8,7.1-7.7c0.3-0.7,0.7-1.8,1-3.1c-0.8,0.5-2.8,1.6-3.7,1.7
	c0.1-0.1,4.2-3.7,5.6-5.9C52.1,20.9,52.8,15,50.6,13.9"/>
</svg>
