<?xml version="1.0" encoding="UTF-8"?> <svg xmlns="http://www.w3.org/2000/svg" xmlns:xlink="http://www.w3.org/1999/xlink" width="140px" height="41px" viewBox="0 0 140 41" version="1.1"><title>Tintelingen-fc</title><defs><polygon id="path-1" points="0 0 14.943 0 14.943 25.431 0 25.431"></polygon><polygon id="path-3" points="8.8817842e-16 0 106.456 0 106.456 40.308 8.8817842e-16 40.308"></polygon><polygon id="path-5" points="7.10542736e-15 0 21.066 0 21.066 7.056 7.10542736e-15 7.056"></polygon></defs><g id="Page-1" stroke="none" stroke-width="1" fill="none" fill-rule="evenodd"><g id="Artboard" transform="translate(-180.000000, -167.000000)"><g id="Tintelingen-fc" transform="translate(180.000000, 167.000000)"><path d="M138.186,9.114 C137.161,7.614 135.652,6.864 133.664,6.864 C132.572,6.864 131.622,7.099 130.812,7.567 L130.812,6.863 L127.827,6.863 L127.827,25.878 L130.812,25.878 L130.812,13.875 C130.812,11.198 131.761,9.859 133.664,9.859 C135.544,9.859 136.485,11.198 136.485,13.875 L136.485,25.878 L139.468,25.878 L139.468,13.872 C139.468,11.945 139.041,10.358 138.186,9.114" id="Fill-1" fill="#D8232A"></path><path d="M120.866,18.111 L115.928,18.111 L115.928,19.141 C115.928,21.823 116.869,23.165 118.748,23.165 C119.519,23.165 120.319,22.747 121.153,21.913 L123.301,24.003 C121.825,25.438 120.307,26.159 118.746,26.159 C116.781,26.159 115.284,25.408 114.259,23.908 C113.381,22.665 112.943,21.087 112.943,19.179 L112.943,13.873 C112.943,11.945 113.371,10.358 114.227,9.115 C115.253,7.614 116.76,6.864 118.747,6.864 C120.736,6.864 122.244,7.604 123.27,9.083 C124.145,10.324 124.584,11.911 124.584,13.837 C124.584,14.993 124.296,15.97 123.719,16.761 C123.056,17.662 122.106,18.111 120.866,18.111 M118.747,9.859 C116.868,9.859 115.928,11.197 115.928,13.87 L115.928,15.155 L120.864,15.155 C121.354,15.155 121.6,14.717 121.6,13.838 C121.6,11.187 120.649,9.859 118.747,9.859" id="Fill-2" fill="#D8232A"></path><path d="M92.594,9.114 C91.567,7.614 90.059,6.864 88.072,6.864 C86.979,6.864 86.03,7.099 85.22,7.567 L85.22,6.863 L82.234,6.863 L82.234,25.878 L85.22,25.878 L85.22,13.875 C85.22,11.198 86.171,9.859 88.072,9.859 C89.95,9.859 90.891,11.198 90.891,13.875 L90.891,25.878 L93.875,25.878 L93.875,13.872 C93.875,11.945 93.447,10.358 92.594,9.114" id="Fill-3" fill="#D8232A"></path><path d="M54.998,18.111 L50.06,18.111 L50.06,19.141 C50.06,21.823 51.001,23.165 52.881,23.165 C53.65,23.165 54.451,22.747 55.286,21.913 L57.432,24.003 C55.958,25.438 54.44,26.159 52.88,26.159 C50.913,26.159 49.415,25.408 48.39,23.908 C47.513,22.665 47.075,21.087 47.075,19.179 L47.075,13.873 C47.075,11.945 47.504,10.358 48.359,9.115 C49.385,7.614 50.892,6.864 52.88,6.864 C54.869,6.864 56.375,7.604 57.402,9.083 C58.278,10.324 58.717,11.911 58.717,13.837 C58.717,14.993 58.428,15.97 57.851,16.761 C57.189,17.662 56.238,18.111 54.998,18.111 M52.88,9.859 C51.001,9.859 50.06,11.197 50.06,13.87 L50.06,15.155 L54.995,15.155 C55.486,15.155 55.731,14.717 55.731,13.838 C55.731,11.187 54.782,9.859 52.88,9.859" id="Fill-4" fill="#D8232A"></path><polygon id="Fill-5" fill="#D8232A" points="74.345 25.879 77.328 25.879 77.328 6.873 74.345 6.873"></polygon><path d="M43.323,22.674 C42.881,22.925 42.455,23.051 42.045,23.051 C40.144,23.051 39.193,21.71 39.193,19.031 L39.193,9.857 L43.004,9.857 L43.004,6.861 L39.193,6.861 L39.193,0.615 L36.207,0.615 L36.207,19.035 C36.207,20.963 36.647,22.55 37.522,23.794 C38.548,25.295 40.055,26.046 42.044,26.046 C43.203,26.046 44.343,25.636 45.465,24.822 L43.323,22.674" id="Fill-6" fill="#D8232A"></path><path d="M30.207,9.114 C29.182,7.614 27.674,6.864 25.686,6.864 C24.593,6.864 23.643,7.099 22.834,7.567 L22.834,6.863 L19.849,6.863 L19.849,25.878 L22.834,25.878 L22.834,13.875 C22.834,11.198 23.783,9.859 25.686,9.859 C27.564,9.859 28.505,11.198 28.505,13.875 L28.505,25.878 L31.49,25.878 L31.49,13.872 C31.49,11.945 31.062,10.358 30.207,9.114" id="Fill-7" fill="#D8232A"></path><g id="Group-11" transform="translate(0.000000, 0.615000)"><mask id="mask-2" fill="white"><use xlink:href="#path-1"></use></mask><g id="Clip-9"></g><polygon id="Fill-8" fill="#D8232A" mask="url(#mask-2)" points="11.958 25.264 14.943 25.264 14.943 6.258 11.958 6.258"></polygon><path d="M7.056,22.059 C6.614,22.31 6.188,22.436 5.778,22.436 C3.876,22.436 2.925,21.095 2.925,18.416 L2.925,9.242 L6.736,9.242 L6.736,6.246 L2.925,6.246 L2.925,0 L-0.06,0 L-0.06,18.42 C-0.06,20.348 0.378,21.935 1.254,23.179 C2.28,24.68 3.788,25.431 5.777,25.431 C6.936,25.431 8.076,25.021 9.198,24.207 L7.056,22.059" id="Fill-10" fill="#D8232A" mask="url(#mask-2)"></path></g><path d="M68.166,23.051 C66.264,23.051 65.313,21.711 65.313,19.03 L65.313,0.614 L62.327,0.614 L62.327,19.034 C62.327,20.964 62.766,22.55 63.643,23.794 C64.668,25.295 66.175,26.045 68.163,26.045 C69.323,26.045 70.463,25.637 71.585,24.821 L69.444,22.674 C69.001,22.925 68.575,23.051 68.166,23.051" id="Fill-12" fill="#D8232A"></path><g id="Group-25" transform="translate(2.858000, 0.000000)"><mask id="mask-4" fill="white"><use xlink:href="#path-3"></use></mask><g id="Clip-14"></g><path d="M105.14,9.15 C104.116,7.672 102.608,6.932 100.62,6.932 C98.63,6.932 97.122,7.683 96.097,9.183 C95.242,10.427 94.815,12.013 94.815,13.942 L94.815,19.248 C94.815,21.155 95.253,22.742 96.13,24.007 C97.155,25.485 98.652,26.227 100.62,26.227 C101.717,26.227 102.667,26 103.471,25.548 L103.471,30.557 C103.471,33.237 102.52,34.578 100.618,34.578 C100.209,34.578 99.782,34.45 99.34,34.199 L97.2,36.348 C98.321,37.165 99.46,37.571 100.621,37.571 C102.609,37.571 104.116,36.82 105.142,35.32 C106.018,34.076 106.456,32.49 106.456,30.56 L106.456,13.942 C106.456,12.013 106.018,10.416 105.14,9.15 M103.471,19.214 C103.471,21.893 102.52,23.231 100.62,23.231 C98.739,23.231 97.799,21.893 97.799,19.214 L97.799,13.944 C97.799,11.266 98.739,9.928 100.62,9.928 C102.52,9.928 103.471,11.266 103.471,13.944 L103.471,19.214" id="Fill-13" fill="#D8232A" mask="url(#mask-4)"></path><path d="M12.65,2.073 C12.65,3.217 11.725,4.144 10.584,4.144 C9.444,4.144 8.519,3.217 8.519,2.073 C8.519,0.927 9.444,0 10.584,0 C11.725,0 12.65,0.927 12.65,2.073" id="Fill-15" fill="#D8232A" mask="url(#mask-4)"></path><path d="M75.016,2.073 C75.016,3.217 74.091,4.144 72.951,4.144 C71.809,4.144 70.885,3.217 70.885,2.073 C70.885,0.927 71.809,0 72.951,0 C74.091,0 75.016,0.927 75.016,2.073" id="Fill-16" fill="#D8232A" mask="url(#mask-4)"></path><path d="M13.695,39.092 C13.54,39.185 13.39,39.23 13.249,39.23 C12.584,39.23 12.251,38.74 12.251,37.761 L12.251,34.407 L13.582,34.407 L13.582,33.31 L12.251,33.31 L12.251,31.352 L11.21,31.352 L11.21,37.762 C11.21,38.468 11.364,39.048 11.67,39.502 C12.027,40.051 12.553,40.326 13.248,40.326 C13.651,40.326 14.051,40.175 14.442,39.878 L13.695,39.092" id="Fill-17" fill="#EA8A2D" mask="url(#mask-4)"></path><path d="M3.021,40.263 L3.021,35.798 C3.021,34.82 2.694,34.328 2.037,34.328 C1.373,34.328 1.041,34.82 1.041,35.798 L1.041,40.263 L8.8817842e-16,40.263 L8.8817842e-16,30.66 L1.041,30.66 L1.041,33.498 C1.324,33.323 1.655,33.235 2.038,33.235 C2.73,33.235 3.256,33.508 3.614,34.06 C3.912,34.512 4.061,35.091 4.061,35.798 L4.061,40.263 L3.021,40.263" id="Fill-18" fill="#EA8A2D" mask="url(#mask-4)"></path><path d="M8.587,37.428 L6.863,37.428 L6.863,37.804 C6.863,38.784 7.192,39.273 7.849,39.273 C8.117,39.273 8.398,39.121 8.689,38.819 L9.438,39.58 C8.923,40.104 8.394,40.368 7.849,40.368 C7.162,40.368 6.642,40.093 6.283,39.544 C5.976,39.089 5.823,38.514 5.823,37.816 L5.823,35.875 C5.823,35.169 5.972,34.59 6.272,34.135 C6.629,33.586 7.154,33.311 7.849,33.311 C8.543,33.311 9.069,33.581 9.426,34.123 C9.732,34.578 9.885,35.158 9.885,35.862 C9.885,36.287 9.785,36.644 9.583,36.933 C9.352,37.263 9.021,37.428 8.587,37.428 M7.849,34.405 C7.192,34.405 6.863,34.896 6.863,35.873 L6.863,36.342 L8.587,36.342 C8.757,36.342 8.842,36.183 8.842,35.862 C8.842,34.889 8.512,34.405 7.849,34.405" id="Fill-19" fill="#EA8A2D" mask="url(#mask-4)"></path><path d="M39.022,39.092 C38.866,39.185 38.717,39.23 38.575,39.23 C37.91,39.23 37.578,38.74 37.578,37.761 L37.578,34.407 L38.909,34.407 L38.909,33.31 L37.578,33.31 L37.578,31.325 L36.538,31.325 L36.538,37.762 C36.538,38.468 36.689,39.048 36.996,39.502 C37.355,40.051 37.88,40.326 38.575,40.326 C38.979,40.326 39.377,40.175 39.769,39.878 L39.022,39.092" id="Fill-20" fill="#EA8A2D" mask="url(#mask-4)"></path><path d="M21.692,40.29 C21.004,40.29 20.483,40.021 20.125,39.48 C19.817,39.018 19.665,38.439 19.665,37.74 L19.665,30.632 L20.708,30.632 L20.708,33.497 C20.991,33.322 21.318,33.235 21.692,33.235 C22.385,33.235 22.911,33.504 23.268,34.047 C23.575,34.507 23.729,35.091 23.729,35.798 L23.729,37.74 C23.729,38.445 23.575,39.026 23.268,39.48 C22.911,40.021 22.385,40.29 21.692,40.29 M22.686,35.798 C22.686,34.82 22.354,34.328 21.692,34.328 C21.036,34.328 20.708,34.82 20.708,35.798 L20.708,37.729 C20.708,38.708 21.036,39.197 21.692,39.197 C22.354,39.197 22.686,38.708 22.686,37.729 L22.686,35.798" id="Fill-21" fill="#EA8A2D" mask="url(#mask-4)"></path><path d="M28.14,37.428 L26.417,37.428 L26.417,37.804 C26.417,38.784 26.744,39.273 27.402,39.273 C27.67,39.273 27.949,39.121 28.24,38.819 L28.99,39.58 C28.475,40.104 27.945,40.368 27.402,40.368 C26.715,40.368 26.193,40.093 25.834,39.544 C25.528,39.089 25.375,38.514 25.375,37.816 L25.375,35.875 C25.375,35.169 25.525,34.59 25.823,34.135 C26.18,33.586 26.706,33.311 27.402,33.311 C28.093,33.311 28.621,33.581 28.979,34.123 C29.284,34.578 29.437,35.158 29.437,35.862 C29.437,36.287 29.336,36.644 29.136,36.933 C28.904,37.263 28.572,37.428 28.14,37.428 M27.402,34.405 C26.744,34.405 26.417,34.896 26.417,35.873 L26.417,36.342 L28.139,36.342 C28.31,36.342 28.395,36.183 28.395,35.862 C28.395,34.889 28.064,34.405 27.402,34.405" id="Fill-22" fill="#EA8A2D" mask="url(#mask-4)"></path><path d="M31.943,37.851 C31.943,38.748 32.281,39.196 32.96,39.196 C33.489,39.196 33.756,38.892 33.756,38.281 C33.756,37.912 33.523,37.621 33.061,37.398 C32.239,36.998 31.807,36.784 31.762,36.752 C31.298,36.407 31.067,35.905 31.067,35.237 C31.067,34.651 31.227,34.17 31.549,33.802 C31.869,33.435 32.317,33.252 32.89,33.252 C33.518,33.252 34.066,33.509 34.535,34.027 L33.81,34.814 C33.519,34.497 33.206,34.336 32.872,34.336 C32.358,34.336 32.101,34.639 32.101,35.242 C32.101,35.611 32.332,35.909 32.795,36.136 C33.636,36.54 34.072,36.759 34.103,36.782 C34.565,37.125 34.797,37.627 34.797,38.285 C34.797,38.881 34.632,39.363 34.308,39.729 C33.985,40.098 33.535,40.283 32.959,40.283 C32.279,40.283 31.757,40.043 31.39,39.567 C31.07,39.136 30.908,38.545 30.908,37.851 L31.943,37.851" id="Fill-23" fill="#EA8A2D" mask="url(#mask-4)"></path><path d="M43.504,37.428 L41.781,37.428 L41.781,37.804 C41.781,38.784 42.108,39.273 42.765,39.273 C43.033,39.273 43.314,39.121 43.604,38.819 L44.353,39.58 C43.839,40.104 43.309,40.368 42.765,40.368 C42.079,40.368 41.556,40.093 41.2,39.544 C40.892,39.089 40.738,38.514 40.738,37.816 L40.738,35.875 C40.738,35.169 40.889,34.59 41.186,34.135 C41.544,33.586 42.071,33.311 42.765,33.311 C43.458,33.311 43.985,33.581 44.343,34.123 C44.647,34.578 44.8,35.158 44.8,35.862 C44.8,36.287 44.701,36.644 44.498,36.933 C44.268,37.263 43.936,37.428 43.504,37.428 M42.765,34.405 C42.108,34.405 41.781,34.896 41.781,35.873 L41.781,36.342 L43.503,36.342 C43.674,36.342 43.759,36.183 43.759,35.862 C43.759,34.889 43.428,34.405 42.765,34.405" id="Fill-24" fill="#EA8A2D" mask="url(#mask-4)"></path></g><path d="M81.607,39.441 C81.964,39.99 82.491,40.264 83.184,40.264 C83.567,40.264 83.897,40.177 84.18,40.006 L84.18,40.264 L85.222,40.264 L85.222,33.335 L84.18,33.335 L84.18,37.7 C84.18,38.679 83.847,39.168 83.184,39.168 C82.528,39.168 82.2,38.679 82.2,37.7 L82.2,33.335 L81.158,33.335 L81.158,37.701 C81.158,38.406 81.307,38.987 81.607,39.441" id="Fill-26" fill="#EA8A2D"></path><path d="M64.087,39.48 C63.781,39.025 63.627,38.444 63.627,37.741 L63.627,35.798 C63.627,35.091 63.781,34.509 64.087,34.046 C64.445,33.505 64.971,33.234 65.664,33.234 C66.037,33.234 66.366,33.323 66.65,33.498 L66.65,30.67 L67.691,30.67 L67.691,37.741 C67.691,38.438 67.537,39.018 67.232,39.48 C66.873,40.021 66.351,40.29 65.664,40.29 C64.971,40.29 64.445,40.021 64.087,39.48 M64.669,37.728 C64.669,38.708 65.001,39.196 65.664,39.196 C66.323,39.196 66.65,38.708 66.65,37.728 L66.65,35.798 C66.65,34.82 66.323,34.328 65.664,34.328 C65.001,34.328 64.669,34.82 64.669,35.798 L64.669,37.728" id="Fill-27" fill="#EA8A2D"></path><path d="M61.801,35.794 C61.801,35.096 61.648,34.519 61.342,34.065 C60.984,33.516 60.461,33.242 59.776,33.242 C59.231,33.242 58.701,33.504 58.185,34.029 L58.936,34.79 C59.225,34.487 59.507,34.335 59.776,34.335 C60.335,34.335 60.655,34.692 60.738,35.406 C60.459,35.241 60.139,35.157 59.776,35.157 C59.081,35.157 58.556,35.428 58.197,35.967 C57.892,36.432 57.739,37.016 57.739,37.721 L57.739,37.746 C57.739,38.452 57.892,39.034 58.197,39.485 C58.556,40.027 59.081,40.298 59.776,40.298 C59.785,40.298 59.795,40.296 59.804,40.296 C59.881,40.295 59.953,40.295 60.026,40.283 C60.597,40.226 61.039,39.955 61.353,39.475 C61.535,39.196 61.662,38.87 61.733,38.498 C61.733,38.493 61.734,38.487 61.735,38.481 C61.743,38.449 61.746,38.418 61.751,38.385 C61.783,38.186 61.801,37.975 61.801,37.754 L61.801,35.794 Z M60.76,37.734 C60.76,38.713 60.431,39.203 59.776,39.203 L59.762,39.203 C59.108,39.197 58.78,38.708 58.78,37.734 L58.78,37.721 C58.78,36.741 59.112,36.252 59.776,36.252 C60.431,36.252 60.76,36.741 60.76,37.721 L60.76,37.734 L60.76,37.734 Z" id="Fill-28" fill="#EA8A2D"></path><path d="M79.333,35.794 C79.333,35.096 79.18,34.519 78.874,34.065 C78.516,33.516 77.994,33.242 77.307,33.242 C76.763,33.242 76.233,33.504 75.717,34.029 L76.467,34.79 C76.76,34.487 77.039,34.335 77.307,34.335 C77.867,34.335 78.187,34.692 78.268,35.406 C77.992,35.241 77.669,35.157 77.307,35.157 C76.614,35.157 76.088,35.428 75.73,35.967 C75.425,36.432 75.272,37.016 75.272,37.721 L75.272,37.746 C75.272,38.452 75.425,39.034 75.73,39.485 C76.088,40.027 76.614,40.298 77.308,40.298 C77.318,40.298 77.327,40.296 77.335,40.296 C77.412,40.295 77.485,40.295 77.556,40.283 C78.129,40.226 78.571,39.955 78.885,39.475 C79.067,39.196 79.195,38.87 79.264,38.498 C79.267,38.493 79.267,38.487 79.268,38.481 C79.274,38.449 79.278,38.418 79.284,38.385 C79.313,38.186 79.333,37.975 79.333,37.754 L79.333,35.794 Z M78.291,37.734 C78.291,38.713 77.963,39.203 77.308,39.203 L77.293,39.203 C76.64,39.197 76.311,38.708 76.311,37.734 L76.311,37.721 C76.311,36.741 76.643,36.252 77.308,36.252 C77.963,36.252 78.291,36.741 78.291,37.721 L78.291,37.734 L78.291,37.734 Z" id="Fill-29" fill="#EA8A2D"></path><g id="Group-33" transform="translate(52.516000, 33.252000)"><mask id="mask-6" fill="white"><use xlink:href="#path-5"></use></mask><g id="Clip-31"></g><path d="M2.037,7.038 C1.342,7.038 0.817,6.764 0.459,6.215 C0.152,5.761 7.10542736e-15,5.181 7.10542736e-15,4.479 L7.10542736e-15,2.549 C7.10542736e-15,1.835 0.156,1.253 0.47,0.798 C0.836,0.267 1.366,0 2.06,0 C2.582,0 3.099,0.261 3.615,0.787 L2.877,1.549 C2.577,1.246 2.299,1.093 2.037,1.093 C1.374,1.093 1.041,1.58 1.041,2.549 L1.041,4.479 C1.041,5.456 1.374,5.945 2.037,5.945 C2.299,5.945 2.577,5.793 2.877,5.488 L3.615,6.251 C3.099,6.777 2.573,7.038 2.037,7.038" id="Fill-30" fill="#EA8A2D" mask="url(#mask-6)"></path><path d="M19.767,4.176 L18.044,4.176 L18.044,4.552 C18.044,5.532 18.371,6.021 19.029,6.021 C19.298,6.021 19.576,5.869 19.869,5.567 L20.618,6.328 C20.103,6.852 19.574,7.116 19.029,7.116 C18.344,7.116 17.82,6.841 17.462,6.292 C17.155,5.837 17.002,5.262 17.002,4.564 L17.002,2.623 C17.002,1.917 17.152,1.338 17.45,0.883 C17.808,0.334 18.334,0.059 19.029,0.059 C19.723,0.059 20.247,0.329 20.605,0.871 C20.912,1.326 21.066,1.906 21.066,2.61 C21.066,3.035 20.964,3.392 20.763,3.681 C20.531,4.011 20.2,4.176 19.767,4.176 M19.029,1.153 C18.371,1.153 18.044,1.644 18.044,2.621 L18.044,3.09 L19.766,3.09 C19.938,3.09 20.022,2.931 20.022,2.61 C20.022,1.637 19.692,1.153 19.029,1.153" id="Fill-32" fill="#EA8A2D" mask="url(#mask-6)"></path></g></g></g></g></svg> 