<?xml version="1.0" standalone="no"?>
<svg version="1.1" id="Layer_1" xmlns="http://www.w3.org/2000/svg" xmlns:xlink="http://www.w3.org/1999/xlink" x="0px" y="0px" width="595.28px" height="595.28px" viewBox="0 0 595.28 595.28" enable-background="new 0 0 595.28 595.28" xml:space="preserve">
<path id="color_x5F_7" fill="#875b12" d="M431.428,242.125c-1.001,3.332-2.165,3.249-2.886,4.727c0,0,0.197-7.854-1.904-9.077
	c-1.155-0.673-2.287,3.662-2.48,4.445c-0.019,0.077-0.032,0.132-0.032,0.132s-0.01-0.055-0.023-0.132
	c-0.066-0.382-0.264-1.589-0.264-2.479c0-1.068-0.054-2.851-2.414-5.454c-0.31-0.342-0.522-0.739-0.667-1.168h-12.875h-0.003
	c0,0-0.485-3.011,1.365-6.128c2.204-3.711,13.704-6.587,19.738-1.87c1.275,0.997,1.702,1.686,1.748,2.159
	c0.369,0.518,0.72,1.12,1.047,1.846C431.779,229.126,433.528,235.14,431.428,242.125z M410.714,432.353l-0.509,0.47l-11.994,11.067
	h14.547l-1.625-9.169L410.714,432.353z M444.722,432.353l-0.217,0.2l-1.643,1.515l-10.644,9.822h14.547L444.722,432.353z"></path>
<path id="color_x5F_6" fill="#000000" d="M448.479,410.086c-0.136,9.121-2.535,17.956-3.974,22.467l-1.643,1.515
	c-3.497-9.668-21.896-60.803-24.725-74.232c-1.937,11.467-3.325,25.918-3.99,33.657c1.934,3.728,3.168,8.955,2.729,16.313
	c-0.626,10.507-4.533,21.669-5.744,24.914l-0.419-2.368l-0.509,0.47c-2.522-12.612-12.521-63.67-11.936-77.719
	c0.116-2.778,0.317-5.748,0.568-8.75c0-0.002,0.001-0.003,0.002-0.005c1.82-4.42,2.83-9.27,2.83-14.35
	c0-2.154-0.179-4.268-0.538-6.333c0.066-0.493,0.129-0.963,0.19-1.417l0.439,2.512h37.804l0.163-0.93
	c1.497,5.472,2.375,11.382,1.354,16.296c-2.125,10.247,1.198,39.402,2.622,50.725C446.543,396.403,448.603,401.815,448.479,410.086z
	 M418.565,239.738c0.381,0.042,0.733-0.434,0.795-1.057c0.062-0.626-0.201-1.166-0.58-1.208c-0.381-0.042-0.735,0.432-0.795,1.055
	C417.926,239.157,418.188,239.697,418.565,239.738z M410.649,239.738c0.382,0.042,0.734-0.434,0.796-1.057
	c0.062-0.626-0.201-1.166-0.58-1.208c-0.381-0.042-0.735,0.432-0.795,1.055C410.01,239.157,410.272,239.697,410.649,239.738z"></path>
<path id="color_x5F_5" fill="#FFD2BB" d="M387.3,302.388c-2.24-1.76-4.69-3.28-7.31-4.5c-0.003-0.001-0.006-0.002-0.009-0.004
	c-4.848-2.278-10.265-3.556-15.981-3.556c-2.11,0-4.18,0.17-6.2,0.51c-0.002,0-0.004,0.001-0.005,0.001
	c-0.014,0-0.028,0.002-0.042,0.007c-0.004,0.001-0.008,0-0.012,0.002c-1.94,0.32-3.83,0.8-5.66,1.41
	c-0.001,0-0.003,0.001-0.005,0.002c-2.586-0.708-4.492-3.091-4.492-5.928c0-3.395,2.724-6.147,6.083-6.147
	c2.566,0,4.757,1.608,5.651,3.879c3.216,0.166,6.585,0.807,6.585,0.807s10.131,0.865,15.074,2.244c0.897,0.25,1.625,0.518,2.089,0.8
	c3.694,2.25,4.733,7.381,4.237,10.478C387.302,302.39,387.301,302.389,387.3,302.388z M428.542,246.852
	c-0.127,0.262-0.267,0.516-0.414,0.766v2.03v10.608h-0.268c-1.013,2.205-2.941,3.941-5.772,4.401c-0.48,0.078-0.979,0.13-1.511,0.13
	c-2.795,0-4.863-1.134-6.216-2.811c-0.425-0.527-0.784-1.104-1.067-1.72h-0.382v-7.333c-1.816-0.316-3.02-1.206-3.801-2.515
	c-1.217-2.038-1.438-5.068-1.438-8.461v-6.685c0-0.734,0.075-1.45,0.209-2.144h12.875c0.144,0.429,0.357,0.827,0.667,1.168
	c2.36,2.603,2.414,4.385,2.414,5.454c0,0.89,0.198,2.097,0.264,2.479c0.014,0.077,0.023,0.132,0.023,0.132s0.013-0.055,0.032-0.132
	c0.194-0.783,1.325-5.118,2.48-4.445C428.739,238.998,428.542,246.852,428.542,246.852z M417.985,238.529
	c-0.06,0.627,0.202,1.168,0.58,1.209c0.381,0.042,0.733-0.434,0.795-1.057c0.062-0.626-0.201-1.166-0.58-1.208
	C418.399,237.433,418.045,237.906,417.985,238.529z M410.07,238.529c-0.06,0.627,0.203,1.168,0.58,1.209
	c0.382,0.042,0.734-0.434,0.796-1.057c0.062-0.626-0.201-1.166-0.58-1.208C410.484,237.433,410.13,237.906,410.07,238.529z
	 M411.812,303.861c-1.713,0.931-3.515,2.202-5.367,3.901c-2.295,1.701-5.119,4.347-6.934,6.111c-0.772,0.75-1.356,1.337-1.644,1.627
	c-0.126,0.127-0.201,0.204-0.201,0.204s-2.045,1.64-3.84,3.559c-0.516,0.552-1.01,1.126-1.43,1.692
	c-0.819-0.396-1.745-0.624-2.728-0.624c-2.624,0-4.849,1.593-5.664,3.809c-0.214,0.583-0.336,1.206-0.336,1.857
	c0,3.13,2.687,5.667,6,5.667c2.947,0,5.394-2.009,5.899-4.656c0.063-0.329,0.101-0.666,0.101-1.011c0-0.249-0.023-0.492-0.056-0.733
	c0.191-0.018,0.392-0.045,0.59-0.072c1.393-0.186,2.961-0.57,4.629-1.103c0.146-0.046,0.292-0.094,0.44-0.143
	c0.033-0.011,0.064-0.021,0.098-0.032c5.702-1.902,12.415-5.405,17.089-8.447c1.554-1.011,2.887-1.972,3.876-2.804
	c0.271-0.235,0.521-0.473,0.754-0.712C429.296,305.571,422.246,298.188,411.812,303.861z"></path>
<path id="color_x5F_4" fill="#7c0000" d="M448.868,267.089c0.316,1.117,0.498,2.317,0.498,3.574l-9.637,55.167l-0.163,0.93h-37.804
	l-0.439-2.512l-0.052-0.301c0.033-0.011,0.064-0.021,0.098-0.032c5.702-1.902,12.415-5.405,17.089-8.447
	c1.554-1.011,2.887-1.972,3.876-2.804c0.271-0.235,0.521-0.473,0.754-0.712c6.208-6.382-0.842-13.764-11.276-8.092
	c-1.713,0.931-3.515,2.202-5.367,3.901c-2.295,1.701-5.119,4.347-6.934,6.111l-3.005-17.199c-2.503,2.98-5.14,5.429-7.713,6.957
	c-0.486-0.427-0.983-0.834-1.489-1.241c0.496-3.096-0.543-8.228-4.237-10.478c-0.464-0.282-1.192-0.549-2.089-0.8
	c0.888-4.313,2.012-7.937,2.012-7.937s1.616-3.409,3.671-7.4c0,0,0,0,0-0.001c0.552-1.071,1.135-2.185,1.728-3.286
	c0.016-0.03,0.032-0.06,0.048-0.09c0.106-0.197,0.212-0.393,0.318-0.588c0.051-0.094,0.102-0.188,0.153-0.281
	c0.09-0.164,0.179-0.326,0.269-0.489c0.067-0.122,0.134-0.243,0.201-0.364c0.08-0.145,0.16-0.287,0.24-0.429
	c0.075-0.134,0.15-0.268,0.225-0.4c0.076-0.134,0.151-0.266,0.226-0.397c0.079-0.138,0.157-0.274,0.235-0.41
	c0.071-0.123,0.142-0.244,0.212-0.364c0.082-0.14,0.164-0.279,0.245-0.416c0.066-0.111,0.131-0.221,0.197-0.33
	c0.084-0.14,0.168-0.278,0.251-0.414c0.063-0.102,0.124-0.203,0.186-0.303c0.084-0.136,0.167-0.268,0.25-0.398
	c0.059-0.093,0.118-0.187,0.176-0.277c0.082-0.128,0.163-0.251,0.244-0.374c0.057-0.086,0.114-0.174,0.169-0.257
	c0.08-0.119,0.158-0.231,0.235-0.343c0.053-0.077,0.107-0.156,0.159-0.229c0.081-0.113,0.158-0.218,0.236-0.324
	c0.046-0.063,0.094-0.129,0.139-0.189c0.084-0.111,0.166-0.212,0.246-0.313c0.036-0.044,0.073-0.093,0.107-0.135
	c0.114-0.137,0.224-0.264,0.33-0.376c0.156-0.167,0.316-0.322,0.479-0.472c1.469-2.01,3.545-3.272,5.855-3.272h3.168
	c-0.025-0.284-0.043-0.569-0.043-0.859c0-4.043,2.462-7.511,5.968-8.988c0.782,1.309,1.985,2.198,3.801,2.515v7.333h0.382
	c0.283,0.616,0.642,1.193,1.067,1.72c1.353,1.677,3.42,2.811,6.216,2.811c0.532,0,1.031-0.052,1.511-0.13
	c2.831-0.46,4.759-2.196,5.772-4.401h0.268v-10.608h14.763c5.385,0,9.75,4.365,9.75,9.75
	C452.641,262.527,451.16,265.306,448.868,267.089z"></path>
<path id="color_x5F_3" fill="#990000" d="M312.7,245.874v-29.232c0-26.298-21.395-47.693-47.693-47.693h-6.909
	c-26.298,0-47.693,21.395-47.693,47.693v73.868h-18v-73.868c0-36.223,29.47-65.693,65.693-65.693h6.909
	c36.224,0,65.693,29.47,65.693,65.693v29.232H312.7z M278.625,224.079c-0.652,0-1.182,0.529-1.182,1.182v10.534
	c0,0.652,0.529,1.179,1.182,1.179s1.182-0.527,1.182-1.179V225.26C279.806,224.608,279.277,224.079,278.625,224.079z
	 M278.625,255.667c-0.652,0-1.182,0.527-1.182,1.182v10.532c0,0.652,0.529,1.181,1.182,1.181s1.182-0.529,1.182-1.181v-10.532
	C279.806,256.195,279.277,255.667,278.625,255.667z M269.28,246.32c0-0.652-0.53-1.181-1.183-1.181h-10.532
	c-0.653,0-1.183,0.529-1.183,1.181c0,0.653,0.529,1.183,1.183,1.183h10.532C268.75,247.503,269.28,246.974,269.28,246.32z
	 M299.685,245.139h-10.533c-0.652,0-1.182,0.529-1.182,1.181c0,0.653,0.529,1.183,1.182,1.183h10.533
	c0.652,0,1.182-0.529,1.182-1.183C300.867,245.668,300.337,245.139,299.685,245.139z M264.568,230.593
	c-0.461-0.463-1.209-0.463-1.67,0c-0.463,0.462-0.463,1.209,0,1.671l7.447,7.448c0.461,0.461,1.21,0.461,1.672,0
	c0.461-0.462,0.461-1.209,0-1.671L264.568,230.593z M286.904,252.929c-0.461-0.461-1.209-0.461-1.671,0s-0.462,1.209,0,1.67
	l7.448,7.449c0.462,0.461,1.209,0.461,1.67,0c0.462-0.462,0.462-1.209,0-1.673L286.904,252.929z M270.345,252.929l-7.447,7.446
	c-0.463,0.464-0.463,1.211,0,1.673c0.461,0.461,1.209,0.461,1.67,0l7.449-7.449c0.461-0.461,0.461-1.209,0-1.67
	C271.555,252.468,270.806,252.468,270.345,252.929z M286.904,239.712l7.447-7.448c0.462-0.461,0.462-1.209,0-1.671
	c-0.461-0.463-1.208-0.463-1.67,0l-7.448,7.448c-0.462,0.462-0.462,1.209,0,1.671C285.695,240.173,286.443,240.173,286.904,239.712z
	 M362.648,236.974c0.652,0,1.182-0.527,1.182-1.179V225.26c0-0.652-0.529-1.182-1.182-1.182s-1.182,0.529-1.182,1.182v10.534
	C361.467,236.446,361.996,236.974,362.648,236.974z M362.648,268.563c0.652,0,1.182-0.529,1.182-1.181v-10.532
	c0-0.654-0.529-1.182-1.182-1.182s-1.182,0.527-1.182,1.182v10.532C361.467,268.034,361.996,268.563,362.648,268.563z
	 M341.589,247.503h10.532c0.652,0,1.183-0.529,1.183-1.183c0-0.652-0.53-1.181-1.183-1.181h-10.532
	c-0.653,0-1.183,0.529-1.183,1.181C340.406,246.974,340.936,247.503,341.589,247.503z M371.994,246.32
	c0,0.653,0.529,1.183,1.182,1.183h10.533c0.652,0,1.182-0.529,1.182-1.183c0-0.652-0.529-1.181-1.182-1.181h-10.533
	C372.523,245.139,371.994,245.668,371.994,246.32z M354.369,239.712c0.461,0.461,1.21,0.461,1.672,0
	c0.461-0.462,0.461-1.209,0-1.671l-7.449-7.448c-0.461-0.463-1.209-0.463-1.67,0c-0.463,0.462-0.463,1.209,0,1.671L354.369,239.712z
	 M376.705,262.048c0.462,0.461,1.209,0.461,1.67,0c0.462-0.462,0.462-1.209,0-1.673l-7.447-7.446c-0.461-0.461-1.209-0.461-1.671,0
	s-0.462,1.209,0,1.67L376.705,262.048z M354.369,252.929l-7.447,7.446c-0.463,0.464-0.463,1.211,0,1.673
	c0.461,0.461,1.209,0.461,1.67,0l7.449-7.449c0.461-0.461,0.461-1.209,0-1.67C355.579,252.468,354.83,252.468,354.369,252.929z
	 M370.928,239.712l7.447-7.448c0.462-0.461,0.462-1.209,0-1.671c-0.461-0.463-1.208-0.463-1.67,0l-7.448,7.448
	c-0.462,0.462-0.462,1.209,0,1.671C369.719,240.173,370.467,240.173,370.928,239.712z M401.67,331.998c0,5.08-1.01,9.93-2.83,14.35
	c-0.001,0.002-0.002,0.003-0.002,0.005c-2.84,6.868-7.639,12.715-13.717,16.845c-2.5,1.7-5.23,3.1-8.12,4.16v2.5v6.67v6.66v0.01
	v6.66v6.67v6.66v6.67v6.67v6.66v6.67v6.67v1.8l-9.333,6.003l-7.204-7.804h-3.273l-3.33-1.34l3.33-5.33l-3.33-1.33l3.33-5.34
	l-3.33-1.33l3.33-5.33l-3.33-1.34l3.33-5.33l-3.33-1.33l3.33-5.34l-3.33-1.33l3.33-5.33l-3.33-1.34l3.33-5.33l-3.33-1.33l3.33-5.33
	v-0.01l-3.33-1.33l3.33-5.33l-3.33-1.33l3.33-5.34l-1.01-1.01c-5.567-1.172-10.676-3.583-15.04-6.919
	c-4.338-3.318-7.936-7.554-10.497-12.423c-0.382-0.727-0.738-1.468-1.073-2.222c-2.078-4.673-3.24-9.843-3.24-15.286
	c0-12.199,5.811-23.043,14.811-29.927c3.267-2.5,6.951-4.482,10.935-5.811c0.001-0.001,0.003-0.001,0.005-0.002
	c1.83-0.61,3.72-1.09,5.66-1.41c0.004-0.002,0.008,0,0.012-0.002c0.014-0.005,0.028-0.007,0.042-0.007
	c0.001,0,0.003-0.001,0.005-0.001c2.02-0.34,4.09-0.51,6.2-0.51c5.717,0,11.134,1.278,15.981,3.556
	c0.003,0.001,0.006,0.002,0.009,0.004c2.62,1.22,5.07,2.74,7.31,4.5c0.001,0.001,0.002,0.001,0.003,0.002
	c0.506,0.407,1.003,0.814,1.489,1.241c0.002,0.002,0.005,0.004,0.008,0.007c3.758,3.298,6.857,7.326,9.066,11.862
	c-0.126,0.127-0.201,0.204-0.201,0.204s-2.045,1.64-3.84,3.559c-0.516,0.552-1.01,1.126-1.43,1.692
	c-0.819-0.396-1.745-0.624-2.728-0.624c-2.624,0-4.849,1.593-5.664,3.809c-0.214,0.583-0.336,1.206-0.336,1.857
	c0,3.13,2.687,5.667,6,5.667c2.947,0,5.394-2.009,5.899-4.656c0.063-0.329,0.101-0.666,0.101-1.011c0-0.249-0.023-0.492-0.056-0.733
	c0.191-0.018,0.392-0.045,0.59-0.072c1.393-0.186,2.961-0.57,4.629-1.103c0.12,0.519,0.219,1.039,0.299,1.558
	c0.001,0.005,0.001,0.011,0.002,0.017C401.491,327.73,401.67,329.844,401.67,331.998z M372.67,320.998c0-4.42-3.58-8-8-8
	s-8,3.58-8,8s3.58,8,8,8S372.67,325.418,372.67,320.998z"></path>
<path id="color_x5F_2" fill="#FBC02D" d="M185.06,366.937c-1.579,1.951-2.78,4.154-4.097,6.28v-1.677
	c1.083-1.792,2.148-3.593,3.472-5.228C184.792,365.869,185.416,366.499,185.06,366.937z M181.738,351.745
	c-0.274,1.66-0.526,3.324-0.775,4.989v6.342c0.475-3.708,1.019-7.409,1.628-11.097C182.683,351.422,181.832,351.184,181.738,351.745
	z M341.141,302.071V290.51H210.404h-18h-11.441v48.6c0.374-0.097,0.767-0.164,1.203-0.164c5.535,0,6.842,9.569,4.627,17.318
	c-2.215,7.75,1.711,13.076,2.016,21.063c0.32,8.454-3.717,12.637-6.217,14.407c-0.383,4.003-1.077,7.975-1.628,11.951v7.71
	c0.859-0.144,1.738-0.227,2.64-0.228c0.114-0.235,0.227-0.471,0.323-0.709c-0.4-0.026-0.629-0.054-0.629-0.054
	s-4.783-7.862,3.002-17.239c4.898-5.9,10.939-7.839,14.041-14.604c0.131-0.287,0.266-0.567,0.387-0.872
	c2.852-7.21,9.311-13.765,13.707-11.251c0.173,0.099,0.345,0.208,0.512,0.336c1.388,1.066,1.869,2.462,1.72,4.086
	c-0.322,3.511-3.601,8.088-7.104,12.717c-1.489,1.966-2.363,3.262-2.981,4.395c-1.511,2.766-1.485,4.548-5.085,12.676
	c-3.463,7.813-10.662,9.506-14.893,9.794c2.424-3.228,4.74-6.534,6.979-9.891c0.039-0.007,0.074-0.009,0.113-0.027
	c1.73-0.829,3.516-1.565,5.004-2.806c0.436-0.364-0.096-1.069-0.533-0.706c-1.104,0.921-2.375,1.55-3.66,2.154
	c3.236-4.926,6.281-9.977,9.186-15.107c1.291-2.278,2.562-4.567,3.796-6.876c0.27-0.501-0.551-0.829-0.818-0.332
	c-1.145,2.141-2.322,4.263-3.517,6.377c-2.342,4.145-4.772,8.24-7.323,12.259c0.242-2.798,0.721-5.574,0.646-8.393
	c-0.014-0.569-0.891-0.45-0.877,0.115c0.076,2.907-0.473,5.772-0.689,8.662c-0.021,0.268,0.168,0.431,0.373,0.473
	c-3.053,4.763-6.262,9.424-9.674,13.942c-0.112,0.327-0.248,0.647-0.39,0.964c7.572,0.749,13.57,6.739,14.229,14.237
	c1.785-3.949,5.789-6.708,10.455-6.708c6.318,0,11.443,5.057,11.443,11.292c0,0.909-0.119,1.792-0.324,2.637
	c2.127-1.527,4.625-2.573,7.342-2.976c0.813-0.122,1.639-0.19,2.486-0.19c0.281,0,0.557,0.007,0.832,0.021
	c7.669,0.369,13.974,5.834,15.529,13.035h93.931v-80.669c-4.338-3.318-7.936-7.554-10.497-12.423
	c-0.382-0.727-0.738-1.468-1.073-2.222c-2.078-4.673-3.24-9.843-3.24-15.286C326.33,319.799,332.141,308.955,341.141,302.071z"></path>
<path id="color_x5F_1" fill="#355e05" d="M247.214,442.615h-45.211h-45.212h-45.21c1.549-7.209,7.856-12.683,15.534-13.052
	c0.275-0.014,0.55-0.021,0.831-0.021c0.848,0,1.675,0.069,2.487,0.19c2.716,0.403,5.214,1.449,7.342,2.976
	c-0.206-0.845-0.326-1.728-0.326-2.637c0-6.235,5.125-11.292,11.445-11.292c4.666,0,8.669,2.758,10.455,6.708
	c0.554-6.311,4.898-11.54,10.771-13.489c-2.583-0.698-6.912-2.847-9.23-9.488c-2.26-6.47-0.794-11.95-4.987-17.44
	c-4.195-5.492-6.146-13.54-1.729-15.273s7.255,4.631,9.959,11.387c2.706,6.758,2.802,4.68,8.972,13.475
	c4.207,5.999,2.266,12.036,0.605,15.27c-1.297-3.208-2.699-6.372-4.176-9.5c0.012-0.03,0.025-0.058,0.031-0.096
	c0.156-1.637,0.402-3.274,0.15-4.914c-0.074-0.482-0.828-0.404-0.754,0.08c0.188,1.218,0.088,2.428-0.037,3.64
	c-3.158-6.577-6.666-12.99-10.404-19.258c-0.25-0.418-0.854,0.038-0.606,0.454c3.156,5.293,6.142,10.692,8.896,16.205
	c-1.949-1.415-3.776-2.993-5.88-4.188c-0.425-0.242-0.724,0.456-0.303,0.695c2.168,1.23,4.029,2.9,6.058,4.337
	c0.188,0.135,0.389,0.069,0.51-0.064c2.182,4.414,4.217,8.899,6.047,13.472c-0.121,0.208-0.232,0.389-0.338,0.557
	c0.746-0.106,1.503-0.178,2.279-0.178c1.182,0,2.331,0.135,3.438,0.377c0.26-6.301,1.63-12.522,2.311-18.825
	c-0.154,0.072-0.242,0.107-0.242,0.107s-0.727-0.422-1.766-1.249c0.039-5.745,0.338-11.481,0.826-17.203
	c0.188,0.093,0.434,0.078,0.582-0.147c0.218-0.332,0.422-0.673,0.631-1.011c1.317-2.126,2.518-4.329,4.097-6.28
	c0.355-0.438-0.268-1.068-0.625-0.624c-1.324,1.635-2.389,3.436-3.472,5.228c-0.37,0.611-0.741,1.222-1.125,1.824
	c0.307-3.436,0.687-6.865,1.125-10.288c0.475-3.708,1.019-7.409,1.628-11.097c0.092-0.557-0.76-0.795-0.854-0.234
	c-0.274,1.66-0.526,3.324-0.775,4.989c-1.01,6.755-1.814,13.543-2.317,20.354c-0.652-1.264-1.277-2.535-1.59-3.937
	c-0.127-0.557-0.979-0.321-0.854,0.234c0.424,1.889,1.391,3.56,2.258,5.272c0.021,0.038,0.049,0.063,0.072,0.09
	c-0.268,4.027-0.445,8.06-0.486,12.097c-3.18-2.806-7.859-8.533-5.848-16.837c2.953-12.179,3.943-9.966,4.004-18.454
	c0.052-7.819,0.38-15.31,4.76-16.443c0.374-0.097,0.767-0.164,1.203-0.164c5.535,0,6.842,9.569,4.627,17.318
	c-2.215,7.75,1.711,13.076,2.016,21.063c0.32,8.454-3.717,12.637-6.217,14.407c-0.383,4.003-1.077,7.975-1.628,11.951
	c-0.362,2.613-0.659,5.228-0.767,7.854c0.253-0.055,0.509-0.101,0.767-0.144c0.859-0.144,1.738-0.227,2.64-0.228
	c0.114-0.235,0.227-0.471,0.323-0.709c-0.4-0.026-0.629-0.054-0.629-0.054s-4.783-7.862,3.002-17.239
	c4.898-5.9,10.939-7.839,14.041-14.604c0.131-0.287,0.266-0.567,0.387-0.872c2.852-7.21,9.311-13.765,13.707-11.251
	c0.173,0.099,0.345,0.208,0.512,0.336c1.388,1.066,1.869,2.462,1.72,4.086c-0.322,3.511-3.601,8.088-7.104,12.717
	c-1.489,1.966-2.363,3.262-2.981,4.395c-1.511,2.766-1.485,4.548-5.085,12.676c-3.463,7.813-10.662,9.506-14.893,9.794
	c2.424-3.228,4.74-6.534,6.979-9.891c0.039-0.007,0.074-0.009,0.113-0.027c1.73-0.829,3.516-1.565,5.004-2.806
	c0.436-0.364-0.096-1.069-0.533-0.706c-1.104,0.921-2.375,1.55-3.66,2.154c3.236-4.926,6.281-9.977,9.186-15.107
	c1.291-2.278,2.562-4.567,3.796-6.876c0.27-0.501-0.551-0.829-0.818-0.332c-1.145,2.141-2.322,4.263-3.517,6.377
	c-2.342,4.145-4.772,8.24-7.323,12.259c0.242-2.798,0.721-5.574,0.646-8.393c-0.014-0.569-0.891-0.45-0.877,0.115
	c0.076,2.907-0.473,5.772-0.689,8.662c-0.021,0.268,0.168,0.431,0.373,0.473c-3.053,4.763-6.262,9.424-9.674,13.942
	c-0.112,0.327-0.248,0.647-0.39,0.964c7.572,0.749,13.57,6.739,14.229,14.237c1.785-3.949,5.789-6.708,10.455-6.708
	c6.318,0,11.443,5.057,11.443,11.292c0,0.909-0.119,1.792-0.324,2.637c2.127-1.527,4.625-2.573,7.342-2.976
	c0.813-0.122,1.639-0.19,2.486-0.19c0.281,0,0.557,0.007,0.832,0.021c7.669,0.369,13.974,5.834,15.529,13.035
	C247.211,442.604,247.213,442.609,247.214,442.615z"></path>
</svg>